<?xml version="1.0" standalone="no"?>
<!DOCTYPE svg PUBLIC "-//W3C//DTD SVG 1.1//EN" "http://www.w3.org/Graphics/SVG/1.1/DTD/svg11.dtd" >
<svg xmlns="http://www.w3.org/2000/svg">
<metadata></metadata>
<defs>
<font id="kaiserzeitgotischregular" horiz-adv-x="817" >
<font-face units-per-em="2048" ascent="1638" descent="-410" />
<missing-glyph horiz-adv-x="354" />
<glyph horiz-adv-x="2048" />
<glyph horiz-adv-x="2048" />
<glyph unicode="&#xd;" horiz-adv-x="354" />
<glyph unicode=" "  horiz-adv-x="354" />
<glyph unicode="&#x09;" horiz-adv-x="354" />
<glyph unicode="&#xa0;" horiz-adv-x="354" />
<glyph unicode="!" horiz-adv-x="536" d="M33 1247q0 27 16 27q14 0 42 -7t42 -7q88 0 166 43q6 4 113 53l24 -29q-29 -14 -82 -47q-35 -23 -42 -79t-11 -109q-20 -223 -55 -707h-35l-59 563q-20 184 -46 223q-6 8 -39.5 41t-33.5 35zM92 119q102 49 135 137q35 -115 133 -133q-90 -53 -135 -139q-39 80 -133 135z " />
<glyph unicode="&#x22;" horiz-adv-x="600" d="M80 1315q0 94 82 94q84 0 84 -98q0 -86 -27 -226q-8 -36 -39 -231h-33q-14 80 -40.5 234.5t-26.5 226.5zM348 1311q0 98 80 98q84 0 84 -94q0 -99 -66 -461h-32q-66 352 -66 457z" />
<glyph unicode="#" horiz-adv-x="954" d="M-8 426l22 115h234l55 288h-252l23 115h250l84 440h100l-84 -440h223l84 440h100l-83 -440h227l-23 -115h-225l-53 -288h239l-20 -115h-240l-84 -440h-100l84 440h-225l-84 -440h-99l82 440h-235zM346 541h229l54 288h-228z" />
<glyph unicode="$" horiz-adv-x="1021" d="M-6 1026q-2 8 8 14q61 2 119.5 8.5t107.5 26.5q37 14 207 131v180h51v-172q102 -92 238 -92q55 0 92 27q23 16 70 70h28q4 -4 5 -15l-295 -330q10 -23 98 -55q4 -2 35 -18q18 -10 41 -10q33 0 106 55h23q6 0 6 -10t-55.5 -43t-63.5 -74q-6 -12 -6 -19v-249 q0 -6 13.5 -19.5t19.5 -15.5q53 -4 106 -21q-6 -27 -12 -26q-2 0 -34 2t-36 2q-121 0 -202 -58q-37 -27 -156 -139v-176q-6 -2 -51 0v182q-115 109 -260 109q-51 0 -116 -47l-65 -47q-8 0 -18 18l315 360q-8 16 -32 31q-100 57 -129 58q-20 0 -62.5 -35t-46.5 -35 q-8 0 -25 14v15q6 8 27 20q78 37 90 86q4 16 4 186q0 -2 4 35q-4 41 -6 43q-14 16 -78 13q-49 -4 -57 0q0 4 -4 11t-4 9zM229 416h15q43 16 98 16q57 0 164.5 -49t93.5 -49q25 0 25 96v150q0 72 -17 84q-74 37 -112 55zM336 801q90 -61 110 -62q20 0 148 148l121 141 q-63 -18 -127 -18q-66 0 -125 24q-25 10 -51 35q-14 14 -31 29q-45 0 -45 -113v-184z" />
<glyph unicode="%" horiz-adv-x="1421" d="M8 604q33 25 68 78l2 444q0 47 -17 86q-4 8 -10 25q78 -10 62 -10q98 0 176 30q55 23 110 72l129 -100q51 27 58 26l6 -12q0 -4 -25.5 -23.5t-25.5 -21.5q-29 -29 -29 -74v-405q0 -82 23 -123q-141 12 -228 -10q-10 -2 -119 -70q45 0 -43 37t-127 37q-18 0 -10 14zM174 8 l463 656q125 180 453 641q4 6 25.5 -10.5t17.5 -20.5q-90 -127 -453 -641l-463 -656zM197 690q100 -63 116 -69q6 0 76 18l2 504q-88 82 -96 82t-50 -13.5t-48 -13.5v-508zM745 72q33 25 68 78l2 444q0 51 -37 86q2 2 10 25q78 -10 62 -11q98 0 176 31q55 23 111 72 l129 -101q51 27 57 27l6 -12q0 -4 -25.5 -23.5t-25.5 -21.5q-29 -29 -29 -74v-406q0 -82 23 -123q-160 14 -221 -4q-16 -4 -133 -69q43 0 -37 35.5t-119 35.5q-27 0 -17 11zM934 158q100 -63 117 -70q6 0 75 31l2 491q-88 82 -96 82t-50 -13t-48 -13v-508z" />
<glyph unicode="&#x26;" horiz-adv-x="1163" d="M-12 479q-4 94 32 152q23 35 89 78q84 55 114 88q-10 10 -51 53q-18 20 -41 20q-70 0 -70 -45l7 -24l8 -8q23 23 28 22q25 0 25 -27q0 -33 -35 -36q-20 0 -37.5 22.5t-15.5 50.5q2 55 74 66q-41 39 -58 39q-2 0 -15 -2t-22 -2q0 20 -8 51q-4 6 -18 39q84 -43 252 -203 l43 39l-297 240q8 20 16 20q18 0 45 6q168 113 281 232q6 18 14 36q147 -109 328 -225q25 -10 43 -10q55 0 100 43q-45 45 -45 70q0 39 26.5 65.5t63.5 26.5t61.5 -28t24.5 -66q0 -70 -82 -113q-68 -37 -143 -37q-33 0 -53 8l-45 19q-2 -2 2 -21q4 -16 0 -22l-2 -795 q6 0 64.5 22.5t80.5 22.5q12 0 14 -8t-2 -12q-68 0 -153 -50v-59q29 12 123 59q57 29 98 29q18 -2 18 0q-47 47 -204 146q35 14 36 18q14 4 23 37v194h307q-2 -2 -2 -22q0 -23 2 -25q-2 2 -22 2q-20 2 -23 0q-45 -4 -72 -82v-217q0 -51 106.5 -149.5t106.5 -149.5 q0 -31 -28.5 -53t-65.5 -22q-88 0 -88 63q0 51 53 51q10 0 30 -13t20 -24q2 -6 -6.5 -22.5t-8.5 -18.5q0 -6 2 -8v-4h25q10 0 24.5 20.5t12.5 30.5q-2 57 -49 74q-23 8 -86 6q-119 -4 -304 -131q-2 0 -17 -16.5t-19 -16.5q8 0 -64 54q-27 20 -67 47l-123 61q-45 23 -154 82 q-72 43 -141 115q-84 88 -86 147zM72 240l6 20l426 -256q-4 -4 -2 -10q4 -8 4 -4q-2 -2 -14 0q-23 8 -43 20q-16 4 -23 4q-16 0 -41 -14q-10 0 -8 2q4 14 4 23q0 10 -4 14q-10 10 -33 31q-10 10 -59 36.5t-60 26.5q-78 0 -78 -47q0 -25 20.5 -45.5t45.5 -20.5q10 0 20 11 q-12 16 -12 26q0 23 23 23q27 0 26 -33q0 -18 -18.5 -34.5t-42.5 -16.5q-23 0 -56.5 27.5t-33.5 50.5q0 80 76 80q-18 14 -123 86zM190 395q0 -131 125 -207q76 -45 125 -43q66 4 99 39v195q0 82 -58 117q-31 18 -59 18q-55 -2 -94 -43t-39 -94q0 -33 30.5 -67t65.5 -34 q31 0 57.5 21.5t26.5 52.5q0 47 -41 58l-22 2q16 -43 16 -48q-14 -14 -31 -14q-31 -2 -35 41q-2 39 56 41q29 2 52 -24.5t23 -51.5q0 -45 -29.5 -71.5t-70.5 -26.5q-74 0 -98 51q-27 31 -27 68q-2 66 43 113t113 47q29 0 53 -9q-33 43 -82 107q-2 12 17 12q16 4 129 -168 v195q-10 10 -31 10q-123 -2 -215 -82q-98 -84 -99 -205zM238 975q0 -29 10 -45q20 -25 213 -164q23 -12 78 -45v59q-205 129 -207 246q0 39 28.5 67.5t61.5 28.5q84 2 84 -78q0 -57 -57 -57q-47 0 -50 41q-2 20 23 25q33 0 33 -25q0 -8 -6 -14q6 -6 14 -6q27 0 26 41 q0 12 -28 41q-29 16 -37 16q-68 0 -68 -72q0 -61 66 -127q14 -14 98 -84l19 -12q-2 279 0 373q4 25 -76 24q-66 0 -146.5 -84t-78.5 -149zM567 193q31 0 31 16v944q0 20 -27 18z" />
<glyph unicode="'" horiz-adv-x="348" d="M82 1303q0 100 88 100q86 0 86 -98q0 -59 -29 -236q-10 -58 -41 -244h-32l-43 244q-29 162 -29 234z" />
<glyph unicode="(" horiz-adv-x="493" d="M12 672q0 -582 371 -885l20 14q-117 166 -182 414q-59 225 -59 451q0 379 227 829l-20 12q-141 -127 -249 -382.5t-108 -452.5z" />
<glyph unicode=")" horiz-adv-x="499" d="M-10 -199q240 344 239 865q0 373 -225 829l21 12q141 -127 248.5 -382.5t107.5 -452.5q0 -582 -371 -885z" />
<glyph unicode="*" horiz-adv-x="905" d="M10 846q0 100 172 112q74 6 162 58q-92 51 -141 57q-104 10 -125 19q-68 27 -68 96q0 39 26.5 64.5t65.5 25.5q49 0 82 -33q14 -14 82 -96q45 -55 103 -88v37q0 47 -36 132t-36 116q0 43 27.5 73.5t68.5 30.5t68.5 -32t27.5 -75q0 -27 -40 -114q-31 -68 -31 -168 q63 35 100 74q27 27 78 102q41 41 90 41q39 0 65.5 -25.5t26.5 -64.5q0 -66 -59 -92q-31 -14 -125 -29q-82 -10 -150 -51q90 -49 140 -55q109 -12 127 -21q68 -29 67 -94q0 -88 -88 -88q-41 0 -82 35q-25 20 -84 90q-43 53 -106 90v-37q0 -47 34.5 -133t34.5 -113 q0 -43 -26.5 -74.5t-67.5 -31.5t-68.5 30.5t-27.5 73.5q0 18 36 118.5t36 166.5q-78 -45 -105 -78l-74 -94q-43 -47 -88 -47q-39 0 -65.5 26.5t-26.5 65.5z" />
<glyph unicode="+" horiz-adv-x="978" d="M27 539v94h356v362h94v-362h357v-94h-357v-363h-94v363h-356z" />
<glyph unicode="," horiz-adv-x="370" d="M31 127q82 -37 129 -102q-57 -94 -49 -218h28q4 68 70 179.5t123 146.5q-94 45 -142 150q-51 -84 -159 -156z" />
<glyph unicode="-" horiz-adv-x="606" d="M27 418q47 76 47 80q16 4 112 4q113 0 336 -4l-41 -80h-454z" />
<glyph unicode="." horiz-adv-x="438" d="M72 127q109 72 159 156q48 -105 142 -150q-82 -49 -150 -162q-53 82 -61 90q-33 39 -90 66z" />
<glyph unicode="/" horiz-adv-x="759" d="M10 8l678 1389l66 -6l-674 -1385z" />
<glyph unicode="0" horiz-adv-x="872" d="M27 186q4 8 32.5 19.5t34.5 21.5q18 25 19 92v474q0 74 -13 100q-16 49 -73 63l6 15q115 27 223 104q49 35 184 164q8 -8 62 -29q291 -111 291 -469q0 -367 -291 -602q-55 -45 -131 -157l-13 2q-119 145 -331 202zM279 987q2 -63 2 -520q0 -135 2 -152q14 -80 82 -114 q41 -20 79 -21q25 0 59 22.5t46 45.5q29 55 51 164q21 102 21 174q0 213 -62 344q-27 57 -93.5 102t-127.5 45t-59 -90z" />
<glyph unicode="1" horiz-adv-x="600" d="M70 987q10 10 94 49q33 16 139 97q8 8 57 65q14 18 43 51q-4 -12 -8 -53q-2 -25 0 -51q2 -20 2 -29v-989q29 -68 105 -86v-18q-92 -27 -201 -187q-117 -170 -197 -217l-20 6l10 21q55 35 92 105.5t37 144.5l4 1026q0 76 -45 75q-12 0 -51 -18l-53 -25z" />
<glyph unicode="2" horiz-adv-x="942" d="M55 -16q0 23 41 94q90 201 322 371q119 86 157 129q78 84 78 182q0 113 -108.5 208t-222.5 95q-49 0 -90.5 -36t-41.5 -79q0 -78 77 -145.5t157 -67.5q57 0 78 27h22q0 -20 -80 -70q-70 -55 -215 -180l-12 10q29 45 29 51q0 16 -45 54q-61 49 -86 80q-45 57 -45 127 q0 119 112 210q43 20 136.5 94t123.5 111l11 -2q27 -37 139 -90q121 -57 160 -98q80 -84 79 -232q0 -90 -104 -198q-80 -84 -182 -146q-119 -72 -244 -196q-31 -31 -35 -47q-2 -33 -12 -52q8 -4 203 -2q199 2 213 4q23 16 35 113q14 123 30 168q31 88 101 90 q18 0 34.5 -13.5t16.5 -29.5q0 -35 -41 -63q-63 -45 -66 -47q-33 -35 -32 -136q0 -102 26 -229q18 -88 19 -72q-2 -6 -7 -16q-63 51 -116 51h-533q-35 0 -63 -37h-19v15z" />
<glyph unicode="3" horiz-adv-x="921" d="M27 127q55 61 169.5 178t200.5 117q33 0 109 -47q37 -23 53 -23q6 0 24.5 5t22.5 5l6 -16q-51 -35 -223 -164l-10 11q27 39 27 49q0 35 -37 68.5t-72 33.5q-61 0 -61 -68q0 -76 94 -141q88 -61 164 -61q104 0 175.5 71.5t71.5 176.5q0 119 -116.5 227t-237.5 108 q-111 0 -172 -69q-8 -6 -31 10l422 440l-346 -2q-72 0 -119 -78l-22 5v18q127 121 223 283h27q-2 -6 -2 -15q0 -37 53 -37q10 0 53 2h76h129q92 0 78 -2q55 2 65 29l35 2q-55 -57 -389 -399l12 -10q141 -8 244 -97q111 -94 111 -231q0 -96 -17 -156q-35 -129 -153 -260 q-133 -145 -254 -145q-84 0 -170 49q-61 35 -111 88q-45 47 -49 49q-6 0 -21.5 -9t-17.5 -9z" />
<glyph unicode="4" horiz-adv-x="948" d="M78 1055q18 18 92 96q66 72 82 82q16 0 59 -37q37 -31 51 -51q43 -61 44 -115q0 -37 -12.5 -78t-92.5 -258l-82 -221q90 -2 301 0v377q0 92 -6 111q-12 39 -55 53q168 98 219 215h14v-746q2 -6 17 -2q16 4 20 2q6 -2 21 -2q37 0 51 39q4 12 20 105h17v-389h-21 q-6 55 -14 69q-14 18 -62 19q-47 0 -49 -2l-2 -158q0 -20 33 -35q18 -4 51 -16l-6 -15q-106 -8 -162 -164h-16q-18 106 -168 177q96 25 96 106q0 8 -2 38t-2 40v31l-274 2q-51 0 -76 -15q-8 -6 -26.5 -19t-28.5 -22l-21 23q43 86 125 262q70 154 70 274q0 217 -205 224z" />
<glyph unicode="5" horiz-adv-x="948" d="M57 84l6 16q39 31 93 88q35 57 106 168q66 96 162 97q8 0 51 -20.5t55 -20.5q8 0 24.5 9t20.5 9l11 -2q-18 -20 -180 -209l-15 10q23 49 23 39q0 29 -27 47.5t-59 18.5q-31 0 -52.5 -25.5t-21.5 -58.5q0 -25 23.5 -58.5t48.5 -48.5q80 -47 184 -47q113 0 189.5 66.5 t76.5 175.5q0 154 -145 248q-127 82 -289 82q-135 0 -250 -117l-16 6v14q0 16 141 314q29 59 168 348q31 -14 61 -33h74q121 0 156 2q53 25 90 25q-47 -102 -123 -230q-12 33 -21.5 40t-37.5 7h-250q-53 -143 -86 -206q117 20 149 20q188 0 317.5 -117t129.5 -303 q0 -180 -125 -342q-133 -172 -307 -172q-109 0 -213 74q-41 31 -66 65q-16 25 -16 33q-10 0 -49 -22z" />
<glyph unicode="6" horiz-adv-x="948" d="M63 946q-4 8 5 17q63 0 151 67q55 43 166 127q96 70 197 70q100 0 163 -101q0 -6 7 -6q6 4 49 35l20 -12l-225 -215l-14 10q4 6 26 35q14 18 15 39q0 43 -62.5 91t-107.5 48q-88 0 -111 -100q-8 -37 -8 -168v-635q55 -41 94 -68q61 -43 102 -43q76 0 121 99q35 76 35 163 q0 102 -39 181q-49 96 -141 96q-39 0 -55 -12q-33 -25 -45 -29v16l256 238q-2 6 -3 -39q0 -39 58 -80q72 -51 84 -72q49 -78 49 -168q0 -131 -74 -237q-47 -68 -170 -172.5t-178 -165.5q-49 39 -143 106q-156 109 -213 123q0 6 39 19.5t47 21.5t8 137v488q0 35 -32 63.5 t-71 32.5z" />
<glyph unicode="7" horiz-adv-x="946" d="M90 907v15l189 346q2 -2 16 0q2 -2 8 -2q-8 -16 -8 -33q0 -25 31 -25l358 2q16 0 33.5 12.5t34.5 24.5l22 -8q-113 -133 -344 -481h158q37 0 60.5 7t43.5 36h27l-197 -236q-2 0 -6 2q-8 -6 -12 -6t-4 4q0 6 10 24.5t10 22.5q0 12 -45 13h-117q-106 -147 -114 -248 q-10 -109 82 -178q82 -61 194 -62q55 0 97 44t42 100q0 37 -24.5 64.5t-56.5 27.5q-23 0 -46 -17q55 -23 56 -57q0 -53 -58 -53q-51 0 -51 59q0 35 30 64.5t62 29.5q55 0 88 -34.5t31 -94.5q-2 -86 -108 -153q-57 -33 -172 -103q-23 -37 -66 -75v6q0 31 -61 69 q-90 57 -117 84q-61 59 -62 131q0 106 86 224q45 57 132 172h-109q-55 0 -88 -45q-25 -2 -27 0q27 37 191 239h20q-10 -25 -10 -35q0 -29 37 -28q43 0 57 2q14 20 162 262q10 37 -45 37h-219q-102 0 -185 -150h-16z" />
<glyph unicode="8" horiz-adv-x="944" d="M102 281q0 94 86 192q74 84 170 131q-18 18 -86 72q-53 43 -73 82q-61 125 -56 162q-8 0 -12 2l-22 -11q-8 10 -7 25q182 53 381 221q25 27 76 76q16 -35 39 -49q2 0 82 -43q45 -25 76 -56q47 -47 47 -120q0 -162 -213 -289l104 -74q98 -92 152 -268q2 -10 18 -6 q41 4 23 4q2 -13 2 -21q-117 -47 -247 -154.5t-200 -213.5q-8 31 -98 69q-113 47 -160 86q-82 66 -82 183zM238 375q0 -90 98 -166t190 -76q61 0 108.5 41t47.5 96q0 123 -211 267q-25 20 -35 30q-33 25 -35 23q-63 -31 -110 -88q-53 -63 -53 -127zM309 924q2 -47 111 -140 q100 -86 133 -86q37 0 76 61.5t39 100.5q0 70 -75 135.5t-147 65.5q-51 0 -96 -44t-41 -93z" />
<glyph unicode="9" horiz-adv-x="948" d="M74 109q158 113 243 204l17 -6q-25 -33 -41 -63q-8 -61 59 -111q61 -47 125 -47q123 0 123 162v592q0 86 -14 112q-27 51 -80 85t-109 34h-47q-37 -6 -78 -43q-63 -55 -63 -158q0 -90 85 -167.5t177 -77.5q18 0 76 28l8 -16q-143 -113 -248 -225l-18 14q33 23 22 31 q-29 25 -94 80q-106 98 -106 249q0 164 131 271q8 6 266 198q168 -168 346 -184q-2 -2 -53 -24q-37 -16 -37 -54l-2 -631q-4 -12 -4 -20q0 -59 80 -63q4 -2 6 -19q-86 -14 -236 -147q-141 -125 -223 -125q-133 0 -248 127q-16 -6 -61 -23z" />
<glyph unicode=":" horiz-adv-x="370" d="M31 127q109 72 159 156q48 -105 142 -150q-82 -49 -150 -162q-53 82 -61 90q-33 39 -90 66zM31 659q109 72 159 156q48 -104 142 -149q-82 -49 -150 -162q-53 82 -61 90q-33 39 -90 65z" />
<glyph unicode=";" horiz-adv-x="370" d="M31 127q82 -37 129 -102q-57 -94 -49 -218h28q4 68 70 179.5t123 146.5q-94 45 -142 150q-51 -84 -159 -156zM31 659q109 72 159 156q48 -104 142 -149q-82 -49 -150 -162q-53 82 -61 90q-33 39 -90 65z" />
<glyph unicode="&#x3c;" horiz-adv-x="837" d="M76 608l8 8q8 7 12 11q145 123 545 428l61 -58l-497 -389l491 -366l-61 -56z" />
<glyph unicode="=" horiz-adv-x="872" d="M10 418v80q27 4 191 4q190 0 571 -4v-80h-762zM10 623v79q27 4 191 5q190 0 571 -5v-79h-762z" />
<glyph unicode="&#x3e;" horiz-adv-x="843" d="M49 997l62 58q225 -178 546 -428q17 -17 21 -19l-561 -422l-62 56l492 366z" />
<glyph unicode="?" horiz-adv-x="847" d="M10 1237q80 0 113 2q57 4 113.5 54t54.5 50q6 0 10 -4q172 -172 438 -172l6 -18q-37 2 -45 -57v-68q-6 -49 0 -352q0 -8 31 -84q-12 -16 -10 -17q-33 31 -72 37h-71q-68 0 -150 -45t-80 -45v-149l-69 -7l-29 213q53 10 260 115l2 391q0 27 -14.5 50.5t-34.5 23.5 q61 0 -64 -42t-176 -42q-66 0 -134.5 52.5t-78.5 113.5zM154 127q109 72 159 156q48 -105 142 -150q-82 -49 -150 -162q-53 82 -61 90q-33 39 -90 66z" />
<glyph unicode="@" horiz-adv-x="1396" />
<glyph unicode="A" horiz-adv-x="1523" d="M-25 1155q0 66 49.5 114t112.5 48q59 0 107 -35q50 -37 49 -97q0 -37 -30 -71q-32 -37 -73 -37q-33 0 -62.5 21.5t-29.5 46.5q0 31 16.5 54.5t41.5 23.5q35 0 53 -27t12 -57q-2 -2 2 -6q33 18 33 55q0 48 -36 74q-31 23 -71 23q-6 0 -12 -1q-47 -4 -89 -45t-42 -88 q0 -66 50 -116t116 -50q201 0 539 262q193 150 202 150q-15 0 -15 -5q0 -10 56 -38q57 -29 133 -58.5t121 -29.5q68 0 168 61q2 0 8.5 -4t6.5 -6v-14l-385 -232q-2 12 4 43q0 16 -59.5 57t-71.5 43v-421q12 6 94 71q12 12 43 47q14 18 14 45q0 25 -19.5 44.5t-43.5 19.5 q-23 0 -37 -27q8 2 24 0q20 -4 21 -24q0 -31 -33 -31t-33 39q0 63 64 63q33 0 59.5 -28.5t22.5 -57.5q-6 -51 -92 -130t-86 -83v-24l249 2v285q0 6 -1 16t-3 14q-10 23 -37 23q-12 0 -30 -6l317 211l6 -7l4 -16q-74 -45 -73 -147v-805q0 -55 4 -72q14 -55 73 -55q35 0 76 41 q10 -10 11 -17l-205 -198q-88 78 -224 157v17q88 2 89 108v353h-156h-78q-35 -2 -22 -3q0 -6 2 -34v-52v-86q29 66 88 68h9q107 0 107 -96q0 -102 -86 -117q-27 -4 -34 -2q-41 0 -41 41q0 37 41 37q43 0 43 -37q0 -4 -5 -16q61 12 62 92q0 78 -96 78q-43 0 -68 -45 q-16 -31 -20 -84q2 -60 2 -152t-2 -215h-35l-2 1233q-8 12 -43 12v-1245h-35l-2 1237q-111 -88 -111 -133v-834q0 -72 17.5 -95t83.5 -52q0 -2 -2 -10q-74 -33 -166 -166q-137 -197 -156 -217q-98 -109 -195 -109q-49 0 -129 51q-4 0 -20 -12q-20 -20 -27 -23q-2 2 -8 4.5 t-6 12.5l264 237q12 -16 17 -16q-35 -41 -35 -59q0 -31 25.5 -48.5t56.5 -17.5q16 0 41.5 17.5t31.5 31.5q20 45 21 162v932q0 37 -26.5 64.5t-63.5 27.5q-16 -2 -99 -16l-100 -17q-84 0 -142.5 58.5t-58.5 146.5zM119 690q53 14 111.5 66.5t58.5 101.5q0 66 -45 66 q-8 0 -17 -9q0 -2 10.5 -14t10.5 -16q0 -33 -29 -33q-33 0 -33 43q0 49 54 49q71 0 71 -74q0 -41 -20 -69q39 -61 143 -119q-25 -16 -76 -57q-66 -51 -65 -84q0 -52 145 -142l-135 -135q-57 -70 -57 -147q0 -37 26.5 -71t61.5 -34q72 0 72 54q0 8 -7 20q-20 -20 -37 -20 q-12 0 -24 15t-12 25q0 16 16 28.5t31 12.5q53 0 53 -63q0 -92 -94 -92q-111 0 -111 124q1 35 27 95q25 56 27 56q1 0 1 -1q0 14 -63 65.5t-86 61.5l68 51q69 52 69 92q0 38 -51 86t-90 58z" />
<glyph unicode="B" horiz-adv-x="1329" d="M51 1270q12 92 131 92q31 0 58.5 -28.5t27.5 -59.5q0 -25 -18.5 -45.5t-36.5 -20.5q-27 0 -50.5 17.5t-23.5 42.5q0 14 15.5 33.5t31.5 17.5q-8 14 -20 14q-86 0 -86 -85q0 -81 98 -85h5q76 0 157 56q76 53 117 124q8 23 20 41h21l-2 -243q4 -2 0 -13q0 -8 6 -8 q4 0 27.5 17.5t27.5 17.5q39 20 148 102l172 129q4 -4 8 -18q0 -6 6 -18q113 -119 280 -232q16 0 48 -6q6 -4 16 -20q-2 -2 -305 -240l49 -39q166 158 254 203q-6 -10 -21 -39q-6 -12 -6 -51h-47q-12 0 -47 -35q74 -10 78 -76q2 -25 -16.5 -44t-43.5 -19q-39 2 -34 36 q2 27 26 27q8 -4 27 -22q14 0 14 32q0 45 -67 45q-20 0 -47 -28q-18 -18 -48 -45q102 -61 109 -64q61 -43 88 -88q39 -66 39 -150v-16q-2 -61 -84 -147q-61 -66 -141 -115q-113 -70 -164 -94q-29 -20 -98 -62q-45 -27 -115 -102q-20 14 -70 47q-182 127 -303 131h-24 q-44 0 -62 -6q-43 -16 -49 -74q-2 -12 12.5 -31.5t26.5 -19.5h22q4 10 5 12q0 2 -8.5 18.5t-8.5 22.5q0 10 20.5 23.5t30.5 13.5q53 0 52 -51q-4 -63 -89 -63q-37 0 -64.5 22.5t-27.5 52.5q0 45 107.5 144.5t107.5 142.5q0 141 -2 350q-1 126 -1 214.5t1 138.5q0 27 -15 55 t-38 28q-53 2 -135 11q-37 10 -57 48q-16 29 -16 62q0 9 1 19zM70 827q6 2 45 37q94 82 94 150q0 55 -41 55q-14 0 -25 -10q29 -29 29 -37q0 -31 -25 -31q-18 0 -31.5 15.5t-13.5 29.5q0 53 54 54q35 0 55 -25t20 -57q0 -10 -22 -78q-2 -18 43 -64q39 -39 49 -45 q-100 -70 -100 -104q0 -23 42 -73t58 -50q-57 -31 -104 -92q-29 -39 -35 -49q-12 -18 -12 -50q0 -25 17 -46t42 -21q20 0 31 10q0 4 -2 8q-18 -2 -35 15.5t-10 33.5q18 18 36 19q47 0 47 -53q0 -41 -59 -54q-7 -1 -14 -1q-29 0 -51 28q-26 35 -27 76q0 37 35 74q4 4 4 10 q0 29 -90 96q4 8 57 51q45 37 45 68q0 25 -106 110zM354 295q49 0 109 -23q45 -18 133 -55v59q-86 49 -156 50q-2 4 0 12t13 8q23 0 77 -21.5t64 -21.5l2 842l-23 -15q-27 -16 -71 -49q-2 -127 -2 -549q6 -18 16 -59q12 -4 43 -16q2 -2 2 -6q-84 -49 -205 -146q-2 -2 -2 -10 zM627 209q3 -16 32 -16l-4 978q-29 4 -28 -18l2 -829q0 -117 -2 -117v2zM684 184q33 -35 102 -39h4q50 -1 126 47q79 50 98 97q23 55 22 108q0 121 -96 202t-219 83q-18 0 -29 -10l-2 -195q110 168 130 168h1q31 0 27 -10q-23 -23 -94 -109q25 8 53 9q70 1 115 -47 q43 -45 43 -107v-6q0 -33 -29 -68q-20 -51 -98 -51q-41 0 -71 26.5t-30 71.5q0 25 23.5 51.5t54.5 24.5q55 -2 55 -41q0 -43 -36 -41q-14 0 -31 14q0 4 18 48l-24 -2q-35 -8 -39 -58q-2 -31 25.5 -52.5t58.5 -21.5q35 0 64.5 34t29.5 67q0 53 -39 94t-94 43q-29 0 -60 -18 q-59 -37 -59 -123v-189zM686 721q41 20 78 45q82 55 113 78q74 53 100 86q10 15 10 48q0 62 -80 145q-82 85 -145 85q-76 0 -76 -24q1 -56 1 -149.5t-1 -223.5l21 12q33 29 97 87.5t64 123.5q0 72 -67 72q-16 0 -40 -20.5t-24 -36.5q0 -41 25 -41q8 0 16 6q-6 6 -6 14 q0 25 31 25q25 -2 24 -25q0 -41 -51 -41q-57 0 -57 53q0 82 82 82h4q31 0 59.5 -29.5t28.5 -66.5q-2 -117 -207 -246v-63v4zM758 8q0 10 125 88q102 63 147 88q98 53 150 97q12 0 18 -15q-27 -18 -100 -69q100 -13 98 -99q-4 -88 -102 -88q-31 0 -51.5 22.5t-18.5 53.5 q2 25 19.5 43t37.5 16q43 -4 41 -36q0 -8 -10 -20.5t-20 -12.5q-18 0 -37 35q-8 -8 -8 -27q0 -51 53 -53q29 -2 51.5 19.5t24.5 51.5q2 31 -22 50.5t-52 21.5q-29 2 -51 -8q-113 -53 -113 -103q0 -12 6 -22l8 -12q0 -8 -10 -4q-4 0 -30.5 11t-28.5 11q-33 0 -113 -51 q-12 2 -12 12z" />
<glyph unicode="C" horiz-adv-x="1226" d="M8 547q0 55 10 139q14 117 152 254q106 106 205 160q6 2 45 30q-14 31 -45 31q10 0 10 -1q0 -4 -61 -16q-86 -16 -105 -16q-12 0 -54 14.5t-48 22.5q-41 47 -41 86q0 51 31.5 85t76.5 34q68 0 95 -63q6 -14 6 -23q0 -20 -17.5 -42.5t-38.5 -22.5q-63 0 -63 55q0 27 49 53 q-2 18 -37 19q-35 0 -56.5 -26t-21.5 -58q0 -53 43 -82q37 -27 93 -27q82 0 192 82q94 70 154 151q4 2 12 17q2 4 6 10q-1 -36 -1 -82.5t1 -103.5q84 43 119 69q25 18 68.5 62.5t48.5 44.5q2 0 8 -6q94 -186 227 -187q104 0 105 95q0 29 -23 49t-49 20q-14 0 -43 -20 q8 -2 29 -6q33 -8 32 -45q0 -18 -15 -33t-30 -15q-59 0 -59 58q0 35 28.5 57.5t61.5 22.5q42 1 72 -27q29 -26 28 -59q0 -66 -53 -109q-94 -78 -381 -246v-73q152 100 371 251q2 -2 4 -10q-90 -59 -90 -125q0 -12 2 -18l-53 8q-27 0 -86 -35q-4 -2 -50 -28h17q49 0 98 -48 q47 -46 47 -92q0 -55 -36 -92q-34 -35 -87 -35q-37 0 -67.5 26t-30.5 58q0 86 84 86h8q39 -2 39 -47q0 -39 -41 -39q-23 0 -26 25q-2 25 10 31q-6 6 -15 6q-41 0 -41 -60q0 -57 82 -67h9q34 0 62 28q30 30 30 69v5q-2 53 -42 90t-91 37q-39 0 -105 -49v-352l285 172l10 -17 q-10 -6 -37 -28l-2 -19q2 0 7 -4t5 -6q33 -16 59.5 -58t26.5 -79q0 -125 -225 -254q-74 -53 -147 -107q-106 -80 -115 -116q-2 -12 -12 -29q-45 76 -187 113q-117 31 -163 59q-10 4 -63.5 45t-61.5 41q-20 0 -47 -39q-23 -31 -25 -45v-25q0 -75 76 -75h2q23 0 42 15t19 38 q0 8 -10 25q-2 -2 -16.5 -24t-24.5 -22q-35 0 -35 39t45 39q61 0 62 -57q0 -33 -25.5 -53.5t-56.5 -20.5q-41 0 -70 30t-29 71q0 72 74 122q-23 23 -71 89q-57 102 -58 225zM158 696q0 -111 45 -202q84 -135 108 -136q12 0 51 30t48 44q27 42 27 81q0 13 -3 26v559h-18 q-258 -137 -258 -402zM195 754q78 55 86 63q49 43 49 86q0 23 -21 45h-14l-6 -6q16 -16 16 -22q0 -18 -20 -21q-12 0 -19.5 10.5t-7.5 18.5q0 10 6 14q23 23 35 23q18 0 32.5 -16.5t14.5 -35.5q0 -20 -18 -67q0 -16 47 -55q37 -31 53 -37q-92 -88 -109 -111 q-47 -61 -47 -106q0 -72 58 -72q23 0 41 22q0 10 -4 11q-2 0 -9.5 -2t-11.5 -2q-25 0 -24 24q0 29 32 29q37 0 37 -45q0 -18 -19.5 -35.5t-43.5 -17.5q-31 0 -51.5 23.5t-20.5 53.5q0 27 18.5 74t18.5 51q0 23 -41 56q-18 16 -57 47zM324 344q33 -29 141 -80 q29 -14 97.5 -31.5t94.5 -17.5h33l2 219q-133 -78 -133 -125q0 -39 35 -39q33 0 41 21q-31 -2 -31 24q0 27 25 27q33 0 33 -35q0 -47 -58 -55q-9 -2 -17 -2q-43 0 -48 47v8q0 76 153 152v340q-35 -23 -90 -58q0 -63 2 -112q4 -16 25 -41q16 -10 45 -4v-13q-88 -59 -324 -209 q-8 -4 -26 -16zM600 768l92 59v76l-92 -57v-78zM600 872l92 56v301l-24 -4h-1q-12 0 -67 -35v-318zM694 -4q0 10 94 76l66 45q129 88 238 172q12 0 18 -15l-98 -73q104 -9 104 -95q0 -43 -30.5 -67.5t-69.5 -24.5q-72 0 -72 74q0 23 16.5 42.5t36.5 19.5q45 0 45 -35 q0 -8 -10 -21.5t-20 -13.5q-14 0 -39 33q-6 -8 -6 -25q0 -53 53 -53q29 0 51.5 21.5t22.5 52.5t-23.5 50t-50.5 19q-33 0 -53 -10q-106 -53 -107 -105q0 -12 6 -24l6 -12q4 -4 -8 -4q-2 0 -28.5 11t-30.5 11q-23 0 -103 -59q-8 0 -8 10zM719 948l37 25v231l-37 17v-273z M721 215h31v723l-31 -16v-707zM778 1184l2 -195q105 41 105 92q0 23 -35 55.5t-72 47.5zM780 215l49 2q31 2 70 24.5t55.5 47t18.5 69.5v6q0 50 -34 88q-36 40 -93 40q-31 0 -66 -19v-258z" />
<glyph unicode="D" horiz-adv-x="1206" d="M-14 1229q156 113 225 172q4 0 16.5 -21.5t14.5 -23.5q29 -29 92 -29q80 0 233.5 33t233.5 33q121 0 207 -76t86 -195v-680q0 -35 24 -57q12 -6 53 -33q-225 -119 -667 -364l-8 16q0 2 2 8v8q0 51 -142 123q-133 68 -194 68q-45 0 -81 -26.5t-36 -67.5q0 -66 66 -66 q18 0 32 6q-6 6 -23.5 17.5t-17.5 40.5q0 51 54 51q25 0 45 -20.5t20 -43.5q0 -35 -31.5 -59.5t-72.5 -24.5q-47 0 -79 38t-32 91q0 102 76 164q72 55 176 56q27 0 41 -2v569q0 51 -72 51l9 19q106 59 235 139q-29 0 -84 -4t-84 -4q-80 0 -143 20q-37 12 -117 76 q-6 0 -47 -31q-2 8 -10 29zM29 889q6 2 45 37q94 82 94 149q0 55 -41 55q-14 0 -25 -10q29 -29 29 -37q0 -31 -25 -30q-18 0 -31.5 15t-13.5 30q0 53 54 53q35 0 55 -24.5t20 -57.5q0 -10 -22 -78q-2 -18 43 -63q39 -39 49 -45q-100 -70 -100 -105q0 -23 42 -73t58 -50 q-57 -31 -104 -92q-29 -39 -35 -49q-12 -18 -12 -49q0 -25 17 -46.5t42 -21.5q20 0 31 11q0 4 -2 8q-18 -2 -35 15.5t-10 33.5q18 18 36 18q47 0 48 -53q0 -41 -60 -53q-7 -2 -14 -2q-30 1 -52 29q-26 34 -26 75q0 37 35 74q4 4 4 10q0 29 -90 96q4 8 57 52q45 37 45 67 q0 25 -106 111zM340 356q55 -8 129 -53l119 -72v76l-142 68l21 18l119 -61l2 839q-63 -16 -85 -45.5t-22 -97.5q0 -18 2 -98v-139v-238q0 -66 62 -66v-16zM610 221q6 -8 41 -24v991q-10 -2 -41 -12v-955zM664 16q8 8 44.5 30t61.5 32q63 33 338 194q2 -2 6 -14 q-29 -25 -82 -61q82 -12 82 -91q0 -43 -27.5 -69.5t-68.5 -26.5q-33 0 -56.5 21.5t-23.5 54.5q0 61 66 61q37 0 36 -38q0 -10 -11 -21.5t-19 -11.5q-20 0 -39 30q-8 -8 -8 -24q0 -51 55 -51q31 0 53.5 20.5t22.5 50.5q0 61 -78 74q-8 1 -16 1q-40 0 -86 -32q-56 -39 -56 -84 q0 -23 6 -41q-2 -6 -6 -6q-41 35 -72 35q-25 0 -114 -49q-8 6 -8 16zM674 1104q0 -35 2 -51q8 10 21.5 27.5t19.5 25.5q20 20 63 20q37 0 67 -26.5t30 -63.5q0 -78 -66 -78q-20 0 -38.5 17.5t-18.5 38.5q0 29 28 28q25 0 25 -22q0 -20 -21 -35q16 -4 19 -4q47 0 47 51 q0 31 -23.5 51.5t-54.5 20.5q-39 0 -67.5 -48t-28.5 -91l-2 -392q8 12 110 109q72 68 72 127q0 86 -78 86q-18 0 -36.5 -18.5t-18.5 -36.5q0 -43 37 -43q-8 8 -8 24q0 25 28 25q29 0 29 -25q0 -47 -49 -47q-57 0 -57 70q0 31 27.5 52.5t64.5 21.5q27 0 55.5 -29t28.5 -58 q0 -80 -37 -126q-14 -16 -78 -68q-53 -41 -68 -78q59 18 64 23q47 0 85 -28t38 -71q0 -131 -105 -131q-71 0 -71 68q0 57 45 57q29 0 28 -24q0 -29 -30 -29q-12 0 -21 8q-4 -12 -4 -16q0 -37 55 -37q82 0 82 80q0 43 -32.5 71.5t-77.5 28.5q-78 0 -78 -84v-282 q43 -14 59 -15q104 0 144 62q30 47 30 150v7v693q0 124 -143 124h-2q-16 0 -88 -22q-2 -51 -2 -88z" />
<glyph unicode="E" horiz-adv-x="1282" d="M4 588q0 317 371 512q23 12 100 51v53q-162 -83 -241 -83q-7 0 -13 1q-49 4 -55 6q-18 4 -47 27q-49 37 -49 98q0 49 34.5 86t79.5 37q63 0 92 -59q8 -10 9 -33q0 -20 -17.5 -42.5t-38.5 -22.5q-63 0 -63 55q0 27 49 53q-2 18 -37 19q-33 0 -55.5 -26t-22.5 -61 q0 -106 136 -106q88 0 225 86q127 80 186 160q18 31 19 31q-1 -34 -1 -82t1 -109q1 -1 3 -1q11 0 59 31q56 36 79 56q49 43 70 96q14 -33 53 -84q148 -132 214 -132q5 0 9 1q84 0 84 76q0 31 -22.5 51.5t-51.5 16.5q16 -20 17 -47q0 -41 -37 -41q-57 0 -58 53q0 37 25 57 q18 14 43 14q9 0 18 -2q37 -6 64 -33.5t27 -60.5q0 -55 -72 -127q-18 -18 -115 -96q-57 -35 -186 -129q26 -1 77 -1t128 1v74h28v-285h-24q2 13 2 23q0 37 -23 41q-80 0 -196 -3v-180q33 23 98 72q12 12 20 41q0 23 -24 29q-4 6 -14 2l-7 -9q12 -18 13 -18q0 -16 -29 -27 q-25 0 -25 25q0 47 56 49q23 0 38 -16.5t15 -30.5q0 -41 -51 -78l-88 -61q0 -31 -2 -47q72 37 239 155l10 -10q-6 -12 -30 -39q108 -41 108 -160q0 -74 -61 -135q-20 -20 -135 -108q-39 -23 -131 -90q-51 -37 -140 -125q-18 -16 -65 -66q-8 8 -33 31q-39 37 -215 83 t-268 134q-4 4 -8 4q-18 0 -46 -39t-28 -72q0 -71 82 -71h2q23 0 42 15t19 38q0 8 -10 25q-2 0 -18.5 -19.5t-26.5 -19.5q-31 0 -31 32q0 41 39 41q68 0 68 -59q0 -33 -30 -56.5t-62 -23.5q-41 0 -72 33t-31 69q0 68 78 127q-25 33 -61 89q-61 139 -62 266zM176 664 q0 -90 47 -189q53 -111 129 -135q10 -4 47 33q31 31 45.5 50t25.5 58.5t5 57.5v567l-18 -8q-127 -55 -204 -175t-77 -259zM229 752q78 55 86 63q49 43 50 86q0 25 -19 45h-14l-8 -6q16 -12 16 -22q0 -20 -21 -21q-12 0 -17 11.5t-5 19.5q0 10 2 12q29 23 35 23 q18 0 32.5 -16.5t14.5 -35.5q0 -20 -16 -67q0 -16 47 -56q24 -20 51 -36q-100 -100 -109 -111q-47 -59 -47 -106q0 -72 58 -72q23 0 41 22q0 10 -5 11q-2 0 -9 -2t-11 -2q-25 0 -25 24q0 29 33 29q37 0 37 -45t-64 -54q-33 -4 -54 27t-21 68q0 29 20.5 67.5t20.5 40.5 q0 23 -39 56q-31 20 -60 47zM385 319q182 -92 389 -102v238q-45 -18 -119 -70q-18 -14 -18 -41q0 -35 33 -35q-8 10 -2 39q16 18 28 19q33 0 33 -31q0 -37 -43 -47q-10 -4 -14 0q-53 0 -54 55q0 39 41 70q12 8 37 23.5t38.5 24.5t37.5 21v305h-104v-163q4 -23 28 -23 q16 0 47 12q2 -2 -2 -12q0 -8 2 -10zM666 815q25 16 112 78l2 332q-20 6 -30 6q-12 0 -84 -43q-2 -138 -2 -231.5t2 -141.5zM780 -4q0 2 97 78q141 111 286 235q14 0 21 -14q-25 -20 -94 -78q102 -4 106 -90v-5q0 -36 -26 -62q-28 -26 -66 -29q-31 -2 -53.5 18.5t-24.5 50.5 q-2 25 14.5 44.5t36.5 19.5q6 1 12 1q33 0 33 -32q0 -37 -28 -37q-16 0 -39 31q-6 -8 -6 -23q0 -53 53 -53h4q29 2 50.5 24.5t19.5 53.5t-27 49.5t-53 16.5q-33 -2 -52 -13q-102 -57 -102 -108q0 -16 8 -27l8 -10q4 -6 -8 -6q-2 0 -29.5 10t-31.5 8q-27 -2 -98 -63 q-4 2 -11 10zM807 217l41 4v565l-41 9v-578zM807 909q37 29 37 35v244q-24 24 -36 24h-1v-303zM872 965q111 65 111 100q0 43 -111 106v-206zM885 225l24 8q150 48 150 152q0 92 -82 131q-14 8 -39 8t-53 -12v-287z" />
<glyph unicode="F" horiz-adv-x="1353" d="M12 1257v10q0 51 35 87q39 40 96 39q39 0 77 -35t38 -72q0 -86 -80 -86q-65 0 -65 58q0 22 16 40.5t37 18.5q4 0 22.5 -8.5t20.5 -8.5t2 3q0 25 -22.5 42t-49.5 17q-41 0 -69.5 -32t-28.5 -75q0 -57 57 -96q49 -35 111 -35q109 0 229 97q31 25 183 182l22 -4l-12 -27 v-221q88 76 260 256l6 2q0 -80 227 -80q47 0 105 19q66 18 94 47l18 -6l-561 -582h252q39 0 51 33q2 12 6.5 33.5t6.5 31.5h14v-336h-16q-4 61 -24.5 80t-80.5 19q-29 0 -86 -2t-86 -2v-449q10 41 111 154q90 100 90 161q0 35 -27.5 55.5t-64.5 20.5q-27 0 -46.5 -22.5 t-19.5 -48.5q0 -43 39 -50l23 9q-18 16 -19 26q0 27 31 27q35 0 35 -31q0 -18 -22.5 -32.5t-47.5 -14.5q-59 0 -59 66q0 92 92 92q49 0 79.5 -28t30.5 -71q0 -96 -131 -213q76 29 129 29q68 0 116 -45t48 -113q0 -161 -133 -161h-2q-127 0 -127 116q0 41 31 72t71 31 q78 0 78 -72q0 -59 -47 -59q-37 0 -37 30q0 31 27 31q14 0 33 -8q4 0 4 4q0 53 -55 53q-84 0 -84 -82q0 -98 106 -98q51 0 83 40t32 97q0 61 -46 102.5t-110 41.5q-76 0 -137.5 -52.5t-75.5 -126.5q-2 -12 -2 -59l2 -283h-27v861h-30v-861h-31v861h-92v-508q0 -57 72 -70 v-16q-8 -2 -39 -23q-74 -47 -154 -141q-70 -82 -137 -164q-78 -90 -180 -90q-59 0 -117 41q-16 -16 -39 -35l-12 16l256 263l14 -13q-41 -29 -41 -67q0 -74 68 -74q41 0 75.5 39t34.5 82l2 1028q0 180 -69 180q-27 0 -81.5 -9t-80.5 -9q-78 0 -133.5 45t-61.5 118zM150 471 q135 66 135 137q0 59 -135 146q184 121 184 207q0 59 -51 61q-27 8 -31 -16q49 -10 49 -39q0 -40 -29 -40q-4 0 -8 1q-47 8 -47 65q0 51 68 51q31 0 52 -25.5t21 -62.5q0 -29 -30 -88q0 -29 51 -75q33 -29 53 -48q-125 -119 -125 -139q0 -27 60 -82q49 -45 69 -53 q-61 -23 -120.5 -112.5t-59.5 -157.5q0 -111 74 -111q61 0 61 49q0 25 -12 33q-8 -39 -43 -39q-27 0 -27 31q0 45 56 45q18 0 33.5 -21.5t15.5 -46.5q0 -74 -90 -75h-5q-89 0 -90 127q0 66 56 159q-51 82 -135 119zM635 700l96 107v391q-45 -31 -96 -78v-420zM758 834 q10 2 22.5 18.5t12.5 26.5v297q0 8 -35 18v-360zM817 893l258 266q-51 -18 -119 -18q-39 0 -139 30v-278zM891 860l432 428l16 -16q-53 -47 -149 -150h39q37 0 65 -41q27 -38 27 -72q0 -33 -33 -69q-31 -33 -59 -33q-33 0 -58.5 23.5t-25.5 56.5q0 59 49 60q35 0 35 -29 q0 -31 -29 -31q-6 0 -22 10q-10 -4 -11 -14q0 -49 60 -49q23 0 47 23.5t24 46.5q0 92 -94 92q-41 0 -96 -50.5t-55 -89.5q0 -2 -6.5 -17t-4.5 -19q-35 -10 -79 -27q-18 -10 -62 -47zM995 362q4 0 111 54q33 20 45 39q25 35 57 65l17 -8q-33 -33 -41 -72t-17 -78 q-23 23 -57 23q-10 0 -57 -10q-25 -4 -58 -13z" />
<glyph unicode="G" horiz-adv-x="1261" d="M-8 571q0 225 141 367q39 47 143 139q29 18 103 64q-2 27 -39 26q-20 0 -63.5 -12t-63.5 -12q-57 0 -98 31q-47 35 -47 90q0 41 28.5 77.5t69.5 36.5q39 0 65.5 -24.5t26.5 -57.5q0 -63 -51 -63q-20 0 -43 17.5t-23 35.5q0 31 60 53q-10 10 -35 11q-78 0 -78 -84 q0 -102 123 -103q66 0 186 90q109 82 154 150h18v-158l9 -8q109 47 219 166q25 -45 125 -115.5t149 -70.5q39 0 69.5 25.5t30.5 62.5q0 25 -20.5 47t-44.5 22q-10 0 -21 -10q33 -27 33 -43q0 -47 -53 -47q-20 0 -37.5 17.5t-17.5 35.5q0 31 28.5 51.5t59.5 20.5 q94 -1 94 -99q0 -51 -23 -75q-43 -47 -114 -95q-29 -16 -86 -47q-68 -35 -68 -49t21 -24q37 -18 125 -70q10 -10 36 -33q47 -41 74 -129q23 -74 23 -137q0 -186 -271 -385q-293 -217 -291 -270q-2 0 -12 -23q-10 12 -47 43l-190 68q-131 47 -226 125q-67 -54 -67 -92 q0 -32 26.5 -55t57.5 -23q45 0 45 47q0 6 -21 26l-18 -2q10 -10 10 -14q0 -25 -26 -25q-25 0 -25 25q0 39 43 39q53 0 53 -49q0 -63 -69 -64q-37 0 -63 25.5t-26 60.5q0 43 31 82l31 39q0 6 -19 25q-20 29 -24 30q-23 33 -47 80q-43 84 -43 217zM117 709q0 -96 50 -203 t126 -158q72 43 94 105q12 33 12 97v19l-14 539q-57 -31 -119 -64q-68 -43 -96 -112q-8 -16 -25 -62q-4 -12 -14 -41q-14 -78 -14 -120zM172 756q2 0 4 18q68 39 103 88q12 25 12 58q0 39 -35 38q-14 0 -23 -14q14 -4 29 -16v-13q-2 -18 -22 -18q-14 0 -27 37q0 16 23 31 q16 10 26 10q45 0 45 -66q0 -2 -8 -25.5t-8 -27.5q0 -12 41 -53q14 -16 47 -41q-78 -66 -94 -84q-51 -55 -52 -111q0 -73 58 -73h2q20 0 41 24l-4 17q-8 -8 -21 -9q-12 0 -26 15v26q23 23 39 23q33 0 32 -47q0 -61 -59 -62q-31 0 -50.5 23.5t-19.5 52.5q0 43 29 111 q0 12 -37 49t-45 39zM311 338q188 -111 357 -111q12 0 20 6v232q-23 -12 -84 -59q0 -25 -20 -58q-25 12 -37 12q-25 0 -61 -22l-37 -23q-8 0 -9 9q25 14 129 82q78 51 121 94v389h-35q-2 0 -82 -35l5 -242q0 -29 26.5 -29.5t28.5 -15.5zM571 881q45 20 97 47q18 16 18 61 v236q-31 8 -47 8q-47 0 -68 -27v-325zM678 2l479 406q6 -3 10 -9q-8 -8 -57 -69q-6 -14 -6 -72q-29 16 -45 16q-47 0 -98 -57q16 0 51 -8q27 -6 48 -35t21 -53q0 -39 -23.5 -65.5t-56.5 -26.5q-73 0 -73 57q0 20 15 35.5t30 15.5q33 0 33 -24q0 -31 -25 -31q0 2 -27 20 q-10 -4 -10 -16q0 -29 49 -41q68 0 68 74q0 80 -92 80q-53 0 -109 -74q-4 -8 -4 -68q-14 8 -43 9q-43 0 -125 -74zM711 879l4 -213v-166q0 -199 2 -254q0 -2 3 -8.5t5 -10.5q-2 0 23 6v646q-10 10 -21 10q-6 0 -16 -10zM715 965q27 8 33 20v213q-14 14 -33 14v-247zM774 471 l4 -217q0 -23 19 -23q41 0 106.5 50.5t73.5 89.5q12 20 22 41q19 67 19 116q0 195 -150 295q-2 0 -11 9.5t-12 9.5t-26.5 13t-27.5 13h-13v-315q25 2 74 56.5t49 86.5q0 10 -10 26.5t-21 16.5q-2 0 -8 -18.5t-18 -18.5q-25 0 -25 23q0 35 47 35q23 0 38.5 -19.5t15.5 -40.5 q0 -61 -82 -131h9q36 0 69 -27q36 -30 36 -67q0 -6 -6 -37q-4 -14 -23.5 -35.5t-27.5 -21.5h-27q-23 0 -44 19.5t-21 48.5q0 33 37 32q33 0 32 -24q0 -20 -22 -21q-6 0 -21 25q-6 -2 -14 -10v-17q0 -12 18.5 -24.5t30.5 -12.5q63 0 64 72q0 84 -84 84q-72 0 -70 -82z M778 1001h15q104 59 104 86q0 23 -46 58t-73 39v-183zM979 1024q76 43 195 131l18 -6q-4 -10 -35 -29q-41 -25 -51 -35q10 -2 33 -18q25 -27 24 -53q0 -20 -16.5 -44t-34.5 -24h-14q-12 0 -26.5 14.5t-14.5 22.5t22 27q16 -10 19 -21v-18q4 -4 12 -4q37 0 37 47q0 53 -53 53 q-10 0 -111 -53q-5 6 -5 9q0 1 1 1z" />
<glyph unicode="H" horiz-adv-x="1269" d="M0 1217q0 10 8 18q8 47 48 79t89 32q8 0 45 -7q47 -14 66 -45q12 -20 27 -43q-4 -4 -11 -32q-2 -35 -33.5 -58.5t-64.5 -23.5q-25 0 -45 18.5t-20 42.5q0 59 59 59q41 0 55 -61q23 10 23 39q0 80 -101 80q-111 0 -110 -105q0 -127 158 -127q172 0 563 301q16 6 22 7 q10 0 13 -2q39 -49 144 -119t157 -70q47 0 79 35q23 29 23 45q0 31 -19.5 52.5t-46.5 21.5q-18 0 -28 -13q37 -37 37 -51q0 -16 -19.5 -30.5t-36.5 -14.5q-25 0 -39 27q-10 18 -10 35q0 71 91 71h3q37 0 62.5 -25.5t25.5 -60.5q0 -39 -14 -59q-35 -49 -156 -129 q-37 -27 -137 -96q27 -23 58 -35q199 -82 243 -240q15 -51 15 -117q0 -47 -6 -77q-20 -102 -119 -213q-57 -59 -172 -181q-133 -143 -133 -206q0 -43 30.5 -77t73.5 -34q25 0 76 37q8 0 18 -10l-250 -222q-6 2 -6 13q8 10 17 22q-100 43 -101 135q0 72 99 185q86 98 184 215 q98 141 98 286q0 252 -213 330q-39 14 -69 21q-18 4 -33 6q-4 0 -2 0q-10 -4 -10 -25l8 -420q0 -76 2 -213q2 -4 6 -16q197 104 197 199q0 92 -50 114q-33 14 -51 15q-31 0 -52.5 -19.5t-21.5 -48.5q0 -12 8.5 -30.5t18.5 -18.5h25l6 6q-20 20 -21 29q0 29 33 28 q33 0 33 -36q0 -16 -16.5 -32t-34.5 -16q-66 0 -66 76q1 36 29 58q22 18 55 17q9 0 18 -1q6 2 11 6q-94 76 -94 152q0 31 31.5 56.5t62.5 25.5q29 0 50 -27t21 -55q0 -16 -18 -32.5t-33 -16.5q-37 0 -37 34q0 27 25 27q16 0 29 -29q12 4 12 23q0 55 -60 55q-25 0 -46 -22.5 t-21 -42.5q0 -51 85 -132t85 -151q0 -115 -232 -248q-133 -76 -172 -158h-14q-43 59 -116.5 98.5t-135.5 39.5q-74 0 -74 -66q0 -14 37 -47q8 0 15 6q-8 8 -9 27q0 43 37 43q6 0 54 -35q2 -33 -24 -51.5t-54 -18.5q-37 0 -62 31q-18 18 -18 59q0 43 89 111t89 125l-4 666 q0 98 -72 98q-14 0 -41.5 -4t-42.5 -4q-55 0 -104 26q-55 29 -70 78q-10 37 -10 58zM55 729v8q31 14 74 54q14 4 40 32.5t34 50.5q0 16 2 25q8 35 8 29q0 78 -66 78q-39 0 -38 -39q4 -2 12 0l16 4q12 0 29 -17v-26q-8 -18 -31 -19q-23 0 -35 23q-12 16 -12 33q0 29 27 43 q20 14 39 14q75 0 75 -90q0 -12 -8 -43t-8 -41q0 -14 51 -60q45 -39 68 -51q-2 -2 -68 -63q-47 -43 -47 -72t49 -67q25 -16 70 -54v-14q-94 -72 -100 -80q-45 -43 -46 -92q0 -25 17.5 -47.5t40.5 -22.5q14 0 43 29q0 10 -29 10q-16 16 -16 33q0 16 28 20q12 0 24.5 -13 t12.5 -21q0 -23 -26 -60q-12 -18 -41 -18q-39 0 -56 43q-9 24 -9 48q0 14 3 28q12 35 8 45q-8 20 -57 59q-57 45 -70 57q127 59 127 117q0 31 -55 75t-80 52zM379 248q25 -6 84 -27q10 -4 80 -41q63 -33 69 -33h15v50q0 14 -70 43l-88 36q-8 6 -8 9l26 4q18 -8 74 -33 q47 -23 49 -23q8 0 11 7v573h-27q-72 -39 -72 -82q0 -31 2 -77t2 -62v-82q0 -57 15 -92q4 -8 26.5 -13.5t26.5 -13.5zM518 803h21q36 20 75 49v176q0 139 -14 205h-18q-20 -6 -42 -41t-22 -66v-323zM631 1237l12 -369q29 6 33 39l-4 285q0 45 -27 45h-14zM643 834l8 -680 q0 -14 15 -15q22 13 22 60q0 55 -10 274q-4 85 -4 153t4 119q0 8 -2 31v35q2 16 12 27q-20 0 -45 -4zM696 1020q0 -4 11 -39q94 76 94 113q0 39 -37 39q-10 0 -21 -11q12 0 25 -16v-16q-10 -10 -23 -11q-29 0 -28 31q0 39 49 39q55 0 55 -59q0 -29 -60.5 -84.5t-60.5 -73.5 q0 -16 7 -23q206 121 206 144q0 33 -151 127q-29 18 -47 28h-19v-188zM874 -51q0 66 148 225q45 45 158 164q6 0 6 -10q0 -2 -20.5 -29t-24.5 -35v-65q-74 -6 -133 -70q4 -14 18 -12h27q71 -23 71 -80q0 -29 -19.5 -58.5t-45.5 -29.5q-72 0 -72 61q0 37 39 37q27 0 27 -27 q0 -12 -41 -28q6 -16 14 -19h25q57 0 57 62q0 67 -87 67h-3q-39 0 -85 -57t-46 -98q0 -35 55 -62q-10 -10 -12 -10q-20 0 -38 25.5t-18 48.5zM999 1010q25 25 197 147h14q-41 -31 -90 -80q70 -14 70 -90q0 -23 -21.5 -44t-42.5 -21q-57 0 -57 49q0 35 29 35q27 0 26 -23 q0 -14 -34 -27q10 -18 24 -18h14q18 0 34 16.5t16 28.5q0 31 -19.5 53.5t-48.5 22.5q-14 0 -48 -16.5t-46 -32.5h-17z" />
<glyph unicode="I" horiz-adv-x="1101" d="M8 90q0 16 18.5 45t32.5 37q127 78 318 190l4 -8l-13 -22q-14 -23 -14 -37q0 -35 105.5 -97.5t146.5 -62.5q100 0 101 156q0 111 -2.5 334t-2.5 333q0 31 -14 46q-8 8 -53 14l-6 8l241 188h-620q-2 -2 -27 -12l-30 -12q-31 -12 -31 -72q0 -96 151 -96q41 0 70 22.5 t29 57.5q0 20 -9 28q-27 -37 -43 -36q-31 0 -30 30q0 37 37 37q61 0 61 -61q0 -53 -76 -109q-45 -33 -137 -100q-76 -59 -76 -137q0 -74 47 -121t121 -47q94 0 94 90q0 41 -18 74q-20 43 -57 43q-72 0 -72 -54l10 -30h2l6 2q0 27 41 26q33 0 33 -51q0 -41 -49 -41 q-25 0 -45.5 28.5t-20.5 59.5q0 37 30 59.5t73 22.5q18 0 46 -22.5t34 -40.5q8 -29 8 -80q0 -37 -27.5 -69t-64.5 -40l-68 -6q63 -78 64 -108q0 -45 -30 -79t-73 -34q-31 0 -55.5 25.5t-24.5 58.5q0 59 68 59q14 0 27 -18v-27q-14 -14 -29 -14q-10 0 -31 26q-12 -8 -12 -24 q0 -59 59 -60q31 0 54.5 23t23.5 53q0 45 -99.5 146.5t-99.5 179.5q0 29 15.5 67.5t32.5 45.5q-113 55 -113 159q0 43 42 107.5t83 85.5q205 100 332 205q27 -57 69 -58h522q-49 -49 -163 -129q-33 -23 -33 -96v-743q0 -57 33 -74q10 -4 84 -17l-4 -14q-39 -14 -111 -53 q-221 -119 -342 -207q-10 -8 -52 -44t-44 -36q-12 0 -31 37q-145 152 -295 152q-88 0 -88 -70q0 -49 49 -59v18q-2 6 -2 16q0 39 49 39q18 0 34.5 -16.5t16.5 -34.5q0 -27 -22.5 -46t-48.5 -19q-33 0 -68 30.5t-35 61.5q-6 6 -6 18zM406 838q165 101 165 183q0 58 -49 58 q-23 0 -22 -16q43 -2 43 -33q0 -37 -23 -37q-53 0 -53 60q0 51 63 51q29 0 47.5 -25.5t18.5 -58.5q0 -27 -29 -80q0 -27 49 -68l52 -43q-119 -109 -119 -124q0 -25 48 -77.5t75 -64.5q-57 -20 -112.5 -101.5t-55.5 -142.5q0 -100 65 -100q55 0 56 51q0 10 -13 23 q-10 -35 -37 -35q-25 0 -24 27q0 43 49 43q45 0 45 -64q0 -71 -78 -71h-2q-43 0 -67 45q-20 37 -21 84q0 63 51 133q-47 74 -120 106q33 18 74.5 64.5t41.5 76.5q0 55 -118 136zM596 -4v16l405 234h17v-15q-18 -10 -37.5 -22t-28.5 -33q2 -10 2 -16q0 -16 -14 -17 q-4 0 -17.5 6.5t-17.5 6.5q-51 0 -63 -23q73 -31 73 -83q0 -26 -19 -45t-44 -19q-43 0 -43 43q0 31 22 30q31 0 31 -18q0 -12 -8 -31l2 -2q45 0 45 43q0 25 -21.5 43.5t-48.5 18.5q-43 0 -116 -50q-98 -66 -115 -73z" />
<glyph unicode="J" horiz-adv-x="1185" d="M-23 -12q0 14 20.5 47t35.5 41l350 209v-4q-4 -2 -14 -21q-16 -23 -17 -45q0 -43 123 -115q113 -67 161 -67h1q117 0 117 176v41q-2 18 -2 37l-2 643q0 31 -17 53q-12 12 -61 18l-2 3l254 190q-10 10 -19 10q-545 0 -704 -4q0 -6 -25 -18q-39 -20 -39 -74 q0 -115 162 -115q47 0 88 27t41 67q0 8 -8 17l-17 16q-4 -4 -5 -7l-1 -3q-14 -27 -32 -27q-31 0 -31 31q0 35 37 35q29 0 49 -20.5t20 -47.5q0 -35 -55 -86q-27 -25 -109 -77q-162 -104 -161 -216q0 -167 188 -167h2q49 0 80 28.5t31 75.5q0 111 -90 111q-74 0 -74 -62 q-6 -18 -6 -20q4 -6 8 -21h4q10 0 12 6q4 35 33 35q35 0 35 -35q0 -43 -45 -43q-27 0 -47.5 20.5t-20.5 47.5q0 41 33 67.5t76 26.5q18 0 55 -29.5t41 -46.5q11 -43 11 -67q0 -7 -1 -13q-16 -84 -106 -106q-6 0 -43 -4l-17 3q-18 3 -28 1q25 -20 53.5 -58t28.5 -65 q0 -49 -33 -85t-80 -36q-33 0 -60.5 28t-27.5 60q0 61 70 62q8 0 26 -19v-24q-14 -14 -26 -15q-12 0 -23 17l-3 5q-3 5 -7 9q-20 -12 -21 -33q0 -71 70 -71h2q37 0 63.5 26.5t26.5 63.5q0 61 -72 121q-14 6 -47 28q-100 84 -100 189q0 35 17.5 74.5t41.5 50.5 q-133 66 -133 178q0 47 47 112q43 59 88 86q195 82 365 224q41 -61 80 -62h567q-96 -86 -182 -145q-29 -20 -29 -86v-805q0 -102 115 -102q12 0 14 -2q0 -2 -1 -4.5t-124 -63.5q-20 -10 -196 -105l-185 -122q-6 -6 -22 -21l-33 -31q-41 -39 -47 -39q-4 0 -13.5 18.5 t-13.5 22.5q-35 55 -151.5 111.5t-184.5 56.5q-102 0 -102 -82q0 -59 66 -71v24q-2 10 -2 23q0 37 49 37q16 0 34.5 -17.5t18.5 -35.5q0 -27 -24.5 -47.5t-53.5 -20.5q-33 0 -70.5 34t-37.5 64q-6 8 -7 21zM424 795q180 113 180 206q0 68 -61 68q-29 0 -29 -27q49 -8 49 -32 q0 -37 -20 -37q-55 0 -56 61q0 20 20.5 35.5t45.5 15.5q68 0 68 -88q0 -33 -33 -86q0 -31 59 -82q26 -20 53 -43q-2 -2 -18 -14q-115 -90 -115 -125q0 -23 54 -72q43 -39 77 -61q-63 -27 -121.5 -116t-58.5 -156q0 -117 78 -117q66 0 66 63q0 14 -21 35q-8 -43 -39 -43 q-23 0 -22 25q0 41 51 41q18 0 31.5 -20.5t13.5 -45.5q0 -74 -84 -74q-45 0 -72 50q-20 39 -20 88q0 68 57 149q-53 84 -131 119q125 70 125 133q0 59 -127 150zM627 -98l448 258l19 -2v-13q-4 -2 -23 -12q-6 -6 -18 -10q-16 -10 -31 -41v-6q0 -27 -12 -27q-4 0 -19.5 6 t-21.5 6q-53 0 -72 -26q84 -35 84 -92q0 -27 -21.5 -48.5t-48.5 -21.5q-47 0 -47 45q0 33 23 33q33 0 33 -19q0 -14 -9 -32l2 -2q0 -2 2 -2q51 0 52 49q0 29 -24.5 48t-55.5 19q-45 0 -129 -53q-59 -41 -127 -82l-4 4v21z" />
<glyph unicode="K" horiz-adv-x="1290" d="M14 1247q0 143 197 144q29 0 68.5 -36t39.5 -89t-41.5 -78t-80.5 -25q-35 0 -57.5 23.5t-22.5 56.5q0 25 21.5 42.5t45.5 17.5q18 0 41 -14.5t21 -31.5q-2 -12 -10 -47q-2 -6 4 -6q18 0 34 29q10 25 11 35q0 41 -33 67.5t-78 26.5t-85 -37t-40 -80q0 -66 53 -106 q47 -35 115 -35q135 0 275 94q123 84 204 209q2 0 31 -21.5t43 -21.5h512v-14q-313 -223 -313 -246q0 -33 67 -88q59 -47 76 -51q76 -16 111 -19q2 2 4 -16l-295 -228q4 -10 29 -28q35 -27 90 -62q68 -37 112 -39q6 -2 13 -8q-6 -31 -76 -61l2 -307q2 -2 26 -31h15 q12 0 38.5 18.5t39.5 18.5l6 -4v-17q-70 -51 -109 -86q-70 -61 -108 -112q-10 0 -19 8q-6 23 -69 98q-14 18 -51 34.5t-46 25.5q2 12 33 18t43 33q6 16 8 53q1 9 1 18q0 29 -5 66q0 18 2 35v37q0 106 -88 133q12 0 -22 14q-25 10 -37 10q-20 0 -37 -12v-362q2 -2 10 -3 q14 2 80 64q39 47 39 74q0 25 -16.5 45t-34.5 20q-16 0 -39 -22q10 -2 47 -21v-24q-23 -16 -35 -17q-37 0 -37 56q0 20 31 34q23 10 41 11q29 0 48.5 -27t19.5 -53q0 -70 -84 -127q-74 -39 -146 -80q-125 -72 -186 -143q-45 51 -125 94q-86 45 -150 45q-92 0 -92 -62 q0 -43 53 -53q6 4 7 10q-14 31 -13 43q12 35 41 35q59 0 60 -51q0 -29 -26 -47.5t-58 -18.5q-37 0 -64.5 27t-27.5 59q0 47 51 93q14 10 51 32q18 10 104 66q66 43 82 121q6 28 6 108v43l-4 256q-3 29 -3 73q0 22 1 48q1 12 1 24q0 120 -58 134q-4 2 -129 20q-80 12 -127 72 q-27 33 -27 96zM35 786q-2 8 27.5 23.5t33.5 19.5q80 63 107 117q10 20 10 49q0 10 -13.5 32t-23.5 22h-33l-6 -9q2 -4 17.5 -17t15.5 -26q0 -10 -11.5 -19t-19.5 -9q-41 0 -41 45q0 18 22.5 34.5t43.5 16.5q31 0 50 -26.5t19 -57.5q0 -6 -12 -37t-12 -37q0 -31 57.5 -72.5 t57.5 -43.5q0 -16 -50 -39q-74 -51 -73 -97q0 -55 121 -123v-20q-98 -61 -121 -82q-51 -47 -51 -100q0 -63 57 -64q10 0 26 15v12q-2 4 -13 11t-15 9q-6 10 3 31t23 21q37 0 37 -43q0 -80 -82 -80q-16 0 -36.5 31.5t-20.5 50.5q0 4 29 90q0 20 -57.5 61t-57.5 47q0 12 10 17 q23 4 72 51t49 69q0 41 -139 127zM336 268q53 -20 115 -45q20 -14 79 -45q80 -31 84 -35q7 1 13 7v57q-82 45 -183 90l-6 5t-10 9l8 6h10q16 -6 72 -32q78 -39 105 -47l-5 612q-68 -37 -69 -53q1 -12 1 -29.5t-1 -40.5q-2 -33 -2 -47q0 -78 10 -197q20 -4 45 -28 q-70 -45 -264 -176q-2 -2 -2 -11zM539 1159l10 -321q74 40 74 65l-5 275q-18 6 -40 6q-40 0 -40 -19q0 -3 1 -6zM547 4q18 37 77.5 67.5t102.5 30.5q18 0 49 -9t35 -17q18 -31 18 -37q0 -23 -17 -39t-34 -16q-10 2 -41 12v29q10 18 23 18q18 0 31 -27q14 8 14 25 q0 18 -23.5 30.5t-48.5 12.5q-61 0 -170 -80h-16zM647 913q20 8 33 19q6 23 6 127v125h-29l-10 -10v-261zM649 551q35 6 39 47q0 -4 -1 -4t-1 76v225q-8 2 -20.5 -7t-12.5 -16q-1 -9 -1 -21q0 -25 3 -63q0 -2 -6 -43v-194zM653 158q6 -1 11 -1q30 0 30 48v332h-18 q-12 -8 -23 -19v-360zM713 1145q2 -12 4 -23v-153h14q49 43 262 190q11 11 11 19l-252 6q-14 0 -39 -10q-1 -4 -1 -11.5t1 -17.5zM717 600h14q74 49 146 96q86 60 135 109q-31 14 -115 74q-23 27 -98 102q-8 -4 -49 -31q-29 -18 -33 -35l4 -213q37 16 78 52q49 43 49 71 q0 49 -47 49q4 0 -31 -14q6 -6 8 -10q31 4 31 -25q0 -23 -27 -22q-32 0 -32 44q0 19 18 31.5t39 12.5q20 0 38.5 -16.5t18.5 -40.5q0 -20 -6 -31q-29 -55 -78 -88q-18 -12 -59 -47q-4 -12 -4 -45v-23zM907 496h15q-2 6 -7 6q-4 0 -8 -6zM977 690l262 201l4 -14 q-46 -29 -46 -76q0 -7 1 -15q-2 -2 -18 0q-8 2 -19 5q-14 0 -43 -17q12 -6 41 -24q8 -4 19.5 -27t11.5 -35q0 -16 -22.5 -34.5t-37.5 -18.5q-18 0 -36.5 11t-18.5 24q0 25 19 26h18q8 -37 21 -37q10 0 26 15q6 31 -10 52.5t-41 21.5q-31 0 -55 -19q-41 -31 -60 -43 q-2 2 -16 4z" />
<glyph unicode="L" horiz-adv-x="1253" d="M-10 1233q0 57 51 105t109 48q149 0 149 -116q0 -55 -39 -91t-90 -36q-35 0 -60.5 27.5t-25.5 64.5q0 72 68 72q25 0 43 -21.5t18 -46.5q0 -33 -63 -53q27 -14 34 -15q37 0 60.5 29t23.5 68t-36.5 65.5t-81.5 26.5q-53 0 -91.5 -42t-38.5 -97q0 -63 58 -105 q51 -37 117 -37q123 0 303 117q135 86 258 207h18q25 -74 125 -140.5t178 -66.5q45 0 77 23.5t32 64.5q0 80 -72 80q-2 0 -21.5 -9t-23.5 -9l-4 -11q72 0 72 -39q0 -49 -50 -49q-55 0 -55 60q0 33 25.5 58.5t58.5 25.5q39 0 70 -34t31 -75q0 -63 -123 -154 q-76 -53 -230 -163q-123 -106 -123 -209q0 -68 42 -118t106 -50q61 0 102 39t41 100q0 47 -37 84t-84 37q-33 0 -67.5 -32t-34.5 -62q0 -90 98 -90q33 0 54 63l-19 37l-14 -31l-27 -14l-24 31l41 41q14 -2 36.5 -25t22.5 -35q0 -35 -24.5 -59.5t-57.5 -24.5q-43 0 -70.5 31 t-27.5 74q0 16 26 75l95 39l22 -6l4 8q-10 29 -22 60q0 76 75 76q63 0 64 -58q0 -33 -45 -47l-35 27l25 24l28 -22l6 12q0 12 -17 29.5t-30 17.5q-16 0 -34.5 -20.5t-18.5 -36.5q0 -27 56.5 -93.5t56.5 -107.5q0 -66 -47.5 -112t-112.5 -46q-74 0 -121 53.5t-47 131.5 q0 74 67.5 159.5t67.5 96.5q0 39 -158 143l-2 -962q127 -82 199 -82q49 0 95 43t46 92q0 51 -59 88t-113 37q-41 0 -70.5 -23.5t-29.5 -60.5q0 -84 84 -84q14 0 40 20.5t26 36.5l-25 39v-2q0 -49 -31 -49l-33 33q2 38 50 38h2q18 0 35.5 -19t17.5 -38q0 -31 -23.5 -53.5 t-54.5 -22.5q-106 0 -106 105q0 68 114 149q90 63 174 119q-6 -33 -6 -41q0 -18 41 -41q55 -31 76 -49q41 -37 41 -92q0 -100 -205 -232q-193 -124 -309 -124h-2q-72 0 -197 75.5t-168 75.5q-57 0 -133 -49q-39 -27 -121 -80l-10 14q147 98 186 131q117 98 117 179v176 q-180 -86 -180 -209q0 -74 55 -74q53 0 53 60l-6 8l-34 -35l-31 41q0 27 37 26l51 -40q0 -33 -19.5 -58.5t-48.5 -25.5q-80 0 -80 104q0 23 17 61l18 43q0 43 -131 125q66 35 139 117q-4 49 -139 125q180 94 180 178q0 55 -49 56q14 0 -30 -11v-14h4l8 4l22 -14v-23l-24 -14 l-35 41q2 14 24.5 30.5t36.5 16.5q23 0 41.5 -20.5t18.5 -43.5q0 -10 -10.5 -38.5t-10.5 -36.5q0 -49 119 -113q-4 -4 -76 -55q-55 -39 -55 -66q0 -31 104 -108l31 6q4 37 4 143q0 231 -2 258q-10 117 -55 117h-2q-18 0 -49 -8q-41 -4 -49 -4q-82 0 -143.5 50t-61.5 132z M133 6v2q0 23 71.5 56.5t100.5 33.5q76 0 76 -61q0 -49 -43 -49q-10 0 -23.5 10t-13.5 20q0 29 27 29q4 0 14 -4q0 -2 3 -12.5t5 -16.5q18 10 19 25q0 41 -64 41q-47 0 -172 -74zM348 217q114 24 225 24q16 0 33 -1l6 6v958l-30 6q-53 0 -54 -137l-2 -612q0 -35 5.5 -46.5 t38 -13.5t34.5 -12zM637 225l31 -10v954l-31 31v-975zM903 6l256 201q2 -2 2 -4q0 -31 -55 -72q27 -12 43 -22q16 -17 16 -50q0 -31 -21.5 -53t-53.5 -22q-33 0 -33 39q0 33 28 32q23 0 23 -18q-2 -27 2 -31q12 10 43 35v8q0 53 -66 53q-18 0 -86.5 -48t-97.5 -48z" />
<glyph unicode="M" horiz-adv-x="1892" d="M-74 -297l246 234q14 -14 14 -17q-31 -51 -30 -67q0 -35 26.5 -59.5t57.5 -24.5q117 0 129 221q2 47 6 145l4 832q0 153 -73 153h-1q-18 0 -59 -9t-62 -9q-66 0 -114 28q-68 39 -68 113q0 57 36 99t89 42q121 0 121 -114q0 -37 -29 -62.5t-61 -25.5q-29 0 -52.5 18.5 t-23.5 48.5q0 20 23.5 40t39.5 20q39 0 48 -45q-2 -12 0 -43q35 29 34 57q0 35 -25.5 57.5t-58.5 22.5q-53 0 -86.5 -32t-33.5 -77q0 4 10 -35.5t53 -62.5t86 -23h23q86 0 204 89q113 84 154 167q23 10 22 17v-271q2 -2 7 -2q145 111 344 285q33 -41 78 -80q37 -31 163 -90 q-6 -6 -39 -20q-49 -20 -49 -60v-53q-2 -6 2 -6l400 301q-2 2 -2 -35q0 -25 28 -41q291 -174 291 -463q0 -143 -90 -278q-70 -102 -260 -285q37 -16 104 -63q14 -8 57.5 -39t45.5 -31q8 0 82 76l10 -19q-37 -39 -221 -237q-31 55 -102.5 108.5t-123.5 71.5q-2 -28 -2 -69 t2 -95h-24v178q0 12 -33 33q2 4 15.5 8t13.5 6v940q0 2 -35 -2v-1171l-27 4v678h-133v-406q0 -29 82 -49q0 -2 -2 -12q-80 -49 -129 -129q-12 -27 -43 -96h-18q-18 70 -39 100q-43 66 -121 127v14q4 4 46 8.5t42 96.5v344q-14 2 -137 2v-682h-29l2 1202q-10 -2 -31 -14 l2 -1188l-28 -2v1167q6 2 -4 2q-6 0 -88 -69l2 -842q25 -74 53 -143q-25 -16 -55.5 -39t-57.5 -49q-59 -74 -178 -220q-132 -157 -232 -157h-1q-39 0 -99 26q-4 0 -19 16.5t-20 16.5q-4 0 -20 -10t-18 -10q-10 10 -11 18zM61 586q125 74 125 119t-125 124q16 10 46 29t45 27 q67 52 67 114q0 25 2 23q-2 10 -31 31h-14l-6 -6q20 -20 20 -35q0 -27 -24 -27q-35 0 -35 33q0 20 17.5 35.5t35.5 15.5q55 0 56 -74q0 -2 -10.5 -29.5t-10.5 -31.5q0 -20 60 -53q75 -43 79 -47q0 -8 -10 -15q-31 -4 -84 -44t-53 -68q0 -27 59 -72q51 -41 84 -49l4 -11 q-86 -45 -141 -120q-61 -84 -61 -174q0 -45 26.5 -82t63.5 -37q27 0 52.5 22.5t25.5 51.5q0 51 -35 61l-19 -4q0 -2 8.5 -13.5t8.5 -15.5q0 -39 -33 -39q-39 0 -39 39q0 23 21.5 38t44.5 15q61 0 61 -81q0 -41 -26.5 -68t-63.5 -27q-57 0 -91 40t-34 98q0 49 31.5 114.5 t31.5 63.5q0 31 -59 75q-45 35 -65 43zM758 776q49 1 83.5 1t53.5 -1v266q0 29 -14 117q-2 8 -29 29q-18 14 -37 26q-27 23 -31 25q-18 0 -26 -20v-443zM1079 1067l2 -291h129l-2 381q-63 -37 -129 -90zM1298 328l9 -2q76 33 136 119.5t60 166.5q0 51 -22 97q-27 53 -74 53 q-84 0 -84 -96q0 -18 20.5 -40t38.5 -22q14 0 29.5 16.5t15.5 32.5q-2 0 -12 -2t-14 -2q-27 0 -27 23q0 29 29 28q41 0 41 -41q0 -27 -19.5 -50t-48.5 -23q-33 0 -51 37q-16 31 -16 57q0 98 110 100q-76 76 -76 154q0 80 84 80q31 0 53.5 -21.5t22.5 -52.5 q0 -20 -17.5 -39.5t-39.5 -19.5q-51 0 -51 39q0 33 26 32q23 0 23 -22q0 -14 -17 -27l25 -6q35 23 35 43q0 57 -66 57q-61 0 -61 -77q0 -45 82 -140.5t82 -161.5q0 -72 -35 -137q-55 -106 -180 -180v-22q0 -35 -2 -33q25 8 69 37q106 68 168 202q55 123 55 260 q0 252 -149 367q-68 51 -111 53l-39 2zM1516 303q33 33 126 125q68 66 109 137q16 0 16 -10q0 -2 -15 -24.5t-17 -30.5q-4 -12 6 -60q-12 4 -23 4q-53 0 -88 -53q6 -6 10 -6t6.5 2t4.5 2q25 0 48 -19.5t23 -41.5q0 -55 -57 -56q-27 0 -27 27q0 8 9 23h18q12 -8 23 -33 q16 12 16 35q0 49 -57 49q-31 0 -121 -76q-4 4 -10 6z" />
<glyph unicode="N" horiz-adv-x="1390" d="M-8 1298q0 127 135 127q39 0 76 -36.5t37 -75.5q0 -14 -23 -66q-43 -20 -67 -20q-27 0 -47.5 19.5t-20.5 45.5q0 59 59 60q37 0 58 -56l4 2q6 18 6 25q0 27 -31 51.5t-59 24.5q-90 0 -96 -94v-10q1 -50 37 -82q40 -35 104 -35q111 0 203 65q29 27 155 141q12 12 39 46 v-312q16 10 203 166q152 127 178 133l12 -16v-4q0 -12 84 -80q242 -197 242 -424q0 -102 -55 -262q-37 -68 -78 -121q-94 -121 -248 -266v-8q119 -41 238 -113q16 4 75 53l13 -6l-234 -217l-117 100q-70 53 -131 80q-1 -7 -1 -51t1 -125h-32v213q-12 -8 -27 -29 q0 -49 -2 -92q-1 -28 -1 -51.5t1 -40.5h-31l2 172q-41 -41 -112 -129l-11 -28q-12 -27 -22 -27l-16 26q-33 68 -125 115q-84 45 -164 45q-33 0 -61.5 -25.5t-28.5 -56.5q0 -47 51 -61l4 4q-18 16 -18 41q0 53 53 53q23 0 40 -19.5t17 -43.5q0 -29 -25.5 -47.5t-58.5 -18.5 q-88 0 -90 94q6 84 128 167q122 82 135 142q10 46 10 163q0 36 -1 79h-8q-66 -25 -119 -80q-59 -63 -59 -127q0 -86 72 -86q35 0 45 41l2 4v8l-8 5q-12 -6 -19 -7q-37 0 -37 39t39 39q55 0 56 -73q0 -35 -26 -59q-24 -23 -55 -23h-5q-96 4 -97 106q0 74 47 127 q-25 25 -69 64q-4 4 -62 41q141 90 142 129q0 66 -144 124q0 4 46 38t57 36q69 69 69 118q0 43 -36 42h-7l-12 -6v-4q18 -20 18 -29q0 -29 -24 -29q-35 0 -35 33q0 51 64 51q55 0 55 -69q0 -23 -21 -58q4 -29 65.5 -72.5t61.5 -47.5q0 -8 -33.5 -29t-39.5 -29 q-12 -2 -36 -29.5t-24 -41.5q0 -57 125 -121l12 -2q1 22 1 53.5t-1 73.5q-3 65 -3 100q0 17 1 27q1 31 1 58q-1 107 -19 162q-20 59 -64 59q-7 0 -14 -1q-41 -8 -86 -8q-182 0 -182 149zM346 287q10 -4 55 -17q10 -2 134 -59q105 -47 117 -47h1v57l-221 98l23 13l198 -82 v905l-94 -76q1 -109 1 -199q0 -182 -3 -292q-2 -37 3 -46.5t40 -23.5l18 -8q-18 -23 -147 -117q-117 -86 -125 -106zM682 1163l2 -977l33 33v948zM741 240l11 8q137 111 206 246q14 35 41 120v9q0 70 -30 122q-47 47 -64 48q-55 0 -77.5 -18.5t-36.5 -72.5q10 -96 73 -96 q66 0 66 62q0 29 -23 47q-4 -41 -33 -41q-31 0 -30 33q0 37 39 36q65 0 65 -77q0 -33 -27.5 -57.5t-58.5 -24.5q-42 0 -70 32q-26 29 -26 73v7q4 113 129 121q-31 20 -63.5 68.5t-32.5 91.5q0 98 100 98q20 0 41 -22.5t21 -42.5q0 -53 -50 -54h-12q-16 12 -16 27q0 33 45 25 v10q-19 30 -43 30q-5 0 -11 -1q-47 -12 -47 -54q0 -66 99.5 -169t99.5 -169q0 -121 -90 -243q-27 -37 -178 -197q-2 -2 -13 -10q2 -27 0 -53l13 14q18 14 100 82q225 188 225 487q0 106 -30 193q-61 176 -277 235l-35 4v-927zM967 246q47 51 143 153.5t127 161.5l18 35l7 -6 q-31 -59 -33 -115l12 -47h-35q-37 0 -67 -35l-6 -8l10 -2q102 0 102 -94q0 -31 -23.5 -56.5t-54.5 -25.5q-65 0 -65 51q0 39 35 39q27 0 26 -27q0 -16 -28 -32q0 -12 20 -13q72 0 72 54q0 33 -22.5 58t-53.5 25q-37 0 -90 -49l-80 -73q-10 0 -14 6z" />
<glyph unicode="O" horiz-adv-x="1347" d="M16 612q0 154 101 308q94 145 233 225q-8 0 -47 -7.5t-51 -7.5q-61 0 -104.5 39t-43.5 95q0 51 34 86.5t85 35.5q39 0 72 -28.5t33 -65.5q0 -33 -21.5 -59.5t-50.5 -26.5q-27 0 -46.5 18.5t-19.5 45.5l43 47q41 0 54 -49l8 14q0 27 -20.5 48.5t-47.5 21.5 q-37 0 -64.5 -27t-27.5 -63q0 -37 36 -67t75 -30q195 0 393 248v-266h4q72 68 270 262q31 -78 127 -168q117 -111 146 -151q69 -98 69 -252q0 -227 -139 -396q-51 -61 -274 -243q-166 -135 -193 -242l-20 -8q-27 41 -201 110q-190 76 -231 111q-57 -55 -58 -117 q0 -25 22.5 -43t49.5 -18q37 0 51 43q4 12 -4 19t-14 3q-16 -25 -37 -26q-31 6 -31 35q8 38 44 38q8 0 18 -2q45 -14 47 -67q0 -25 -22.5 -47.5t-55.5 -22.5q-37 0 -64.5 25.5t-27.5 62.5q0 76 63 133q-162 156 -162 426zM158 684q0 -102 52 -198.5t140 -149.5 q104 72 105 108l-2 592q0 115 -70 115l-14 -10l-2 -39q-74 -27 -141.5 -137.5t-67.5 -192.5v-88zM209 770q137 94 137 158q0 53 -35 53q-20 -6 -18 -6q18 -31 18 -33q0 -27 -26 -27q-8 0 -17.5 15.5t-9.5 23.5q0 49 51 50q25 0 42.5 -19.5t17.5 -44.5q0 -51 -33 -86 q2 -14 41 -47t39 -45q-47 -41 -97 -88q-49 -57 -49 -119q0 -23 17.5 -42t40.5 -19q57 0 57 32l-10 11q-12 -6 -23 -7q-31 0 -30 33q0 31 38 31q51 0 52 -57q0 -66 -76 -66q-90 0 -90 100q0 29 16.5 66t34.5 45zM379 309q35 -29 147 -57q106 -27 162 -27h39q-1 43 -1 108 t1 152q-53 -43 -72 -61q-20 -25 -20 -64q0 -12 2 -26q-23 20 -49 20q-37 0 -96 -53l-19 8l254 213v619h-4q-88 0 -88 -90l-2 -455q0 -27 33 -38l32 -11zM711 -27q57 96 219 230q190 158 239 213l13 -13q-66 -66 -66 -106v-12q2 -4 2 -11q0 -8 -6 -18q-4 0 -20.5 4t-22.5 4 q-18 0 -44 -16.5t-28 -30.5q51 -2 86 -37t35 -86q0 -39 -24.5 -68.5t-61.5 -29.5q-31 0 -56.5 22.5t-25.5 51.5q0 71 58 71h2q37 0 37 -43q0 -31 -31 -30q-2 0 -12.5 10t-18.5 8l-8 -14q10 -47 51 -47q59 0 59 67q0 37 -28.5 67.5t-65.5 30.5q-41 0 -75.5 -35.5t-34.5 -76.5 q0 -8 4 -25q-6 -4 -17 0q-6 2 -16 4q-41 0 -139 -92zM758 227l30 2v904l-30 4v-910zM821 240q139 37 205 192q51 121 51 289q0 129 -68.5 233.5t-183.5 169.5v-549q86 72 103 89q55 57 55 116q0 82 -61 82q-55 0 -56 -53l6 -27l13 -10q4 43 33 43l28 -27q0 -47 -41 -47 q-25 0 -43 22.5t-18 49.5q0 31 24.5 51.5t55.5 20.5q86 0 86 -115q0 -66 -103 -164h5q36 0 62 -26q26 -28 27 -72q0 -31 -23.5 -53.5t-51.5 -22.5q-18 0 -37 12.5t-19 28.5q0 47 35 47q33 0 33 -28l-14 -29l12 -2q37 0 37 47q0 29 -20.5 50.5t-47.5 21.5q-31 0 -57.5 -25 t-26.5 -55v-260z" />
<glyph unicode="P" horiz-adv-x="1396" d="M-4 1243q0 57 44 103.5t99 46.5q57 0 100.5 -36t43.5 -93q0 -33 -32 -67t-67 -34q-31 6 -30 6q-16 0 -35 29t-19 47q0 20 23.5 43t40.5 23q20 0 42.5 -21.5t26.5 -46.5q14 2 15 27q0 39 -35 63.5t-76 24.5h-22q-37 0 -60.5 -41t-23.5 -80q0 -59 49 -92q43 -27 106 -27 q4 0 15.5 2t13.5 2q86 0 188 115q43 47 144 188l16 -2q-8 -51 -8 -65q1 -30 1 -73t-1 -101l-2 -133q-2 -6 -2 -31q4 -2 6 0q41 98 61 125q37 53 111 86q162 70 223 178q12 4 19 2q-14 -31 12 -55q182 -164 254 -318q59 -127 59 -288q0 -135 -43 -238q-37 -90 -129 -203 q-145 -176 -358 -362l-6 6l8 10q-4 39 -2 37q-6 59 -80 123.5t-135 75.5v-187q0 -35 16 -51q10 -6 51 -29v-12q-45 -2 -143 -110.5t-123 -133.5q-87 -67 -104 -67q-4 0 -9.5 10t-7.5 10q72 39 95 111q8 23 16 127q12 143 12 196l-71 -55q-29 -23 -64 -67q-39 -51 -39 -78 q0 -72 64 -72q49 0 49 47q0 6 -8 15q-8 -14 -27 -29q-16 -6 -30.5 4t-14.5 27q0 47 47 47h4q50 -4 50 -59q0 -6 -1 -13q-2 -25 -26.5 -43t-46.5 -18q-86 0 -86 86q0 98 198 241q0 59 2 338t2 500q0 162 -86 162h-2q-8 0 -43 -5.5t-49 -5.5q-76 0 -128 43t-52 115zM47 471 q135 66 135 137q0 59 -135 146q184 121 184 207q0 59 -51 61q-27 8 -30 -16q49 -10 49 -39q0 -40 -29 -40q-4 0 -8 1q-47 8 -47 65q0 51 67 51q31 0 52.5 -25.5t21.5 -62.5q0 -29 -31 -88q0 -29 51 -75q33 -29 54 -48q-125 -119 -125 -139q0 -27 59 -82q49 -45 70 -53 q-61 -23 -120.5 -112.5t-59.5 -157.5q0 -111 73 -111q61 0 62 49q0 25 -13 33q-8 -39 -43 -39q-27 0 -26 31q0 45 55 45q18 0 33.5 -21.5t15.5 -46.5q0 -74 -90 -75h-5q-89 0 -89 127q0 66 55 159q-51 82 -135 119zM551 227q14 4 35 23q14 12 35 33q2 2 13 14t21 22v474 q-74 35 -96 161q0 -16 -4 -78.5t-4 -107.5v-541zM598 997q0 -25 24.5 -62.5t34.5 -27.5q1 13 1 69t-1 154q-59 -53 -59 -133zM680 334l37 35l2 401l-39 12v-448zM682 895q12 -4 37 -16v288q-8 -2 -37 -18v-254zM743 342q0 -10 2 -14q90 -147 195 -148q49 0 131 131 q16 25 34.5 105.5t18.5 115.5v54q0 137 -86 334q-37 86 -129 166.5t-161 82.5v-297q29 -8 63 -4q39 4 69.5 32t30.5 65q0 20 -19.5 42.5t-41.5 22.5q-10 0 -25 -8v-8q33 -14 33 -35q0 -37 -31 -37q-45 0 -45 55q0 23 19.5 38.5t42.5 15.5q92 0 92 -99q0 -127 -139 -174 q-47 -16 -52 -12v-391q-2 -20 -2 -33zM818 578q30 30 77 30q-45 53 -45 109q0 37 26 69q25 30 60 29h4q57 -2 57 -55q0 -57 -41 -58q-37 0 -36 33q0 25 20 25q16 0 20.5 -9.5t10.5 -21.5q8 4 10 25q0 39 -47 39q-23 0 -41.5 -24t-18.5 -46q0 -59 71 -134t71 -159 q0 -59 -34 -126.5t-81 -92.5q-12 -6 -12 8q0 -18 6 -18q11 1 45 75q51 112 55 154v9q1 37 -29 91q-34 60 -73 60q-33 0 -57.5 -21.5t-24.5 -56.5q0 -76 68 -76q16 0 32.5 14.5t16.5 28.5q0 12 -6 13q-20 -10 -21 -11q-6 0 -19.5 9.5t-13.5 13.5q0 35 31 35q47 0 47 -58 q0 -67 -74 -67h-2q-34 0 -60 30q-24 27 -24 57q0 45 32 77zM872 -37q53 61 279 299l12 -14q-33 -51 -33 -72q0 -10 5 -35q-14 8 -41 2q-31 -6 -39 -24q-8 0 -15 -17q6 -8 15 -8q4 0 12 2h10q76 0 76 -76q0 -29 -20.5 -51t-49.5 -22q-16 0 -33.5 13t-17.5 26q-1 7 -1 14 q0 35 38 35q27 0 27 -27q-4 -14 -13 -26q0 -14 13 -17q12 0 24.5 19.5t12.5 33.5q0 57 -78 58q-35 0 -90 -49q-41 -37 -82 -76q-10 25 -11 12z" />
<glyph unicode="Q" horiz-adv-x="1314" d="M16 561q0 379 357 578l14 -21q-235 -149 -235 -405q0 -199 213 -381l53 45q41 35 41 153v551q0 90 -72 90q-16 0 -45 -11t-41 -11q-45 -10 -80 -10q-154 0 -164 159v11q0 51 34 82q38 34 102 34q39 0 75.5 -36.5t36.5 -75.5q0 -14 -22 -66q-43 -20 -68 -20 q-27 0 -47.5 19.5t-20.5 45.5q0 59 60 60q37 0 57 -56l4 2q6 18 6 25q0 27 -30.5 51.5t-59.5 24.5q-90 0 -96 -94v-10q0 -52 40 -84q44 -35 103 -35q172 0 332 178q25 29 72 82q-2 -92 -2 -156t2 -100q47 29 264 252h12q-2 -6 -2 -23q0 -29 90 -88q109 -72 164 -147 q90 -121 90 -297q0 -270 -327 -580q4 -35 70.5 -87t103.5 -52q59 0 110 67l15 -12q-100 -106 -246 -281l-12 -8l-17 17l8 26q-76 35 -139 123q-86 -70 -129 -164l-18 19q51 119 137 166l-37 59q-98 -92 -188 -236q-6 16 -176 113q-184 104 -215 127q-25 0 -51.5 -40 t-26.5 -64q0 -37 24.5 -68t55.5 -31q35 0 51 29l2 23l-33 -11q-27 2 -27 39q0 31 35 31q12 0 32.5 -24.5t20.5 -37.5q0 -81 -79 -81h-2q-47 0 -75 35.5t-28 86.5q0 84 78 138q-154 190 -154 362zM217 770q137 94 137 158q0 51 -35 51q-6 0 -18 -6q18 -31 18 -33 q0 -27 -26 -27q-27 0 -27 41q0 47 51 47q25 0 42.5 -19t17.5 -44q0 -51 -33 -86q0 -10 39 -44t41 -48q-88 -78 -96 -88q-49 -57 -49 -119q0 -23 17 -42t40 -19q57 0 57 34l-10 9q-16 -6 -23 -7q-33 0 -32 33q0 31 41 31q51 0 51 -57q0 -66 -78 -66q-88 0 -88 100 q0 29 16.5 66t34.5 45q-10 8 -88 90zM391 313q51 -41 64 -41q39 0 104.5 59.5t97 64.5t78.5 7l-2 777q-45 0 -98 -37v-539q-1 -8 -1 -14q0 -31 32 -31q20 0 36 8l3 -22l-160 -111q-82 -57 -154 -121zM485 262q0 -16 101 -43q91 -26 125 -26h2q18 0 43 10q-16 51 -61.5 82.5 t-98.5 31.5q-29 0 -66 -14q-45 -16 -45 -41zM760 791q0 -260 2 -390l35 -12q-2 174 -2 787q-12 4 -33 4q-2 -129 -2 -389zM819 377l84 -60q29 4 101.5 107.5t85.5 140.5q18 57 18 137q0 129 -70 271q-86 174 -219 196q-1 -71 -1 -269t1 -523zM838 657q0 94 106 97 q-94 76 -94 145q0 37 23.5 63.5t60.5 26.5q31 0 54.5 -21.5t23.5 -49.5q0 -49 -41 -50q-31 0 -31 27t31 27q6 0 18 -7l2 3q0 53 -59 53q-23 0 -41.5 -21.5t-18.5 -46.5q0 -45 85 -130t85 -152q0 -83 -73 -172q-25 -29 -74 -76q-6 -4 -10 -13l-19 19q0 -23 8 -23q17 0 68 90 q76 136 76 181q0 104 -84 104q-29 0 -52.5 -18.5t-23.5 -44.5q0 -63 53 -64q6 2 17 6q-25 10 -25 35q-4 35 33 35q35 0 35 -43q0 -55 -66 -55q-29 0 -48 22.5t-19 52.5zM991 279q0 -28 13 -28q26 0 106 118q111 166 129 225l18 -6q-8 -23 -8 -43q0 -37 21 -74q-2 2 -10 2 q-20 0 -48 -14.5t-36 -30.5q-10 0 -15 -16q6 -8 13 -9q4 0 12 3h12q74 0 74 -76q0 -31 -20.5 -53.5t-49.5 -22.5q-14 0 -32.5 14.5t-18.5 26.5v8q0 41 39 41q27 0 24 -27q-2 -2 -10 -26q-6 -8 10 -19q16 0 27.5 19.5t11.5 36.5q0 57 -79 57q-41 0 -107 -63l-63 -62 q-12 12 -13 19z" />
<glyph unicode="R" horiz-adv-x="1236" d="M-6 1257q41 145 149 146q39 0 78 -33t39 -74q0 -37 -29.5 -69.5t-66.5 -32.5q-20 0 -44 21.5t-24 46.5q0 18 19.5 37.5t40.5 19.5q39 0 63 -51q10 4 10 14q0 37 -24.5 63.5t-54.5 26.5q-49 0 -85 -31.5t-36 -78.5q0 -53 40 -89t93 -36q-35 0 10 16q57 20 117 43 q78 29 98 51q63 68 96 148q10 12 17 12q6 0 6 -37v-233q0 -14 12 -15q14 0 216 143.5t208 143.5q16 0 16 -10q0 -33 58 -68q76 -47 104 -76q57 -59 58 -151q0 -90 -203 -242q-66 -49 -72 -57q0 -12 69.5 -64.5t86.5 -56.5q29 -6 78 -25q-27 -20 -72 -67q-19 -28 -19 -141 q0 -58 5 -140q2 -41 6 -84q12 -55 61 -55q14 0 37 16l23 15q14 0 14 -10q0 -8 -53 -50q-41 -31 -107 -106q-57 -66 -61 -68q-4 0 -19.5 28t-17.5 30q-70 80 -143 125q-10 8 -23 16q14 4 41 16q41 23 45 41q12 59 12 285q0 98 -92 141q-16 6 -52 16.5t-54 14.5v-489 q47 29 96 107.5t53 131.5q1 12 1 23q0 92 -62 92q-47 0 -47 -51q0 -25 22 -35q4 4 8 20.5t23 16.5q25 0 24 -31q0 -37 -41 -37q-25 0 -42 20.5t-17 45.5q0 73 74 73h6q78 -2 78 -110q0 -90 -68 -187q-63 -88 -121 -127q-25 -16 -100 -77q-61 -61 -94 -93q-10 14 -31 41 q-31 33 -149 113q-23 14 -84 14q-33 0 -67 -28.5t-34 -59.5q0 -53 41 -53h33q4 8 0 53q-2 31 35 31q45 0 45 -45q0 -27 -32 -51.5t-60 -24.5q-37 0 -66 26.5t-29 63.5q0 70 128 171.5t128 154.5q0 10 3 108v183v315q0 68 -13 88q-18 33 -82 33q-10 0 -31.5 -4t-31.5 -4 q-63 0 -112.5 45t-57.5 112zM53 829q166 96 166 164q0 47 -45 51q-27 2 -27 -14q45 -6 46 -29q0 -6 -5 -14q-14 -20 -30 -18q-43 4 -43 51q0 43 61 43q68 0 68 -72q0 -23 -29 -67q0 -29 113 -101q-129 -96 -129 -112q0 -20 63 -66q55 -41 70 -43q-51 -14 -113 -74 q-63 -65 -63 -114q0 -29 14 -49q16 -31 47 -31q47 0 47 35q0 16 -10 22q-6 -27 -33 -26q-23 0 -22 22q0 33 45 33q41 0 41 -53q0 -51 -70 -56h-5q-34 0 -54 28q-22 30 -23 69q0 47 33 106q-43 59 -111 86q123 53 123 113q0 47 -125 116zM582 184v58q-41 12 -179 63 q6 14 17 19q8 0 162 -62v864q-20 -6 -76 -45v-475q0 -127 55 -143q-37 -37 -138 -111q-95 -69 -95 -73zM543 0q23 41 83 73.5t109 32.5q35 0 62.5 -19t25.5 -48q-2 -53 -47 -53q-37 0 -37 28q0 27 21 27q25 -14 24 -14q14 0 11 16q0 39 -74 39q-51 0 -96 -29 q-78 -49 -82 -53zM604 651l2 -479l37 16v484q-8 -4 -39 -21zM604 678l33 18v459l-33 -14v-463zM662 1167l2 -379q106 55 139 78q90 63 90 133q0 41 -26.5 79t-67.5 38l-23 -6l-4 2h-4q-20 0 -37.5 -24.5t-17.5 -45.5q0 -47 53 -63q0 2 -6 9t-6 20q0 41 34 41q35 0 35 -37 q0 -53 -61 -54q-31 0 -51.5 28t-20.5 58q0 33 30 64t66 31q59 0 95.5 -41t36.5 -103q0 -119 -254 -231v-55q346 155 346 276q0 88 -76 154.5t-166 66.5q-55 0 -106 -39zM946 788l199 148q16 0 16 -14q-25 -14 -82 -62q66 -18 66 -74q0 -67 -66 -67h-2q-14 0 -32.5 12 t-18.5 25q0 37 33 37q16 0 20 -21l6 -27q14 -2 26.5 11.5t12.5 27.5q0 51 -53 52q-20 0 -108 -58q-16 4 -17 10z" />
<glyph unicode="S" horiz-adv-x="1257" d="M-29 95q0 115 410 411q-88 29 -258 92q59 18 76 61q8 23 8 97q0 4 2 47t2 61q0 185 -95 185h-3l-15 12q172 59 301 147q41 27 265 203q199 -188 393 -188q29 0 54.5 26.5t25.5 55.5q0 31 -23.5 55t-54.5 24l-33 -16q45 -14 45 -41q0 -12 -16.5 -32.5t-28.5 -20.5 q-23 0 -41 18.5t-18 40.5q0 29 29.5 54.5t60.5 25.5q43 0 75.5 -33.5t32.5 -76.5q0 -82 -133 -183l-178 -135q119 -37 182 -94q154 -137 154 -299q0 -123 -129 -242q-74 -68 -266 -190q-182 -117 -254 -189l-11 4q-29 76 -180 146q-137 63 -231 63q-51 0 -85 -26.5 t-34 -73.5q0 -35 25.5 -60.5t60.5 -25.5q25 0 46.5 17.5t21.5 39.5l-7 11q-33 -27 -51 -27q-49 0 -49 47q0 20 20.5 37.5t41.5 17.5q31 0 52 -21.5t21 -51.5q0 -39 -29.5 -67t-68.5 -28q-49 0 -81 33t-32 89zM477 272q121 -57 182 -57q15 0 17 -4v303q-143 -92 -150 -143 q-1 -8 -1 -16q0 -58 55 -58q59 0 59 53q0 12 -10 17l-29 -17q-27 0 -27 29q0 27 39 27q14 0 29.5 -20.5t15.5 -35.5q0 -68 -82 -71h-4q-34 1 -53 29q-15 23 -15 51q0 9 1 18q10 59 168 160l-2 36l-230 -151q0 4 2 21.5t2 19.5q0 12 -32 33q-72 -52 -72 -104q0 -55 137 -120z M399 1077l9 -299q0 -27 24.5 -55.5t52.5 -36.5q15 -4 17 -6v516h-29q-74 0 -74 -108v-11zM522 795l37 24v369l-37 8q1 -62 1 -162t-1 -239zM524 676l37 -14v118l-37 -24v-80zM584 1180q3 -30 3 -136q0 -53 -1 -126q123 68 123 135q0 51 -47 51q-35 0 -41 -37l12 -16 q8 20 24 20q25 0 25 -22q0 -31 -31 -31q-45 0 -45 51q0 18 18.5 34.5t34.5 16.5q65 0 65 -64q0 -9 -1 -18q-8 -72 -137 -141v-55q258 174 278 190q0 43 -280 148zM588 653q47 -20 67 -20q9 0 13 2v166q-12 1 -23 1q-38 0 -57 -11v-138zM637 -8l518 375l6 -7l-6 -8 q-80 -57 -80 -129v-10q-29 16 -57 16q-12 0 -33.5 -11t-26.5 -21q100 -18 101 -101q0 -39 -27.5 -68.5t-64.5 -29.5q-78 0 -78 65q0 55 43 56q35 0 35 -33q0 -20 -17 -27q-16 -6 -30 2l-11 -2q4 -43 62 -43q25 0 47 25t22 49q0 86 -88 86q-39 0 -92 -42t-53 -81 q0 -45 -2 -39q-41 10 -62 11q-18 0 -98 -37h-3q-4 0 -5 4zM696 635l31 10v150l-31 4q-1 -56 -1 -97t1 -67zM698 207l33 -2v399l-33 -22v-375zM756 592l159 113q-39 53 -159 86v-199zM758 205q156 31 207 151q30 74 30 142q0 63 -67 186l-170 -123v-356zM776 395q0 10 4 33 q12 61 170 164l6 -19q-154 -102 -157 -165v-11q0 -71 71 -71q20 0 38 20.5t18 44.5l-4 17l-12 -10q-11 -9 -19 -9q-27 0 -27 23q0 35 33 34q16 0 33.5 -15t17.5 -32q0 -35 -25.5 -63.5t-58.5 -28.5q-88 0 -88 88zM930 983l211 164l14 -12q-23 -16 -94 -74q27 -6 55 -17 q39 -18 39 -65q0 -31 -21.5 -53.5t-52.5 -22.5q-20 0 -40.5 17.5t-20.5 37.5q0 37 33 37q25 0 24 -22q0 -31 -37 -23q23 -29 47 -28q16 0 34 17t18 36q0 29 -26 49t-56 20q-33 0 -115 -69z" />
<glyph unicode="T" horiz-adv-x="1355" d="M-2 1021q0 96 78 142q35 18 127 74q66 39 200 168q10 -25 48 -37h704q29 4 68 37l14 -12q-98 -104 -244 -250q-2 8 -8 26q-11 3 -21 9q-7 4 -45 5q-14 0 -32 -1v-627q-4 4 37 20q63 25 127 82q79 71 79 130v1q0 41 -28 71q-27 28 -61 28h-5q-33 -2 -59.5 -24.5 t-26.5 -51.5q0 -25 17.5 -45.5t40.5 -20.5q45 2 41 25q-2 2 -11 2q-35 0 -34 31q-4 29 30 28q43 0 43 -45q0 -23 -22.5 -42t-44.5 -19q-35 0 -57.5 24.5t-22.5 59.5v3q0 72 98 97q-68 45 -72 97q-2 31 23 52t57 23h4q42 0 62 -43q1 -6 1 -11q0 -36 -36 -36q-33 0 -33 29 t33 29q-2 4 -16 14q-27 2 -50.5 -14.5t-23.5 -40.5q0 -35 87 -94.5t89 -127.5v-4q0 -129 -264 -247v-39q35 14 125 59q18 12 37 25q45 29 96 63q39 25 43 27q6 -4 8 -17q-31 -14 -31 -35q0 15 6 15q11 -1 43 -55q50 -82 52 -115v-5q0 -93 -154 -171q-231 -117 -356 -240 q-20 -20 -64 -80q-12 0 -18 2q-2 12 -25 41q-10 10 -28 17q-213 63 -353 149q-12 -14 -26 -26q-14 -20 -27 -66q-4 -14 -4 -27q0 -43 51 -45q20 -2 39 12.5t19 32.5q0 12 -15 25q-14 -35 -35 -35q-25 0 -24 27q0 33 41 32q55 0 57 -51q2 -29 -22.5 -48t-57.5 -17 q-76 4 -76 90q0 49 64 110q-188 147 -188 371q0 197 155 357q90 92 324 223l8 -2q-322 -303 -320 -475q4 -186 181 -312q168 -119 362 -119h25v199l-25 -10q-86 -35 -86 -94q0 -43 37 -43q12 0 14 6q-2 2 -11 9t-9 17q-2 25 20 25q27 0 31 -29q0 -16 -14.5 -29.5 t-26.5 -13.5q-55 0 -59 72v2q0 52 129 113q-2 78 -2 176v549q2 -2 -29 -2q-68 -2 -68 -184v-11q0 -111 3 -391q0 -47 10 -64q12 -25 53 -28l-307 -174q-14 4 -17 12q49 61 66.5 96t17.5 107q1 116 1 202.5t-1 141.5q-2 98 -57 98q-4 0 -20 -4q47 39 260 197l-445 2 q-149 0 -149 -89v-1q0 -78 86 -78h4q31 0 60.5 22.5t27.5 48.5q-2 35 -27 37q2 2 2 -26q0 -29 -41 -29q-29 0 -28 31q0 51 51 51h4q59 -4 59 -66q0 -45 -61 -92q-2 -2 -96 -61q-106 -68 -115 -68q-8 0 -12 12l28 25l-34 41q-27 37 -27 83zM279 668l110 80q41 30 41 85v5 q-2 45 -39 45q-6 0 -16 -11q4 -6 10 -11t6 -17q0 -25 -24 -25q-31 0 -31 31q0 43 57 49q23 0 39.5 -20.5t16.5 -40.5q0 -53 -29 -88q-1 -1 -1 -3q0 -14 87 -83q0 4 -68 -60q-67 -62 -67 -107q0 -67 47 -67h6q43 2 43 37v6q-12 -12 -23 -12q-28 -1 -28 22q0 31 28 33h6 q35 0 35 -49q0 -16 -19.5 -34.5t-39.5 -18.5q-72 0 -72 69v11q2 33 21 73q1 1 1 3q0 14 -40 51q-33 31 -57 47zM774 -2q104 147 531 358l6 -6l-8 -8q-80 -51 -80 -113v-16q-37 23 -64 23q-14 0 -47 -11.5t-39 -19.5q125 -8 125 -109v-6q-2 -40 -30 -68q-26 -27 -61 -26h-5 q-76 4 -76 61v6q2 54 41 54h4q37 -2 35 -33q0 -20 -16 -27q-14 -6 -33 4l-10 -4q4 -41 61 -43q22 0 46 24q26 26 26 51q0 37 -31 63q-33 28 -78 28q-127 0 -131 -119q0 -31 2 -45q-56 21 -67 21h-1q-39 -6 -94 -43l-2 1t-4 3zM827 231h37v228l-37 -13v-215zM827 469 q4 0 33 14v701h-33v-715zM889 233h20q55 0 113 33q74 44 74 103q0 53 -49 82q-37 22 -87 22h-4q-39 0 -67 -6v-234z" />
<glyph unicode="U" horiz-adv-x="1396" d="M14 1051q0 76 172 196q82 55 244 166q27 -45 85 -83t69 -56q30 -51 30 -161v-7v-520q-2 -20 -2 -38q0 -98 76 -104l-217 -170q166 -35 242 -79l4 18q0 90 -156 104l17 15q49 0 90 -23q33 -25 49 -35l-2 1078l28 2v-1170l39 -12v1180h27v-1092q66 41 127 128t61 157 q0 110 -83 110h-1q-31 0 -51 -23.5t-16 -51.5q2 -27 19.5 -50.5t33.5 -23.5q14 0 34.5 14.5t22.5 28.5l-12 10l-16 -12l-31 28l31 29q14 -2 28.5 -18.5t14.5 -32.5q0 -27 -20.5 -48.5t-47.5 -21.5q-31 0 -55.5 30t-24.5 62q0 43 25.5 72t62.5 29q25 0 45 -14l-66 105 q-67 105 -67 198q0 43 28 75.5t69 32.5q31 0 54 -25.5t23 -56.5q0 -29 -53 -51l-41 37l23 29q31 -4 35 -39l10 28q-29 53 -60 54q-61 0 -61 -103q0 -57 85 -190t85 -211q0 -92 -62.5 -183.5t-148.5 -142.5v-57q80 -20 80 -23h-2q63 0 107 55.5t44 120.5v766q0 61 -98 80 q63 33 152 119q102 98 145 127v-1128q0 -109 49 -117q9 -1 17 -1q43 0 77 34l17 -15q-35 -41 -119 -114.5t-121 -116.5q-145 182 -194 182q-33 0 -144 -80l-145 -104q-31 61 -140.5 120.5t-181.5 59.5q-43 0 -78 -23q-41 -25 -41 -65q0 -25 20.5 -46.5t45.5 -21.5 q57 0 59 37l-6 6l-24 -6l-45 37q4 41 47 41q61 0 61 -72q0 -29 -28.5 -49t-61.5 -20q-37 0 -68.5 30.5t-31.5 69.5q0 51 82 102q117 74 153 234q19 78 19 197q0 53 -4 114q-20 299 -21 307q0 231 -174 232q-37 0 -73 -30t-36 -64q0 -106 105 -107q20 0 31 2l-207 -155 l-13 16l19 33q-68 47 -68 125zM152 817q68 23 124 106t56 154q0 84 -66 84q-25 0 -35 -28l15 2q16 0 33 -23q0 -37 -33 -37q-43 0 -43 45q0 25 20.5 43.5t44.5 18.5q84 0 84 -111q0 -37 -26 -90l-25 -49q0 -31 121 -121q-127 -86 -127 -147q0 -47 129 -132 q-156 -119 -166 -204q-1 -11 -1 -21q0 -59 42 -59q61 0 61 31l-2 16q-35 -8 -34 -8q-29 0 -29 24q0 37 37 37q18 0 36.5 -19.5t18.5 -37.5q0 -66 -88 -66q-55 0 -55 78v6q2 53 22 103q0 25 -54 71.5t-54 51.5q123 61 123 127q0 47 -50 88z" />
<glyph unicode="V" horiz-adv-x="1331" d="M-8 1288q0 76 55 109q30 18 65 18q12 0 25 -2q27 -4 59.5 -35.5t32.5 -56.5q0 -68 -69 -68q-23 0 -40.5 19.5t-17.5 40.5q0 16 17.5 30.5t32.5 14.5q-8 0 28 -4q-16 35 -71 35q-39 0 -65 -30t-26 -69q0 -59 64 -90q43 -23 95 -23q10 0 20 1q147 8 280 239q10 10 19 10 q6 0 6 -4q0 -6 -6 -16v-791q0 -49 2 -75.5t32 -44.5q8 -6 43 -17q-12 -14 -108 -82q-102 -72 -141 -106q27 -2 303 -105q4 10 0 56l-199 75q23 14 21 17q-12 0 -12 -3q0 -11 194 -65v551q-117 77 -117 208v9q2 88 55 146q31 33 136 88q113 59 178 104q4 2 26.5 24.5 t26.5 18.5q-4 -23 78 -84q100 -78 149 -151q94 -143 94 -338q0 -322 -337 -590q-143 -113 -273 -205q-39 -27 -86 -90q-94 100 -266 166q-57 22 -103 22h-4q-41 0 -80.5 -28.5t-39.5 -67.5q0 -20 17 -39.5t38 -19.5q-8 0 22 6l-8 14q-8 13 -8 27q0 18 17.5 33.5t35.5 15.5 q51 0 51 -51q0 -31 -32.5 -52.5t-67.5 -21.5q-31 0 -61.5 28.5t-30.5 61.5q0 61 68 107q37 25 129 82q68 59 67 143v696q0 41 -13 53.5t-48 12.5q-127 0 -187 37q-66 41 -65 106zM539 1053q0 -68 88 -107q2 0 2 115q-2 121 -2 125q-33 -4 -60.5 -51.5t-27.5 -81.5zM633 -25 q10 18 227 178t262 242q4 -4 13 -4q1 -1 1 -2q0 -2 -3 -4q-68 -88 -66 -164l2 -8q-28 17 -52 17q-5 0 -9 -1q-41 -6 -56 -36q98 -16 101 -99q0 -39 -26 -68.5t-64 -29.5h-4q-70 0 -74 63q-2 55 41 56q33 0 35 -33q0 -20 -15 -27q-16 -6 -33 2l-10 -2q4 -41 64 -41 q25 0 46 24.5t21 49.5q-2 84 -88 84q-35 0 -90 -44t-55 -79v-41q-32 8 -55 8h-9q-16 -6 -96 -45q-1 -1 -3 -1q-4 0 -5 5zM653 942l45 -18v282l-45 -6v-258zM662 182q10 -2 32 -12v608l-32 23v-619zM717 199q0 -25 4 -29q164 55 259 198.5t95 317.5q0 127 -6 160 q-20 104 -92 192t-168 138q-39 18 -86 28v-37q-2 -33 -2 -63v-100l2 -84q2 -2 14 -2q23 -6 43 -7q49 0 84 28t35 75q0 16 -23.5 31.5t-39.5 15.5q-45 0 -45 -41q0 -6 6 -12q14 14 26 14q27 0 27 -29t-27 -28q-51 0 -51 51q0 61 70 61q31 0 54.5 -24.5t23.5 -51.5 q0 -51 -100.5 -114.5t-100.5 -126.5q0 -272 2 -504h6q36 0 123 66q113 86 115 194q0 39 -32 75t-73 36q-84 0 -84 -88q0 -25 19.5 -45.5t48.5 -20.5h12q6 4 21 8q6 6 6 17q-12 -2 -25.5 9t-13.5 21q0 31 35 31q34 0 34 -44q0 -21 -24.5 -42.5t-42.5 -21.5q-92 0 -92 92 q0 47 38 81q30 27 67 27q9 0 18 -2q-43 47 -43 99q0 78 73 90q7 1 14 1q25 -1 49 -17q30 -22 31 -52q0 -51 -40 -51q-33 0 -33 29t24 28h11q6 -2 12 -2q0 37 -45 43q-9 1 -16 1q-58 0 -58 -79q0 -29 68 -99q66 -68 65 -130q0 -94 -102 -186q-80 -72 -166 -97q-4 -4 -4 -28z " />
<glyph unicode="W" horiz-adv-x="1941" d="M0 1239q0 162 154 174h10q43 -1 82 -31q43 -34 47 -84q0 -5 1 -10q0 -42 -31 -72q-34 -34 -79 -34q-33 0 -59.5 23.5t-28.5 54.5q12 53 64 59q66 -4 65 -86q38 7 38 44q0 5 -1 11q-10 92 -115 92q-51 0 -84.5 -42t-33.5 -97q0 -63 57 -98q49 -31 115 -31q244 0 403 301 h14v-235q98 74 293 231q45 -39 133 -96q66 -41 138 -88q-45 -33 -56 -43q-16 -23 -16 -64v-338h135v58q-49 41 -67.5 71.5t-34.5 98.5q-1 14 -1 28q0 76 29 117q14 18 101 90q45 25 119 66q40 28 116 100q0 -31 15 -45q178 -174 217 -225q94 -129 94 -295q0 -211 -119 -367 q-74 -96 -266.5 -246.5t-265.5 -248.5q-66 70 -158 122q-104 59 -186 64l-2 14q59 6 73 78q4 20 4 137v271l-104 2q-1 -38 -1 -126q0 -174 3 -544h-25l-6 1243l-30 -16v-1227h-29l-2 100l2 1110l-96 -73v-906q49 -90 71 -90l-2 -16q-72 -47 -159 -182q-113 -172 -148 -213 q-90 -104 -192 -105q-80 0 -136 43l-36 -26l-15 14q16 20 215 242l13 -11q-23 -49 -23 -61q0 -25 38 -53.5t64 -28.5q115 0 115 311v865q0 80 -2 94q-10 61 -55 61q-20 -2 -68 -6q-32 -4 -62 -4q-20 0 -40 2q-82 6 -137 47q-66 47 -66 125zM811 780h107v375l-107 107v-482z M1106 473q0 -113 16 -160q29 -82 121 -100q0 156 -2 455h-135v-195zM1169 1038q6 -35 31 -64.5t43 -27.5v146v90q-33 -6 -57 -56q-19 -40 -18 -72q0 -8 1 -16zM1270 938l37 -6v256h-37v-250zM1276 831l2 -626l33 -6l-2 639zM1286 10q78 113 383 340q29 20 98 107l13 -15 q-57 -57 -58 -110q0 6 9 -45q-37 12 -54 12q-53 0 -118 -63h16l14 -5q41 0 73 -31.5t36 -74.5v-9q0 -44 -36 -81q-40 -41 -91 -41q-35 0 -61 28q-25 26 -25 55q1 29 23 55q20 22 44 22q37 0 37 -35q0 -33 -28 -33q-20 0 -39 27q-20 -2 -21 -33q0 -66 72 -66q43 0 73.5 34 t30.5 77q0 35 -29.5 59.5t-66.5 24.5q-51 0 -127 -53q-53 -41 -111 -103q-49 -53 -45 -53zM1331 932q31 6 78 14q74 23 72 68q-4 51 -54 51q12 -14 13 -31q-8 -27 -29 -26q-31 0 -31 32q0 47 50 50q31 2 52 -18.5t21 -51.5q0 -49 -41 -76q-41 -18 -82 -39q-43 -31 -43 -112 v-504q45 0 124 98t79 148q0 39 -25.5 69.5t-60.5 30.5q-33 0 -55.5 -24.5t-22.5 -59.5q0 -20 16.5 -36.5t37.5 -16.5l18 2q0 4 -8 17t-8 22q0 33 26 32q43 0 43 -41q0 -27 -22.5 -44t-51.5 -17q-25 0 -47 30.5t-22 61.5q0 35 28.5 62.5t65.5 31.5q-35 41 -35 88 q0 35 26.5 63t61.5 28q29 0 51.5 -21.5t22.5 -48.5q0 -59 -53 -59q-35 0 -35 30q0 25 27 25q10 0 21 -10l11 -9q6 16 6 15q0 57 -57 57q-25 0 -43 -22.5t-18 -49.5q0 -37 63.5 -97t63.5 -114q0 -147 -228 -276l-2 -53q154 63 237 189t83 292q0 137 -70 281q-78 158 -192 206 q-14 10 -62 19v-256z" />
<glyph unicode="X" horiz-adv-x="1378" d="M6 -45q-1 7 -1 13q0 186 521 597l2 82h-163q-82 0 -172 -55q-100 -61 -101 -137q0 -43 24.5 -76t61.5 -33q31 0 58.5 30t27.5 60q0 59 -53 60q-10 0 -27 -17q35 -4 35 -33q0 -35 -39 -34q-37 0 -39 34v6q1 30 21 54q22 26 57 20q23 -4 47.5 -32.5t24.5 -49.5 q0 -63 -40 -97q-34 -29 -85 -29q-9 0 -19 1q-39 4 -64.5 42t-25.5 83q0 78 164 225.5t164 219.5q0 37 -24.5 62.5t-63.5 25.5q-41 0 -66.5 -28.5t-25.5 -71.5q16 -10 28 -29q6 29 41 29q47 0 48 -46q0 -45 -48 -45q-20 0 -43.5 12.5t-25.5 24.5q-27 27 -29 64v9q0 43 35 75 q39 35 90 35q37 0 74 -39t37 -76q0 -16 -12.5 -53t-12.5 -47q0 -35 64 -35q66 0 73 2v239q0 154 -108 154q-31 0 -108 -30.5t-122 -33.5h-7q-71 0 -118 39q-49 41 -53 115v6q0 53 36 94q38 43 97 43q55 0 93 -32.5t38 -85.5q0 -31 -22.5 -57.5t-52.5 -26.5q-66 0 -66 55 q0 35 55 55l50 -18l2 10q0 25 -32 48.5t-59 23.5q-43 0 -75.5 -35t-32.5 -80q0 -57 45 -91t106 -34q98 0 197 103q47 49 139 184q109 -127 297 -127q180 0 271 145q76 -129 223 -133q-78 -78 -404 -389l2 -143q23 -2 43 -2q242 0 242 137q0 92 -84 92q-33 0 -56.5 -21.5 t-23.5 -54.5q0 -23 19 -41v2q0 49 47 50q47 0 47 -50q0 -43 -51 -45h-5q-31 -1 -53 23q-24 26 -24 57q0 49 32.5 80t81.5 31q45 0 76 -41t31 -88q0 -53 -125 -181.5t-125 -216.5q0 -112 115 -112h2q44 1 70 35q22 28 21 59q0 7 -1 14q-16 -10 -23 -10q-49 0 -49 51 q0 49 49 49q57 0 58 -86q0 -53 -35 -98t-86 -45q-154 0 -154 143q0 37 16.5 86.5t35.5 65.5l-80 2v-426q117 33 172 33q66 0 109.5 -35t43.5 -94q0 -51 -38.5 -92t-90.5 -41q-33 0 -61.5 21.5t-28.5 51.5q0 25 20.5 42.5t45.5 17.5q33 0 55 -49l-12 -45q37 2 59.5 29.5 t22.5 64.5q0 41 -37 71.5t-80 30.5q-166 0 -307 -237q-68 57 -219 139q-51 29 -154 82q76 12 94 135q6 41 6 195l-239 -222q-139 -129 -140 -241q0 -70 51.5 -120t123.5 -50q53 0 94 39l12 -11q-57 -47 -252 -215q-115 80 -139 117q-20 31 -31 123zM211 121q6 57 125 172 q55 51 162 151l2 -34q-49 -45 -148 -140q-111 -111 -114 -164q0 -6 -1 -11q0 -79 80 -81q25 0 45.5 16.5t20.5 39.5q0 6 -6 12q-16 -10 -27 -16q-29 0 -28 34q2 33 43 33q16 0 30.5 -19.5t14.5 -37.5q0 -37 -26 -62.5t-62 -27.5h-9q-45 0 -76 34q-28 31 -28 78q0 11 2 23z M723 1112l2 -346l92 94v385l-29 -4q-66 -10 -65 -129zM727 365q0 -76 98 -123v397h-98v-274zM754 756q28 -1 44.5 -1t20.5 1q4 18 4 39q0 14 -2 28zM846 881l35 43v325l-35 -4v-364zM848 756h39v125l-39 -37v-88zM854 229q16 -8 39 -14l-2 424l-35 2zM909 942 q144 118 144 184q0 41 -44 82t-85 41h-15v-307z" />
<glyph unicode="Y" horiz-adv-x="1359" d="M2 1288q0 45 35 84t82 39t80.5 -27.5t33.5 -72.5q0 -82 -81 -82q-25 0 -44.5 19.5t-19.5 43.5q0 18 15.5 33.5t29.5 15.5q18 0 33.5 -17t13.5 -36q-2 -25 -4 -22h3q30 0 30 47q0 27 -22.5 49t-49.5 22q-106 0 -106 -98q0 -51 43 -81.5t96 -30.5q66 0 158 38q51 20 84 48 q127 100 143 143v2v-74q-2 -102 -2 -244q-2 -338 -2 -419q0 -53 2 -62q8 -27 43 -41q27 -10 29 -14q-10 -8 -121 -84q-141 -96 -164 -117q70 -16 192.5 -92t147.5 -104q-1 7 -1 32.5t1 69.5q-63 41 -231 139q2 8 10 8h2q33 0 217 -122q2 227 2 1071l27 4v-1221l36 31 l-2 1190h33v-1037q84 37 135.5 107t51.5 139q0 139 -80 140q-51 0 -64 -70q-1 -7 -1 -13q0 -34 38 -47q18 -6 35 17q-8 2 -19 4q-16 6 -16 20q0 25 25 25q34 0 34 -33q0 -18 -17 -33.5t-36 -15.5q-27 0 -44 24.5t-15 59.5q4 84 80 84q10 0 22 -4q-63 96 -65 98 q-35 59 -35 105q0 108 100 108h2q23 0 45.5 -23.5t24.5 -43.5q1 -7 1 -14q0 -68 -58 -68q-39 0 -39 33q0 31 24 30q20 0 21 -20q0 -10 -11 -21q6 -6 11 -6q34 0 34 54q0 46 -55 53q-7 1 -13 1q-65 0 -65 -79q0 -47 82 -162t82 -190q0 -84 -65.5 -167t-149.5 -120v-107 l236 162v746q0 118 -69 118h-1q-14 0 -46 -19.5t-34 -19.5q-10 0 -10 23l237 217q4 0 20.5 -28.5t20.5 -32.5q61 -66 111 -90q25 -10 70 -35q-27 -4 -63 -18.5t-36 -102.5l-2 -701q0 -70 17 -135q35 -137 116 -145l-22 -14q-172 -117 -309 -220q-55 -41 -138 -110 q-94 -80 -165 -158q-76 70 -183 125q-121 61 -209 61q-51 0 -83.5 -26.5t-32.5 -67.5q0 -59 61 -59q14 0 31 10q-37 27 -37 37q0 47 49 47q55 0 55 -53q0 -25 -33.5 -45.5t-60.5 -20.5q-94 0 -94 86q0 82 186 170q90 61 168 131q-10 16 -35 50q-41 49 -133 94 q-88 43 -146 43h-5q-37 -2 -68 -32t-31 -67q0 -63 60 -63q14 0 27 25l-21 16q-20 16 -20 29q0 39 45 39q49 0 49 -52q0 -33 -25.5 -56.5t-58.5 -23.5q-84 0 -84 87v8q2 70 102 129q164 96 180 211q8 59 9 94v512q-14 104 -72 104q-14 0 -63.5 -7t-65.5 -7q-45 0 -92 22 q-76 35 -74 117zM80 915v5q47 16 90 51q51 43 51 84v28q-2 12 -26 17q-4 -2 -8.5 -7.5t-8.5 -7.5q2 -4 8.5 -5t6.5 -5q0 -25 -29 -24q-10 0 -18.5 12t-6.5 18q10 41 54 41q18 0 32.5 -17.5t14.5 -37.5q0 -6 -4 -31q-2 -14 0 -22q6 -23 61 -58l55 -34q0 14 -8 14 q-15 0 -56 -46q-63 -71 -63 -89q0 -51 119 -115l2 -4q-51 -23 -112.5 -96.5t-61.5 -122.5q0 -74 59 -74h9q27 2 41 39l-5 23q-14 -6 -24 -9q-27 0 -27 31q0 27 31 27q16 2 31.5 -11.5t15.5 -33.5q0 -88 -67 -90h-6q-76 0 -76 94q0 47 49 121q-4 37 -41 69.5t-76 44.5 q-4 4 0 4q41 10 76 37q45 31 45 66q0 25 -51.5 69.5t-75.5 44.5zM500 -47l182 -84v213zM707 96v-237l34 -23v289zM762 -47v-125l65 -41q289 209 289 217q-14 16 -47 59q-59 82 -59 232q-88 -61 -246 -166v-74q25 41 49 56q18 10 41 12q15 2 27 2q88 0 88 -96q0 -90 -82 -90 q-25 0 -47.5 20.5t-22.5 44.5q0 12 13.5 27.5t25.5 15.5q31 0 31 -31q0 -12 -19 -22q-6 -2 -22 -6q6 -33 45 -33q59 0 59 78q0 25 -22.5 48t-48.5 23q-117 0 -117 -151z" />
<glyph unicode="Z" horiz-adv-x="1226" d="M14 78q0 63 95 141q53 43 167 125q88 61 82 84h27q-23 -51 -23 -59q0 -49 93 -105q80 -49 139 -55l37 -4v37q-82 10 -142 45q-75 44 -75 114q0 43 28.5 74t67.5 31q96 0 96 -82q0 -68 -67 -68q-57 0 -58 47q0 37 35 37q31 0 31 -26q0 -16 -19 -17q-2 0 -24 11l-6 -11 q4 -23 34 -22q55 0 56 57q0 55 -74 55q-37 0 -59.5 -26.5t-22.5 -63.5q0 -53 74 -96q66 -39 123 -39h2v375h-8q-120 0 -193 -62l-10 11q79 69 195 69h16v68h-17q-152 0 -252 -76l-8 12l330 316h-80q-66 0 -143 -39q-92 -43 -92 -100q0 -35 34 -35q16 0 33 14q-31 6 -30 31 q0 33 32 33q33 0 33 -43q0 -18 -23.5 -37t-44.5 -19q-59 0 -59 66q0 51 49 96q29 25 86 76q74 72 133 121v-52q6 -20 43 -20h105q74 66 74 78q0 37 -56 37h-379q-86 0 -127 -15q-66 -25 -65 -96q0 -72 100 -72q31 0 60.5 24t29.5 50q0 33 -30 47q-2 0 -9 2h-8l-4 -4 q14 -23 14 -35q0 -37 -41 -36q-43 0 -43 40q0 57 66 58q31 0 53.5 -20.5t22.5 -49.5q0 -51 -58 -88l-161 -133q-84 55 -84 168q0 47 22 88q4 10 285 291q35 -37 67 -37h541l76 29l14 -7l-307 -317h152q33 0 70.5 28.5t37.5 57.5q0 51 -47 51q-8 0 -12 -6q20 -27 20 -29 q0 -29 -30 -28q-29 0 -29 31q0 49 59 49t60 -66q0 -51 -94.5 -125t-141.5 -108h-8q12 23 12 30q0 23 -45 23l19 -1q0 -1 -82 -1q-16 -10 -80 -64h16q174 0 287 -71q135 -86 135 -250q0 -88 -37 -141q-78 -111 -248 -248q-193 -156 -254 -240q-27 61 -169 134t-216 73 q-147 0 -147 -86q0 -29 25.5 -54.5t56.5 -25.5q84 0 84 64q0 39 -23 38q-8 0 -10 -2q8 -31 8 -26q0 -31 -41 -31q-43 0 -43 41q0 18 19.5 35.5t36.5 17.5q33 0 56 -22.5t23 -55.5q0 -37 -29.5 -60.5t-68.5 -23.5q-47 0 -84 28t-37 73zM643 -33q41 41 219 193 q225 193 260 262l8 -8q-6 -12 -20 -38t-22.5 -42t-14.5 -92q-14 8 -26 8q-76 0 -95 -43q111 -14 111 -107q0 -41 -29.5 -67.5t-72.5 -26.5q-74 0 -74 72q0 49 43 49q37 0 37 -31q0 -27 -19 -30h-39q6 -37 54 -37q31 0 53 22.5t22 52.5q0 35 -25.5 57.5t-58.5 22.5 q-53 0 -100 -48t-47 -101q0 -14 2 -21q-37 4 -45 4q-35 0 -76 -26.5t-45 -26.5v2zM651 203h41v520h-41v-520zM715 203q2 2 4 2h12q98 0 167 75.5t69 174.5q0 98 -77 181t-175 87v-72q70 -18 117 -72.5t47 -121.5q0 -72 -46.5 -135.5t-117.5 -73.5v-45zM715 264 q61 10 105 66.5t44 124.5q0 6 -4 22q-20 -37 -78 -37q-35 0 -39 13q80 29 80 71q0 33 -33.5 63.5t-74.5 43.5v-367zM922 920l184 153l10 -10q-29 -25 -74 -66q2 2 15 2q27 0 45 -21t18 -48q0 -68 -53 -68q-47 0 -47 43q0 31 29 31q23 0 22 -18q0 -10 -27 -25q2 -14 19 -14 q43 0 43 47q0 57 -57 57q-31 0 -109 -72z" />
<glyph unicode="[" horiz-adv-x="415" d="M16 -213v1804h289v-102h-133q-14 -6 -8 -6l-2 -1589l143 -3v-102z" />
<glyph unicode="\" horiz-adv-x="583" d="M4 973q74 -2 113 -2q37 0 39 2v112q0 -23 -9 84q-6 25 -53 25h-78v37q2 -2 23 -2q119 -2 199 35q141 66 256 180q14 14 65 -51l51 -72q10 6 80 65q16 -2 19 -6v-18q-164 -129 -232 -275q-25 25 -24 25q10 20 34 78l-96 113q-2 2 -29 -17q-14 -10 -30 -24v-422 q0 -205 -31 -612.5t-31 -612.5q-2 -2 -20 -2q-20 0 -23 2q2 35 2 111q0 172 -39 550q-37 367 -28 570q-4 4 -156 -2z" />
<glyph unicode="]" horiz-adv-x="421" d="M16 -106v-105h289v1802h-289v-100l131 -2q16 -6 9 -6l4 -1587z" />
<glyph unicode="^" horiz-adv-x="628" d="M-4 1432l307 231l322 -236l-7 -12l-311 103l-307 -99z" />
<glyph unicode="_" horiz-adv-x="1196" d="M0 -205h1202v-102h-1202v102z" />
<glyph unicode="`" horiz-adv-x="641" d="M141 1114q0 18 14.5 42t30.5 24q12 0 43 -17l252 -137l-2 -12l-286 53q-51 0 -52 47z" />
<glyph unicode="a" d="M-2 158q29 14 55.5 30.5t30.5 53.5v80q0 100 -11.5 118.5t-47.5 40.5v27q70 -39 147 -39q80 0 169 43t144 104q0 49 2 86q-55 23 -129 70q-94 61 -118 76q-98 -45 -101 -100q-2 -31 26 -53.5t64 -22.5q33 0 84 24l11 -4l-5 -16q-106 -74 -190 -152l-16 4l10 29 q-96 55 -96 113q0 72 143 174q2 2 211 129q211 -164 377 -201q-106 -70 -107 -102v-461q0 -49 41 -49q55 0 88 49l13 -23q-41 -29 -125 -92t-109 -114l-74 104q-39 39 -113 39h-7q-141 -4 -197 -135q-20 49 -70.5 99t-99.5 71zM250 375q-2 -11 -2 -35q0 -36 4 -100 q4 -84 102 -84q72 0 102.5 24t30.5 92l-2 289q-70 -63 -168 -106q-61 -27 -67 -80z" />
<glyph unicode="b" horiz-adv-x="849" d="M-2 164q102 53 102 112l2 801q0 53 -32 78q-18 14 -70 29l2 4q111 16 239 113.5t220 99.5h7q92 0 150 -48q57 -47 56 -117v-9q-2 -68 -56.5 -109t-125.5 -41q-66 0 -134 49l-30 -12l-6 12l135 144l-6 -37q0 -23 32.5 -41t69.5 -18q88 2 88 61q0 135 -180 141h-4 q-85 0 -140 -84q-47 -74 -47 -168l-2 -374l310 223q115 -140 217 -156q-29 -12 -66 -33q-27 -20 -27 -63l-2 -457q0 -63 80 -121l-102 2h-7q-71 0 -143 -41q-76 -43 -116 -106l-23 -25q-51 45 -170 107q-125 66 -186 78q-10 2 -35 6zM268 250q74 -31 207 -133l72 41v583 l-94 93l-185 -129v-455z" />
<glyph unicode="c" horiz-adv-x="673" d="M-6 168q33 14 59 22q47 23 47 97l-2 407q0 37 -43 62q-33 18 -51 30q135 33 229 62q55 16 125 55l107 60q51 -90 156 -177v-8q-80 -41 -97 -112q-2 -2 -6 -152h-33l4 82v10q0 67 -49 142q-54 80 -121 80q-7 0 -14 -1q-37 -4 -37 -14v-586q72 -31 152 -121q53 41 141 123 l25 -14l-287 -246q-57 45 -145 113q-80 57 -160 86z" />
<glyph unicode="d" horiz-adv-x="858" d="M10 1071q83 -13 111 -13q7 0 10 1l4 6q-41 51 -41 104q0 98 103 160q88 51 192 51q96 0 174 -39q98 -49 99 -135q0 -66 -62 -108q-52 -36 -115 -36q-12 0 -24 1q-106 12 -160 78q-12 -4 -25 -4l-12 14q63 43 156 127l10 -16q-14 -16 -14 -33q0 -31 45 -59.5t78 -28.5 q82 0 82 69q0 59 -76 101q-63 37 -129 39h-20q-78 0 -140 -27q-88 -37 -88 -119q0 -92 256 -262q188 -125 354 -199q-76 -39 -82 -49q-8 -16 -8 -137q0 -158 2 -276q20 -66 72 -160q-77 24 -103 24h-2q-78 0 -160.5 -56t-117.5 -128l-10 -2q-70 66 -158 113q-57 31 -170 73 q55 8 65 56v420q-4 33 -8 47q-14 47 -57 63q29 0 80 10q31 6 105.5 38t97.5 48q-90 47 -314 244zM276 238q109 -51 197 -136q8 0 53 33v527q0 2 -3 18t-3 20q-55 37 -164 101q-57 -20 -80 -43v-520z" />
<glyph unicode="e" horiz-adv-x="704" d="M2 778q186 25 451 180q65 -128 182 -335q-145 -98 -375 -269l2 -129l164 -112l104 96l19 -19l-227 -219l-310 189q82 43 82 104l-2 420q0 31 -28.5 59.5t-61.5 34.5zM264 395l201 148l-156 299l-45 -23v-424z" />
<glyph unicode="f" horiz-adv-x="583" d="M2 840v61l121 2v203q-16 47 -39 60.5t-72 13.5v10q35 12 115 61q25 20 72 58.5t69 56.5q59 41 123 41q66 0 117 -39q33 -29 94 -88q8 -8 27 -8q16 0 34.5 23.5t16.5 39.5q-20 -18 -35 -18q-43 0 -43 39q0 45 43 45h4q56 -4 56 -55q0 -53 -89 -111q-14 -10 -118 -68 q-70 -37 -101 -57l-8 20q66 53 66 70q0 39 -31 96.5t-66 57.5q-59 0 -59 -131v-318h199l2 105h30v-506h-16q0 90 -33 188q-51 152 -151 152q-29 0 -29 -27v-475q0 -84 29 -113q2 -2 71 -32q-104 -111 -141 -269q-21 -88 -21 -208q0 -31 1 -64q0 -8 -11 -18q-6 2 -14 10 q1 40 1 71q0 61 -5 88q-12 74 -64 201q-61 156 -116 189q104 10 104 145v498h-133z" />
<glyph unicode="g" horiz-adv-x="815" d="M18 743v17q18 8 91 22q59 12 139 63.5t117 100.5q10 18 30 37q213 -168 369 -168v-24q-84 -41 -84 -91v-475q0 16 5 16q11 0 42 -66q47 -99 47 -134q0 -84 -57 -145q-88 -96 -398 -283q-31 29 -93 84t-107 55q-31 0 -47 -10l-17 20q61 39 140 103q102 80 131 102 q57 41 102 41q33 0 58.5 -22.5t25.5 -53.5q0 -25 -25.5 -50t-52.5 -34q4 20 4 25q0 63 -80 64q-35 0 -58.5 -29t-23.5 -68q0 -31 50.5 -64.5t83.5 -33.5q74 0 149.5 60.5t75.5 134.5q0 53 -58.5 125.5t-58.5 130.5q0 -2 -4 18q-166 -141 -254 -211q-96 86 -147 113 q-6 4 -82 37v14q18 4 51 11t33 34v362q0 135 -54 158zM274 827l2 -622l89 -72l151 129v459l-209 127q-8 -2 -33 -21z" />
<glyph unicode="h" horiz-adv-x="837" d="M0 1184l2 4q90 10 240 112q143 98 227 101h7q88 0 142 -46q56 -48 56 -128q0 -61 -56.5 -105.5t-125.5 -44.5q-66 0 -134 49l-30 -12l-6 12l135 144l-6 -37q0 -23 32.5 -41t69.5 -18q88 2 88 61q0 67 -52 107q-45 35 -109 35q-9 0 -19 -1q-72 -6 -133 -100 q-57 -86 -58 -164v-383l318 234q66 -80 100 -107q23 -25 86 -63q-92 -37 -92 -76v-471q0 -109 95 -109h3v-18q-106 0 -241 -121q-125 -113 -125 -203q0 -49 65 -49q20 0 51 16l31 15q2 -2 14 -17q-63 -55 -217 -176l-14 10q0 10 16 27q-84 43 -88 111q-2 61 66 123 q55 51 108 94q66 72 66 129l2 604q0 117 -61 117q-66 0 -183 -121l-2 -123l2 -260q-1 -8 -1 -20q0 -28 7 -74q16 -47 82 -56v-12q-49 -6 -102 -56t-72 -102q-2 -4 -6 0q-18 61 -57 105q-47 53 -105 53v12q25 8 39 13q29 12 35 35q12 40 12 76q0 13 -2 26v780 q-18 84 -100 109z" />
<glyph unicode="i" horiz-adv-x="475" d="M6 752l205 213l174 -179h-10q-45 0 -61 -17q-18 -19 -17 -75v-411q0 -55 23.5 -95.5t60.5 -40.5q23 0 51 17l8 -10q-33 -27 -192 -185q-80 90 -98 109q-37 37 -111 86h4q69 0 94 74v440q0 100 -41 100q-29 0 -80 -45zM68 1202q43 14 82 64l57 84q0 -39 43 -82t82 -47 l-2 -4q-82 -39 -125 -148q-47 96 -137 133z" />
<glyph unicode="j" horiz-adv-x="446" d="M6 772l205 213l174 -178h-5q-41 0 -66 -32q-27 -34 -27 -79q-1 -142 -1 -280.5t1 -272.5q43 -39 100 -116q23 -59 23 -123q0 -92 -62 -185q-41 -59 -141 -163q-18 0 -29 10q106 100 107 221q0 221 -195 276q-18 6 -41 17q80 35 78 84q4 96 4 229t-4 303q1 13 1 25 q0 69 -42 70q-27 0 -70 -37zM68 1202q43 14 82 64l57 84q0 -39 43 -82t82 -47l-2 -4q-82 -39 -125 -148q-47 96 -137 133z" />
<glyph unicode="k" horiz-adv-x="884" d="M2 1192q4 4 10 8q23 2 86 23q100 59 203 120q119 61 223 62q74 0 133 -45q66 -51 66 -123q0 -66 -49 -116q-45 -46 -105 -46h-10q-66 4 -176 47q10 0 -27 -16q-10 6 -10 12q0 12 150 168q-2 -8 12 -12q-12 -37 -12 -60q0 -51 92 -53h9q91 0 91 83q0 59 -67 97 q-51 29 -103 31h-14q-98 0 -162 -54q-68 -58 -68 -165v-383q41 18 136 94q109 88 141 109q2 -2 12 -21l6 -10q14 -25 29 -41q43 -45 84 -90q55 -51 100 -63q0 -6 -2 -7q-66 -33 -241 -157q39 -51 102 -84q20 -8 119 -47q0 -4 -6 -15q-33 -8 -43 -12q-46 -20 -46 -126 q0 -16 1 -34l8 -92q12 -51 51 -51q4 0 29.5 19.5t27.5 21.5l13 -12q-70 -51 -187 -179q-78 111 -184 164q23 6 70 37q10 12 10 84v25q-2 74 -4 86q-8 31 -49 65.5t-68 34.5q-18 0 -109 -59q1 -60 1 -103t-1 -67v-6q0 -57 74 -97q-133 -82 -166 -157q-45 74 -172 151 q88 33 88 111v557q0 29 -2 112q-2 106 -2 170q0 72 -84 109h-4q-2 0 -4 2zM274 449l193 116q106 48 106 96q0 35 -61 89q-63 54 -100 55q-37 0 -95 -41q-4 -4 -43 -29v-286z" />
<glyph unicode="l" horiz-adv-x="477" d="M-12 135q8 25 22 21q16 -6 23 -6q49 0 59 83l-2 785q-2 18 -2 55q0 51 -25 72q-14 12 -67 33q0 18 10 18q2 0 12.5 -3t14.5 -1q57 8 147 68q123 80 144 86q10 6 88 26v-18l-78 -35q-25 -10 -48.5 -53t-23.5 -70v-995q80 -61 96 -70q8 0 31 21q35 25 43 30q6 -4 8 -2h2 v-12q-25 -20 -82 -74q-18 -16 -77 -74q-47 -45 -54 -45q-8 0 -34 27q-41 33 -52 41q-72 49 -155 92z" />
<glyph unicode="m" horiz-adv-x="1298" d="M-12 795q35 27 123 100q18 16 79 84q4 -14 10 -29l7 -16q25 -35 90 -80q47 -31 102 -31q96 0 142 64q12 18 75 88l5 4q12 -20 34 -51q78 -102 183 -103q43 0 94 15q74 20 115 135q14 -47 71.5 -94t108.5 -62q4 -14 -23 -16q-37 -4 -39 -6q-25 -10 -35 -88v-476 q0 -102 58 -110q10 10 72 41q4 -3 6 -19l-207 -174q-68 86 -178 152q10 6 29.5 15t27.5 14q27 20 27 84l2 477q0 80 -136 80q-66 0 -90 -11q-37 -16 -36 -71v-490q0 -78 81 -98l-94 -72q-14 -14 -71 -82q-10 4 -68 82q-33 29 -104 74q51 18 59 25q29 23 29 81v482 q0 53 -41 69q-20 8 -78 9q-74 0 -99 -9q-45 -16 -45 -71v-490q0 -66 78 -90q-25 -16 -80 -57q-31 -23 -51 -56l-31 -49q-4 8 -20 31q-61 78 -164 143q14 -2 43 -2q57 2 57 107v502q0 61 -45 61q-10 0 -34.5 -19.5t-26.5 -19.5q-6 0 -12 23z" />
<glyph unicode="n" horiz-adv-x="849" d="M-12 795q35 27 123 100q18 16 79 84q12 -20 35 -51q78 -102 183 -103q43 0 94 15q74 20 114 135q14 -47 71.5 -94t109.5 -62q2 -14 -58 -28q-27 -12 -37 -86v-486q0 -96 56 -96q18 0 69 37q5 -3 9 -15l-207 -174q-70 86 -180 154q51 18 59 25q29 23 29 81v482 q0 90 -127 90q-135 0 -136 -92v-490q0 -70 80 -92v-8q-70 -39 -73 -41q-37 -25 -60 -62l-31 -49q-8 4 -22 31q-33 57 -162 143q14 -2 43 -2q57 2 57 107v502q0 61 -45 61q-10 0 -34.5 -19.5t-26.5 -19.5q-6 0 -12 23z" />
<glyph unicode="o" horiz-adv-x="831" d="M8 166q96 43 96 104v305q0 88 2 88v-1q-4 53 -28 59q-10 6 -66 29q-2 2 -2 10l101 10q70 6 167 69.5t140 123.5h8q53 -37 121 -84q45 -29 153 -82q35 -6 86 -19l-2 -12q-8 -2 -27.5 -9t-29.5 -12q-41 -23 -47 -65v-451q0 -57 76 -96l-6 -20q-70 37 -121 37 q-193 0 -281 -168q-55 37 -166 108q-74 47 -174 76zM274 221q158 -90 166 -90t78 37v539q-12 10 -86 57t-90 51q-6 1 -12 1q-54 0 -54 -50z" />
<glyph unicode="p" horiz-adv-x="866" d="M-70 -197q0 92 207 246l-2 711q0 23 -12 39t-23 16q-2 0 -36.5 -29.5t-45.5 -33.5l-12 18q205 205 213 205q61 -70 146 -144q25 2 58.5 2t76.5 -2q4 -1 7 -1q49 0 132 141l180 -174q-98 0 -98 -64v-471q10 -121 78 -133q2 -2 2 -25h-11q-217 0 -350 -161q-31 14 -135 153 v-176q0 -86 14 -113q29 -55 72 -63v-16q-96 -8 -188 -88q-16 -14 -72.5 -40t-75.5 -26q-2 20 0 23q82 27 82 159q0 133 -2 250q-96 -74 -102 -117q-4 -25 -4 -41q0 -45 53 -67q2 8 22 8q2 -2 7.5 -6t7.5 -6q-31 -25 -162 -127q-2 18 -8 20q20 29 20 31q-39 51 -39 102z M311 184l66 64l158 -180q6 6 22 18v530q0 78 -2 93q-8 51 -41 69q-27 12 -86 13q-106 0 -117 -86v-521z" />
<glyph unicode="q" horiz-adv-x="827" d="M-2 770l166 49q145 59 221 182q14 14 21 15q4 0 51 -37q51 -43 59 -47l121 -76q71 -45 137 -57q-2 -2 -51 -33q-35 -23 -35 -47v-768q10 -102 45 -129q16 -8 55 -27q0 -6 -6 -14q-27 -2 -92 -29q-31 -29 -131 -88q-120 -72 -172 -72h-8q-2 0 -1 8.5t-3 10.5q94 12 131 92 q6 14 4 47q-4 49 -2 57v388l-205 -191q-143 98 -149 102q-86 53 -144 60q0 14 4 10q8 4 45 14q8 0 23.5 20.5t15.5 37.5v407q0 47 -21.5 71t-78.5 44zM270 238q8 -10 136 -88l102 90q4 207 4 345q0 91 -2 152q-152 100 -182 109q-3 1 -7 1q-15 0 -31 -15q-20 -17 -20 -31 v-563z" />
<glyph unicode="r" horiz-adv-x="854" d="M10 805q88 68 158 139q35 37 41 37q-19 0 -19 -7q0 -14 76 -58q114 -66 152 -66q66 0 114 49q29 29 74 105q43 -55 107 -121q8 -4 33.5 -16.5t31.5 -16.5v-16q-63 -14 -104 -58q-47 -47 -47 -108v-136q0 -33 29.5 -64.5t62.5 -31.5q4 0 53 6l-57 -57q-31 -31 -60 -55 q-69 56 -69 203q0 22 2 73t2 62q0 151 -174 151h-2q-66 0 -86 -37q-12 -20 -13 -94v-448q139 -96 158 -97q14 6 51 35l51 39l13 -22q-23 -20 -115 -117q-74 -78 -86 -86q-12 0 -57 33l-62 45q-88 53 -213 114h58q41 0 41 105v221q0 181 1 181l1 -9q-6 137 -52 137 q-8 0 -77 -41z" />
<glyph unicode="s" horiz-adv-x="802" d="M-12 375l73 37q20 14 21 98q0 170 -16 207q-8 18 -33 33q-16 6 -41 22l71 10q168 25 289 105q10 4 56.5 47t52.5 43q131 -121 155 -121q25 0 64 25l12 -19l-205 -172q6 -6 13 -8q104 -51 147 -94q60 -60 60 -147v-11q-6 -123 -82 -207q-43 -45 -152 -121 q-98 -68 -127 -129l-12 15q-20 33 -93 65.5t-114 32.5q-47 0 -104 -41l-15 16q125 96 135 105q74 57 125 115q-49 41 -280 94zM236 479q0 -2 2 -6v-6q135 -61 157 -61q12 0 39 20t29 20q20 0 16 -16q-170 -123 -196 -164q-8 -12 -9 -37q0 -37 58 -65q51 -27 92 -27 q63 0 111.5 54t48.5 120q0 94 -71 162t-167 68q-35 0 -67 -15q-43 -18 -43 -47zM242 537q18 8 61 26q20 16 102 82.5t82 91.5q0 31 -50 64t-85 33t-69 -23q-41 -27 -41 -57v-217z" />
<glyph unicode="t" horiz-adv-x="524" d="M12 1141l2 4q106 12 336 270l12 -8l-43 -104q-27 -113 -26 -177l-2 -235h170v-51h-166v-619q129 -92 135 -92q12 0 55 51l17 -22l-201 -176q-68 72 -145 110q-47 23 -142 66q20 4 56 6l12 4q35 16 41 68q0 14 2 81q2 75 2 205t-2 314h-105v51h105q2 49 2 85t-2 58 q-8 94 -113 111z" />
<glyph unicode="u" horiz-adv-x="876" d="M-12 803l207 174q70 -86 180 -154q-49 -14 -60 -22q-29 -25 -28 -84v-481q0 -90 127 -91q133 0 133 93v489q0 70 -78 92v8q70 39 74 41q37 25 59 62l31 49q6 -2 22 -31q41 -68 162 -143q-16 4 -45 2q-55 -2 -55 -107v-501q0 -61 43 -62q14 0 38 19l25 20q4 -4 13 -22 q-35 -27 -123 -101q-29 -27 -82 -84q-10 18 -31 51q-80 102 -184 103q-160 0 -211 -152q-14 49 -69.5 96.5t-108.5 61.5q-2 14 57 29q29 12 37 86v485q0 96 -58 96q-10 -4 -69 -37q-2 3 -6 15z" />
<glyph unicode="v" horiz-adv-x="874" d="M-12 803l207 174q70 -86 180 -154q-55 -18 -58 -20q-26 -22 -26 -91v-5v-459q141 -43 211 -113l41 17v573q0 74 -74 94v8q59 29 104 74q4 6 60 78q76 -90 182 -158q-8 -6 -55 -6q-43 -6 -43 -104v-9q2 -53 4 -514q31 -2 90 -30v-15q-90 16 -117 21q-63 0 -153 -68 q-82 -63 -113 -125q-176 145 -383 170q0 4 -4 11q2 6 39 26.5t43 46.5v510q0 90 -60 90q-10 -4 -69 -37q-2 2 -6 15z" />
<glyph unicode="w" horiz-adv-x="1259" d="M6 752l205 213q107 -125 205 -125h12q109 10 197 116q53 -66 73 -82q42 -35 103 -35q8 0 16 1q106 6 197 116q63 -78 110 -108q33 -20 80 -47q-8 -6 -55 -6q-43 -6 -43 -104v-9q0 -43 -2 -506q41 -10 96 -39v-14q-66 10 -115 10q-66 0 -141.5 -59.5t-105.5 -122.5 q-217 176 -361 194q-14 -4 -26 -2q2 2 45 47q37 39 36 80v445q0 51 -2 59q-8 33 -47 33h-133q-55 0 -55 -125v-412q0 -63 33 -90q10 -10 69 -37q-74 -47 -96 -73q-25 -33 -76 -97q-33 41 -84 97q-29 31 -94 73q55 47 69.5 66.5t20.5 54.5v414q0 100 -39 100q-31 0 -82 -45z M696 725q0 -14 4 -39v-459q131 -41 205 -121l27 15v584q0 49 -6 65q-10 27 -52 37q-32 -1 -51.5 -1t-27.5 1h-4q0 2 4 2h-4q-8 -2 -31 -8q-63 -14 -64 -76z" />
<glyph unicode="x" horiz-adv-x="768" d="M-31 47q0 4 6 47q2 111 97 242q41 45 108 127q-47 0 -67 2q-9 1 -18 1q-45 0 -75 -26q-20 -18 -22 -22q0 20 41 96t45 96v-45q0 -18 29 -22q2 -2 43 0q20 0 43 2q-2 59 -2 182q-16 102 -76 102q-6 0 -70 -47l-14 25q61 47 182 162q66 -66 97.5 -84.5t78.5 -18.5 q68 0 164 103q49 -110 133 -135l-334 -279h78q53 0 101 41h16l-98 -176q-2 10 6 43l-107 2v-240q123 -76 144 -86q14 0 47 23.5t43 40.5q27 39 26 55q0 53 -47 66l-24 -11q0 -2 11 -14t11 -23q0 -39 -37 -38q-51 0 -51 49q0 59 82 59q37 0 58.5 -26.5t21.5 -61.5 q0 -72 -102 -129q-33 -16 -95 -49q-23 -12 -73 -57q-131 104 -250 137q43 6 80 53v223q-2 -4 -15 -18q-92 -98 -129 -168q-49 -88 -53 -203v-9q0 -94 78 -182q75 -83 149 -84l15 1q55 0 86 32l41 43q51 -68 145 -98q-57 -16 -151 -104q-23 35 -121 71q-133 33 -201 125 q-25 33 -49.5 102.5t-24.5 102.5zM354 702q-3 -18 -3 -39q0 -29 5 -65q67 60 176 150q4 12 5 18q0 29 -28 51.5t-58 22.5q-82 -2 -93 -49q0 -29 -4 -89z" />
<glyph unicode="y" horiz-adv-x="784" d="M-18 803q70 55 182 170l90 -96q49 -37 119 -37q86 0 186 137q59 -104 182 -141q-63 -18 -90 -88v-316q-3 -38 -3 -69q0 -84 24 -113q20 -23 63 -68q37 -41 41 -73q0 -2 2 -15v-16q0 -137 -164 -240l-264 -166l-37 -18q-20 98 -137 170q-82 50 -134 50q-9 0 -17 -1l-5 10 l207 174q-137 131 -211 138q-10 -6 -14 -2v16q57 2 77.5 23.5t20.5 78.5q0 236 -2 422q-12 39 -16 47q-14 23 -47 23q-12 -4 -39 -21q0 2 -8 9.5t-6 11.5zM236 10q16 -39 77 -104q121 -86 183 -86q47 0 101 61.5t54 110.5q0 53 -45 92q-39 33 -76 63q-29 29 -34 84 q-51 -31 -260 -221zM262 373q0 -14 2 -51q4 -47 4 -74q78 -68 97 -68q12 0 127 96q0 211 2 455q0 86 -121 86q-111 0 -111 -129v-315z" />
<glyph unicode="z" horiz-adv-x="604" d="M14 786q100 88 183 203h14q4 -10 6 -39h291q8 0 53 17q19 -6 23 -2l-316 -299q47 -68 269 -97q4 -20 0 -24q-16 -4 -54 -10q-37 -14 -37 -66v-201q0 -78 101 -92q4 -2 0 -18q-23 -2 -107 -27q-274 -129 -295 -215q-4 -16 -4 -35q0 -86 68 -86q20 0 98 47l12 -14 l-213 -158l-12 13q2 0 19 16q-23 2 -60 29q-23 16 -22 69q0 59 78 148q57 66 127 116q51 37 51 111v283q-12 25 -62.5 51t-81.5 26q-12 0 -34 -12q-25 -18 -43 -26q-6 4 -11 14l322 303l-275 4q-12 -4 -69 -49q-18 4 -19 20z" />
<glyph unicode="{" horiz-adv-x="1734" d="M18 1257q0 61 42 105.5t102 44.5q45 0 92 -45t154 -45l30 6q25 29 25 98q53 -23 53 -78q0 -88 -76 -88q-20 0 -72.5 22.5t-74.5 22.5q-25 0 -47.5 -25.5t-22.5 -51.5q0 -33 66 -95l10 9v57q6 6 29 55l34 -8l-20 -53q23 -39 119 -135q70 -68 69 -172q0 -31 -20.5 -95.5 t-15.5 -95.5q47 31 81 41l54 -24v-23q-76 -2 -76 -86q0 -76 59 -111q57 74 183 250l-17 15q-29 -12 -100 -31l-35 24q31 25 76 82l-37 23q-8 12 -10 27l39 102l-9 6h-10q-33 -23 -41 -37l-20 21l-25 2q-16 45 -26 135q-25 16 -27 41q6 43 27 80l-21 55q18 29 66 94l-19 76 q0 23 29 58.5t31 48.5q25 -25 79 -68l33 14q14 -4 23 -12q121 10 264 -92l-25 -129l-120 -45q41 -53 98 -53q10 0 31 4q14 -14 10 -27q-31 -37 -51 -45q47 -8 157 -8q117 0 142 61q6 16 6 160q0 29 24 29q6 0 23.5 -4.5t19.5 -4.5l25 41l37 13q33 -29 104 -82l-16 -70 q-47 -35 -68 -96l-63 -39l-10 -37q29 -59 67 -178q-14 -33 -37 -49q-2 -23 31 -35l43 -16l25 -15q25 6 127 21l2 -76l-2 -135l-15 -15q-43 31 -106 99l-31 -45h-29q-23 25 -61 59q-6 0 -35 -5t-39 -5l-18 -49q-57 -6 -103 -68q-10 29 -18 84q-6 43 -21 59l-59 -69h-23 q-16 23 -30 22q-121 -41 -133 -47q-72 -33 -115 -80v-30l8 -11q18 0 52 6.5t53 6.5q131 0 276 -88q164 -98 160 -222l-33 -8q-57 23 -111 23q-16 0 -61 -45q55 -29 150 -60q31 20 100 60q23 4 49.5 -39t26.5 -68q0 -10 -6.5 -23.5t-6.5 -17.5q0 -12 7 -33l-43 -24l-52 22 q-39 -31 -78 -30q-12 0 -16 2q-49 49 -76 49l-38 -6q-37 -6 -66 -6t-88.5 -7.5t-89.5 -7.5q-49 0 -49 82q0 51 32.5 103.5t34.5 70.5q-14 27 -59 92q-35 -49 -45 -141q-10 -98 -27 -127q-33 -57 -147 -80q-29 16 -72 68q-35 43 -105 67l-57 -32l51 -23q6 -16 70 -80 q-53 -35 -121 -90q-66 57 -74 60q-23 10 -92 8v69q0 6 -4 31t-6 43l-43 16l-23 48q8 12 74 57q-6 31 10 90l-67 51v25q72 23 59 22q18 0 72 -6q45 -4 72 -2q27 -12 65 -51q45 -47 64 -59l59 -11q18 49 23 54q0 90 -64 135q-27 20 -129 57q-84 31 -107.5 79t-68.5 103v25 q0 4 22 8q33 0 76 -39l68 -61q33 121 28 178l-6 76l-49 55q-74 -41 -80 -102q-39 39 -39 88q0 33 19 75q-4 6 -29 21q-115 -53 -115 -129q0 -29 13 -66h-21q-33 0 -55 50q-20 43 -21 79q0 41 62 136q-106 100 -107 165zM86 1294q0 -18 27.5 -51t46.5 -39v19q0 53 30 75 q51 37 62 50q-6 6 -44 24.5t-46 18.5q-29 0 -52.5 -32t-23.5 -65zM842 1399q57 -39 71 -39q23 0 35 20q-32 45 -63 45q-16 0 -43 -26zM979 1212q8 8 76 29q59 16 78 53l30 -6v-47q-27 -22 -76 -22q-4 0 -14 -2.5t-12 -2.5z" />
<glyph unicode="|" horiz-adv-x="372" d="M152 0v1380h90v-1380h-90z" />
<glyph unicode="}" horiz-adv-x="1734" d="M4 721l4 -135l15 -15q43 31 106 99l31 -45h28q23 25 62 59q6 0 34.5 -5t39.5 -5l18 -49q57 -6 102 -68q8 23 17 78q6 47 20 65l62 -69h20q23 23 33 22l133 -47q72 -35 115 -80v-30l-8 -11q-8 0 -50.5 6.5t-54.5 6.5q-131 0 -276 -88q-164 -98 -160 -222l33 -8 q57 23 108 23q18 0 64 -45q-55 -29 -150 -60q-31 20 -100 60q-23 4 -50.5 -39t-27.5 -68q0 -10 7 -23.5t7 -19.5q0 -10 -6 -31l43 -24l51 22q41 -31 78 -30q12 0 17 2q49 49 73 49l38 -6t66.5 -6t89 -7.5t91.5 -7.5q49 0 49 82q0 51 -32.5 103.5t-34.5 70.5q14 27 59 92 q35 -49 45 -141q10 -98 27 -127q33 -57 147 -80q35 23 70 70q29 39 106 65l58 -32l-52 -23q-6 -16 -69 -80q53 -35 121 -90q66 57 73 60q23 10 92 8v69q2 23 11 74l41 16l24 48q-8 12 -73 57q4 33 -11 90l68 51v25q-72 23 -60 22q-18 0 -71 -6q-45 -4 -72 -2 q-29 -14 -67 -51q-45 -47 -62 -59l-59 -11q-18 49 -23 54q0 90 64 135q27 18 129 57q80 31 104 78q43 80 72 104v25q0 4 -23 8q-33 0 -75 -39l-68 -61q-33 115 -29 178l4 76l52 55q74 -41 79 -102q39 39 39 88q0 33 -18 75q14 14 27 21q115 -53 114 -127q0 -27 -12 -68h22 q33 0 56 50q20 43 20 79q0 31 -61 136q106 100 106 165q0 61 -42 105.5t-101 44.5q-47 0 -94 -45t-152 -45l-31 6q-25 29 -24 98q-53 -18 -53 -78q0 -88 75 -88q23 0 75 22.5t73 22.5q25 0 47.5 -25.5t22.5 -51.5q0 -35 -68 -95l-8 9v57q-6 6 -29 55l-35 -8l19 -53 q-20 -41 -117 -135q-70 -68 -70 -172q0 -31 20.5 -95.5t16.5 -95.5q-49 33 -82 41l-53 -24v-23q76 -2 76 -86q0 -76 -62 -111q-72 96 -180 250l16 15q29 -12 101 -31l35 24q-37 33 -76 82l37 23q8 8 8 27l-37 102l8 6h11q33 -23 40 -37l21 21l25 2q20 55 26 135q25 16 27 41 q-12 53 -27 80l21 55q-16 29 -66 94q16 70 16 76q0 20 -27.5 55t-29.5 52q-25 -25 -80 -68l-33 14q-14 -4 -22 -12q-119 10 -264 -92l24 -129l121 -45q-41 -53 -98 -53q-10 0 -31 4q-14 -14 -10 -27q31 -37 51 -45q-47 -8 -158 -8q-117 0 -141 61q-6 16 -6 160q0 29 -25 29 q-6 0 -23.5 -4.5t-19.5 -4.5l-24 41l-37 13q-33 -29 -105 -82l17 -70q47 -35 67 -96l64 -39l10 -37q-25 -47 -69 -178q14 -23 38 -49q2 -23 -30 -35l-43 -16l-25 -15q-27 6 -127 21zM489 1241q23 -22 74 -22q4 0 15.5 -2.5t13.5 -2.5l82 -2q-8 8 -76 29q-59 16 -78 53 l-31 -6v-47zM705 1380q32 45 63 45q16 0 43 -26q-57 -39 -74 -39q-20 0 -32 20zM1401 1348q6 6 44 24.5t46 18.5q29 0 51.5 -32t22.5 -65q0 -18 -27 -51t-45 -39v19q0 53 -33 75q-45 31 -59 50z" />
<glyph unicode="~" horiz-adv-x="778" d="M66 1493q14 76 92 123q70 43 153 43q31 0 95.5 -28.5t99.5 -28.5q96 0 174 51q-82 -168 -260 -168q-33 0 -91.5 27.5t-86.5 27.5q-129 0 -176 -47z" />
<glyph unicode="&#xa1;" horiz-adv-x="536" d="M33 -397q66 33 84 47q41 31 49 80q0 37 4 108q33 324 53 707h35l59 -563q18 -182 45 -222q4 -8 39 -40.5t35 -34.5q0 -29 -16 -29q-12 0 -42 8t-42 8q-78 0 -166 -45q-33 -16 -113 -53zM109 809q90 53 135 137q41 -80 133 -133q-94 -45 -135 -137q-31 111 -133 133z" />
<glyph unicode="&#xa2;" horiz-adv-x="526" d="M18 453q0 61 62 92v295q0 70 -33 102q6 -2 43 -2q94 0 166 27v135h43v-119q41 18 61 39q41 -66 97 -66q18 0 26 2q-53 -78 -118 -77q-37 0 -66 18v-354q70 -16 102 -41l37 26l13 -14l-140 -119q-6 6 -12 9v-123h-43v147q-76 37 -168 37q-41 0 -70 -14zM195 557 q24 0 61 -4l-4 365l-55 -13z" />
<glyph unicode="&#xa3;" horiz-adv-x="792" d="M16 12q2 35 27 80q172 330 172 367v133l-172 2v72h156l-60 159q-14 39 -14 82q0 143 135 228q115 74 266 73q88 0 160 -65l31 28l18 -16q-94 -86 -153 -182l-117 117q-59 59 -92 55q-102 -14 -103 -135q0 -47 13 -88l75 -256h248v-72l-239 -2l-15 -127q-4 -39 -102 -148 q-115 -127 -137 -161q295 111 370 110q111 0 242 -69l25 34l16 -16q-70 -102 -119 -207q-154 92 -317 92q-41 0 -107 -26q-53 -23 -104 -45q-14 -14 -41 -17l-39 -4z" />
<glyph unicode="&#xa4;" horiz-adv-x="1222" d="M10 713l2 55h144q90 360 383 457q61 20 127 20q90 0 191 -39t159 -100l135 -43q-23 -2 -70 -31l-67 -41q-6 -6 -46 -33.5t-44 -27.5q-6 0 -16.5 51t-14.5 51q-29 29 -90 82q-84 68 -176 68q-145 0 -236 -142q-70 -109 -92 -272h381v-57l-387 2q-4 -39 -4 -70t4 -55h387 v-62h-371q59 -213 158 -260q96 -78 295 -84q96 -2 119 4q35 10 114 35q51 18 144 90q12 -2 12 -10l-2 -8l-231 -334q-37 31 -99 31q-14 0 -68.5 3t-70.5 3q-219 0 -377 154.5t-170 375.5h-121v62h121q0 63 12 125h-135z" />
<glyph unicode="&#xa5;" horiz-adv-x="1013" d="M4 1004q-2 74 121 133q180 86 201 104l237 -577q43 51 111 194q57 123 90 211q-27 63 -90 82q18 4 72.5 37t68.5 49q51 -45 133 -84q-16 -6 -117 -84q-66 -139 -151 -299l-98 -180v-66h225l-33 -51h-192v-78h225l-41 -51h-186l2 -205q12 -47 73 -82q-98 -33 -161 -112 q-74 74 -189 110q68 31 84 84l-2 205h-168l-43 51h213l-2 78h-166l-45 51h211v56q-37 90 -106 268q-102 258 -113 258q-94 0 -94 -80q0 -49 86 -84q-27 -63 -51 -63q-102 0 -105 125z" />
<glyph unicode="&#xa6;" horiz-adv-x="1159" d="M483 -276v727h187v-727h-187zM483 696v729h187v-729h-187z" />
<glyph unicode="&#xa7;" horiz-adv-x="1044" d="M98 623q0 152 172 301q-72 76 -71 174q0 168 241 379l416 -150l-98 -162l-418 152q-47 -72 -47 -111q0 -92 180 -198q268 -158 370.5 -256.5t102.5 -225.5q0 -150 -172 -309q76 -86 76 -170q0 -100 -82 -213q-39 -51 -158 -172l-422 150l97 163l420 -149q49 63 49 108 q0 76 -103 148q-49 35 -227 145q-152 94 -193 129q-133 115 -133 267zM203 719q0 -84 114 -178q43 -35 182.5 -120t245.5 -171q98 90 99 166q0 84 -99 170q-49 43 -167 116q-96 57 -277 189q-98 -90 -98 -172z" />
<glyph unicode="&#xa8;" horiz-adv-x="686" d="M135 1102q0 33 22.5 55.5t55.5 22.5t55.5 -22.5t22.5 -55.5t-22.5 -55.5t-55.5 -22.5t-55.5 23.5t-22.5 54.5zM379 1102q0 33 22.5 55.5t55.5 22.5t55.5 -22.5t22.5 -55.5t-23 -55.5t-55 -22.5q-33 0 -55.5 23.5t-22.5 54.5z" />
<glyph unicode="&#xa9;" horiz-adv-x="1671" d="M16 721q0 326 216.5 539t541.5 213q311 0 519 -220.5t208 -533.5q0 -311 -213 -527.5t-524 -216.5q-326 0 -537 210t-211 536zM131 723q0 -268 183.5 -461.5t449.5 -193.5t449.5 193.5t183.5 461.5q0 274 -184.5 464.5t-456.5 190.5q-264 0 -444.5 -194.5t-180.5 -460.5z M360 711q0 182 117 302t297 120q104 0 199 -58l59 53h49l11 -315l-60 -6q-70 264 -248 264q-203 0 -202 -342q0 -348 217 -348q193 0 239 237l70 -18q-61 -291 -346 -291q-180 0 -291 110.5t-111 291.5z" />
<glyph unicode="&#xab;" horiz-adv-x="782" d="M51 651q-6 6 297 365l27 -35l-201 -330l195 -313l-25 -29zM295 651q-6 6 297 365l26 -35l-200 -330l194 -313l-24 -29z" />
<glyph unicode="&#xad;" horiz-adv-x="606" d="M27 418q47 76 47 80q16 4 112 4q113 0 336 -4l-41 -80h-454z" />
<glyph unicode="&#xae;" horiz-adv-x="774" d="M74 1174q0 127 89 214t216 87q121 0 209 -89.5t88 -211.5q0 -127 -87 -214.5t-214 -87.5q-129 0 -215 86t-86 216zM125 1176q0 -106 72.5 -181t177.5 -75q104 0 177 74.5t73 181.5q0 102 -73 179t-179 77q-104 0 -176 -76t-72 -180zM209 1014v28q29 0 43 7q4 20 4 30v189 q0 2 -4 30q-20 4 -43 5v30h194q119 0 119 -82q0 -63 -78 -80q43 -18 62 -116q4 -4 10 -6q16 0 16 41h31v-11q0 -72 -78 -71q-55 0 -69 45q-6 18 -15 92q-8 18 -61 18v-84q0 -25 2 -30q16 -6 49 -7v-28h-182zM340 1194h22q70 0 70 55q0 53 -51 54h-19q-23 0 -22 -25v-84z" />
<glyph unicode="&#xaf;" horiz-adv-x="624" d="M57 1110v115l518 2v-115z" />
<glyph unicode="&#xb0;" horiz-adv-x="663" d="M35 1270q0 109 75.5 186.5t184.5 77.5q106 0 180 -76t74 -182q0 -109 -73 -182.5t-181 -73.5q-102 0 -181 73.5t-79 176.5zM121 1276q0 -72 51 -123t123 -51t122 51t50 123t-50 124t-122 52q-74 0 -124 -51t-50 -125z" />
<glyph unicode="&#xb4;" horiz-adv-x="870" d="M233 1079l5 -14q297 53 319 53q70 0 70 58q0 14 -2 22q-14 57 -56 57q-18 0 -45 -14z" />
<glyph unicode="&#xb6;" horiz-adv-x="1048" d="M41 1020q0 209 137 291q109 66 330 65h438v-61q-78 0 -97.5 -24.5t-19.5 -110.5v-1098q0 -84 19.5 -108.5t97.5 -24.5v-62h-577v62q82 0 104 31q16 23 16 102v580l-63 -3q-174 -6 -279.5 91.5t-105.5 269.5zM592 -51h129v1366h-129v-1366z" />
<glyph unicode="&#xb7;" horiz-adv-x="258" d="M16 557q0 39 26 65.5t62 26.5q37 0 63 -26.5t26 -65.5t-26 -65.5t-63 -26.5t-62.5 26.5t-25.5 65.5z" />
<glyph unicode="&#xb8;" horiz-adv-x="382" d="M14 -356q2 43 39 74.5t82 31.5q49 0 88 -45l41 8q29 47 29 80q0 29 -29 70l-26 2q-47 4 -95 -25l2 162h50l4 -6l2 -90q45 14 92 14q74 0 92 -57q6 -18 6 -121q0 -51 19 -66q-41 10 -109 11q-61 0 -121 -72q-53 72 -102 72q-37 0 -47 -47z" />
<glyph unicode="&#xbb;" horiz-adv-x="749" d="M180 981l199 -330l-195 -313l25 -29l295 342q4 6 -299 365zM424 981l199 -330l-195 -313l25 -29l295 342q4 6 -299 365z" />
<glyph unicode="&#xbf;" horiz-adv-x="847" d="M10 -207q37 -2 45 57v68q6 51 0 352q0 14 -30 84q12 16 10 17q35 -31 74 -35q25 0 69 -2q74 -2 139 37q45 27 91 53v151l69 7l29 -213q-55 -12 -260 -117l-2 -391q0 -27 14 -50.5t35 -23.5q-61 0 63.5 42t175.5 42q68 0 135.5 -50t77.5 -116h-112q-57 0 -115.5 -53 t-54.5 -53q-4 0 -8 4q-172 172 -439 172zM301 809q82 49 150 162q49 -72 63 -86q39 -47 88 -70q-111 -70 -158 -156q-51 105 -143 150z" />
<glyph unicode="&#xc0;" horiz-adv-x="1523" d="M-25 1155q0 66 49.5 114t112.5 48q59 0 106.5 -35t49.5 -92q2 -39 -30 -76t-73 -37q-33 0 -62.5 21.5t-29.5 46.5q0 31 16.5 54.5t41.5 23.5q35 0 53 -27t12 -57q-2 -2 2 -6q33 18 33 55q0 47 -36 73.5t-83 22.5t-89 -45t-42 -88q0 -66 50 -116t116 -50q201 0 539 262 q193 150 202 150q-43 0 41 -43q57 -29 133 -58.5t121 -29.5q68 0 168 61q2 0 8.5 -4t6.5 -6v-14l-385 -232q-2 12 4 43q0 16 -59.5 57t-71.5 43v-421q12 6 94 71q12 12 43 47q14 18 14 45q0 25 -19.5 44.5t-43.5 19.5q-23 0 -37 -27q8 2 24 0q20 -4 21 -24q0 -31 -33 -31 t-33 39q0 63 64 63q33 0 59.5 -28.5t22.5 -57.5q-6 -51 -92 -130t-86 -83v-24l249 2v285q0 6 -1 16t-3 14q-10 23 -37 23q-12 0 -30 -6l317 211l6 -7l4 -16q-74 -45 -73 -147v-805q0 -55 4 -72q14 -55 73 -55q35 0 76 41q10 -10 11 -17l-205 -198q-88 78 -224 157v17 q88 2 89 108v353h-156h-78q-35 -2 -22 -3q0 -6 2 -34v-52v-86q29 66 88 68q117 4 116 -98q0 -100 -86 -115q-27 -4 -34 -2q-41 0 -41 41q0 37 41 37q43 0 43 -37q0 -4 -5 -16q61 12 62 92q0 78 -96 78q-43 0 -68 -45q-16 -31 -20 -84q4 -121 0 -367h-35l-2 1233 q-8 12 -43 12v-1245h-35l-2 1237q-111 -88 -111 -133v-834q0 -72 17.5 -95t83.5 -52q0 -2 -2 -10q-74 -33 -166 -166q-137 -197 -156 -217q-98 -109 -195 -109q-49 0 -129 51q-4 0 -20 -12q-20 -20 -27 -23q-2 2 -8 4.5t-6 12.5l264 237q12 -16 17 -16q-35 -41 -35 -59 q0 -31 25.5 -48.5t56.5 -17.5q16 0 41.5 17.5t31.5 31.5q20 45 21 162v932q0 37 -26.5 64.5t-63.5 27.5q-16 -2 -99 -16l-100 -17q-84 0 -142.5 58.5t-58.5 146.5zM119 690q53 14 111.5 66.5t58.5 101.5q0 66 -45 66q-8 0 -17 -9q0 -2 10.5 -14t10.5 -16q0 -33 -29 -33 q-33 0 -33 43q0 49 54 49q72 0 71 -76q0 -39 -20 -67q39 -61 143 -119q-25 -16 -76 -57q-66 -51 -65 -84q0 -52 145 -142l-135 -135q-57 -70 -57 -147q0 -37 26.5 -71t61.5 -34q72 0 72 54q0 8 -7 20q-20 -20 -37 -20q-12 0 -24 15t-12 25q0 16 16 28.5t31 12.5q53 0 53 -63 q0 -92 -94 -92q-104 0 -111 119q-2 35 26.5 100t28.5 55q0 14 -63 65.5t-86 61.5l68 51q70 53 69 93q0 37 -51 85t-90 58zM621 1589q0 11 4 25q18 66 63 65q23 0 51 -16l336 -186l-4 -15q-61 12 -184 33q-174 29 -185 29q-82 0 -81 65z" />
<glyph unicode="&#xc1;" horiz-adv-x="1523" d="M-25 1155q0 66 49.5 114t112.5 48q59 0 106.5 -35t49.5 -92q2 -39 -30 -76t-73 -37q-33 0 -62.5 21.5t-29.5 46.5q0 31 16.5 54.5t41.5 23.5q35 0 53 -27t12 -57q-2 -2 2 -6q33 18 33 55q0 47 -36 73.5t-83 22.5t-89 -45t-42 -88q0 -66 50 -116t116 -50q201 0 539 262 q193 150 202 150q-43 0 41 -43q57 -29 133 -58.5t121 -29.5q68 0 168 61q2 0 8.5 -4t6.5 -6v-14l-385 -232q-2 12 4 43q0 16 -59.5 57t-71.5 43v-421q12 6 94 71q12 12 43 47q14 18 14 45q0 25 -19.5 44.5t-43.5 19.5q-23 0 -37 -27q8 2 24 0q20 -4 21 -24q0 -31 -33 -31 t-33 39q0 63 64 63q33 0 59.5 -28.5t22.5 -57.5q-6 -51 -92 -130t-86 -83v-24l249 2v285q0 6 -1 16t-3 14q-10 23 -37 23q-12 0 -30 -6l317 211l6 -7l4 -16q-74 -45 -73 -147v-805q0 -55 4 -72q14 -55 73 -55q35 0 76 41q10 -10 11 -17l-205 -198q-88 78 -224 157v17 q88 2 89 108v353h-156h-78q-35 -2 -22 -3q0 -6 2 -34v-52v-86q29 66 88 68q117 4 116 -98q0 -100 -86 -115q-27 -4 -34 -2q-41 0 -41 41q0 37 41 37q43 0 43 -37q0 -4 -5 -16q61 12 62 92q0 78 -96 78q-43 0 -68 -45q-16 -31 -20 -84q4 -121 0 -367h-35l-2 1233 q-8 12 -43 12v-1245h-35l-2 1237q-111 -88 -111 -133v-834q0 -72 17.5 -95t83.5 -52q0 -2 -2 -10q-74 -33 -166 -166q-137 -197 -156 -217q-98 -109 -195 -109q-49 0 -129 51q-4 0 -20 -12q-20 -20 -27 -23q-2 2 -8 4.5t-6 12.5l264 237q12 -16 17 -16q-35 -41 -35 -59 q0 -31 25.5 -48.5t56.5 -17.5q16 0 41.5 17.5t31.5 31.5q20 45 21 162v932q0 37 -26.5 64.5t-63.5 27.5q-16 -2 -99 -16l-100 -17q-84 0 -142.5 58.5t-58.5 146.5zM119 690q53 14 111.5 66.5t58.5 101.5q0 66 -45 66q-8 0 -17 -9q0 -2 10.5 -14t10.5 -16q0 -33 -29 -33 q-33 0 -33 43q0 49 54 49q72 0 71 -76q0 -39 -20 -67q39 -61 143 -119q-25 -16 -76 -57q-66 -51 -65 -84q0 -52 145 -142l-135 -135q-57 -70 -57 -147q0 -37 26.5 -71t61.5 -34q72 0 72 54q0 8 -7 20q-20 -20 -37 -20q-12 0 -24 15t-12 25q0 16 16 28.5t31 12.5q53 0 53 -63 q0 -92 -94 -92q-104 0 -111 119q-2 35 26.5 100t28.5 55q0 14 -63 65.5t-86 61.5l68 51q70 53 69 93q0 37 -51 85t-90 58zM674 1477l6 -15q31 6 92.5 17.5t91.5 15.5q172 29 183 29q84 0 83 65q0 33 -19 61.5t-50 28.5q-23 0 -51 -16z" />
<glyph unicode="&#xc2;" horiz-adv-x="1523" d="M-25 1155q0 66 49.5 114t112.5 48q59 0 106.5 -35t49.5 -92q2 -39 -30 -76t-73 -37q-33 0 -62.5 21.5t-29.5 46.5q0 31 16.5 54.5t41.5 23.5q35 0 53 -27t12 -57q-2 -2 2 -6q33 18 33 55q0 47 -36 73.5t-83 22.5t-89 -45t-42 -88q0 -66 50 -116t116 -50q201 0 539 262 q193 150 202 150q-43 0 41 -43q57 -29 133 -58.5t121 -29.5q68 0 168 61q2 0 8.5 -4t6.5 -6v-14l-385 -232q-2 12 4 43q0 16 -59.5 57t-71.5 43v-421q12 6 94 71q12 12 43 47q14 18 14 45q0 25 -19.5 44.5t-43.5 19.5q-23 0 -37 -27q8 2 24 0q20 -4 21 -24q0 -31 -33 -31 t-33 39q0 63 64 63q33 0 59.5 -28.5t22.5 -57.5q-6 -51 -92 -130t-86 -83v-24l249 2v285q0 6 -1 16t-3 14q-10 23 -37 23q-12 0 -30 -6l317 211l6 -7l4 -16q-74 -45 -73 -147v-805q0 -55 4 -72q14 -55 73 -55q35 0 76 41q10 -10 11 -17l-205 -198q-88 78 -224 157v17 q88 2 89 108v353h-156h-78q-35 -2 -22 -3q0 -6 2 -34v-52v-86q29 66 88 68q117 4 116 -98q0 -100 -86 -115q-27 -4 -34 -2q-41 0 -41 41q0 37 41 37q43 0 43 -37q0 -4 -5 -16q61 12 62 92q0 78 -96 78q-43 0 -68 -45q-16 -31 -20 -84q4 -121 0 -367h-35l-2 1233 q-8 12 -43 12v-1245h-35l-2 1237q-111 -88 -111 -133v-834q0 -72 17.5 -95t83.5 -52q0 -2 -2 -10q-74 -33 -166 -166q-137 -197 -156 -217q-98 -109 -195 -109q-49 0 -129 51q-4 0 -20 -12q-20 -20 -27 -23q-2 2 -8 4.5t-6 12.5l264 237q12 -16 17 -16q-35 -41 -35 -59 q0 -31 25.5 -48.5t56.5 -17.5q16 0 41.5 17.5t31.5 31.5q20 45 21 162v932q0 37 -26.5 64.5t-63.5 27.5q-16 -2 -99 -16l-100 -17q-84 0 -142.5 58.5t-58.5 146.5zM119 690q53 14 111.5 66.5t58.5 101.5q0 66 -45 66q-8 0 -17 -9q0 -2 10.5 -14t10.5 -16q0 -33 -29 -33 q-33 0 -33 43q0 49 54 49q72 0 71 -76q0 -39 -20 -67q39 -61 143 -119q-25 -16 -76 -57q-66 -51 -65 -84q0 -52 145 -142l-135 -135q-57 -70 -57 -147q0 -37 26.5 -71t61.5 -34q72 0 72 54q0 8 -7 20q-20 -20 -37 -20q-12 0 -24 15t-12 25q0 16 16 28.5t31 12.5q53 0 53 -63 q0 -92 -94 -92q-104 0 -111 119q-2 35 26.5 100t28.5 55q0 14 -63 65.5t-86 61.5l68 51q70 53 69 93q0 37 -51 85t-90 58zM590 1432l307 231l322 -236l-7 -12l-311 103l-307 -99z" />
<glyph unicode="&#xc3;" horiz-adv-x="1523" d="M-25 1155q0 66 49.5 114t112.5 48q59 0 106.5 -35t49.5 -92q2 -39 -30 -76t-73 -37q-33 0 -62.5 21.5t-29.5 46.5q0 31 16.5 54.5t41.5 23.5q35 0 53 -27t12 -57q-2 -2 2 -6q33 18 33 55q0 47 -36 73.5t-83 22.5t-89 -45t-42 -88q0 -66 50 -116t116 -50q201 0 539 262 q193 150 202 150q-43 0 41 -43q57 -29 133 -58.5t121 -29.5q68 0 168 61q2 0 8.5 -4t6.5 -6v-14l-385 -232q-2 12 4 43q0 16 -59.5 57t-71.5 43v-421q12 6 94 71q12 12 43 47q14 18 14 45q0 25 -19.5 44.5t-43.5 19.5q-23 0 -37 -27q8 2 24 0q20 -4 21 -24q0 -31 -33 -31 t-33 39q0 63 64 63q33 0 59.5 -28.5t22.5 -57.5q-6 -51 -92 -130t-86 -83v-24l249 2v285q0 6 -1 16t-3 14q-10 23 -37 23q-12 0 -30 -6l317 211l6 -7l4 -16q-74 -45 -73 -147v-805q0 -55 4 -72q14 -55 73 -55q35 0 76 41q10 -10 11 -17l-205 -198q-88 78 -224 157v17 q88 2 89 108v353h-156h-78q-35 -2 -22 -3q0 -6 2 -34v-52v-86q29 66 88 68q117 4 116 -98q0 -100 -86 -115q-27 -4 -34 -2q-41 0 -41 41q0 37 41 37q43 0 43 -37q0 -4 -5 -16q61 12 62 92q0 78 -96 78q-43 0 -68 -45q-16 -31 -20 -84q4 -121 0 -367h-35l-2 1233 q-8 12 -43 12v-1245h-35l-2 1237q-111 -88 -111 -133v-834q0 -72 17.5 -95t83.5 -52q0 -2 -2 -10q-74 -33 -166 -166q-137 -197 -156 -217q-98 -109 -195 -109q-49 0 -129 51q-4 0 -20 -12q-20 -20 -27 -23q-2 2 -8 4.5t-6 12.5l264 237q12 -16 17 -16q-35 -41 -35 -59 q0 -31 25.5 -48.5t56.5 -17.5q16 0 41.5 17.5t31.5 31.5q20 45 21 162v932q0 37 -26.5 64.5t-63.5 27.5q-16 -2 -99 -16l-100 -17q-84 0 -142.5 58.5t-58.5 146.5zM119 690q53 14 111.5 66.5t58.5 101.5q0 66 -45 66q-8 0 -17 -9q0 -2 10.5 -14t10.5 -16q0 -33 -29 -33 q-33 0 -33 43q0 49 54 49q72 0 71 -76q0 -39 -20 -67q39 -61 143 -119q-25 -16 -76 -57q-66 -51 -65 -84q0 -52 145 -142l-135 -135q-57 -70 -57 -147q0 -37 26.5 -71t61.5 -34q72 0 72 54q0 8 -7 20q-20 -20 -37 -20q-12 0 -24 15t-12 25q0 16 16 28.5t31 12.5q53 0 53 -63 q0 -92 -94 -92q-104 0 -111 119q-2 35 26.5 100t28.5 55q0 14 -63 65.5t-86 61.5l68 51q70 53 69 93q0 37 -51 85t-90 58zM455 1493q14 76 92 123q70 43 153 43q31 0 95.5 -28.5t99.5 -28.5q96 0 174 51q-82 -168 -260 -168q-33 0 -91.5 27.5t-86.5 27.5q-129 0 -176 -47z " />
<glyph unicode="&#xc4;" horiz-adv-x="1497" d="M-25 1155q0 66 49.5 114t112.5 48q59 0 106.5 -35t49.5 -92q2 -39 -30 -76t-73 -37q-33 0 -62.5 21.5t-29.5 46.5q0 31 16.5 54.5t41.5 23.5q35 0 53 -27t12 -57q-2 -2 2 -6q33 18 33 55q0 47 -36 73.5t-83 22.5t-89 -45t-42 -88q0 -66 50 -116t116 -50q199 0 539 262 q25 20 108 90q37 31 74 60q8 0 93 -47t99 -54q78 -31 123 -30q68 0 168 61q2 0 8.5 -4t6.5 -6v-14l-385 -232q-2 12 4 43q0 16 -59.5 57t-71.5 43v-421q12 6 94 71q12 12 43 47q14 18 14 45q0 25 -19.5 44.5t-43.5 19.5q-23 0 -37 -27q8 2 24 0q20 -4 21 -24q0 -31 -33 -31 t-33 39q0 63 64 63q33 0 59.5 -28.5t22.5 -57.5q-6 -51 -92 -130t-86 -83v-24l249 2v285q0 6 -1 16t-3 14q-10 23 -37 23q-12 0 -30 -6l317 211l6 -7l4 -16q-74 -45 -73 -147v-805q0 -55 4 -72q14 -55 73 -55q35 0 76 41q10 -10 11 -17l-205 -198q-88 78 -224 157v17 q88 2 89 108v353h-156h-78q-35 -2 -22 -3q0 -6 2 -34v-52v-86q29 66 88 68q117 4 116 -98q0 -100 -86 -115q-27 -4 -34 -2q-41 0 -41 41q0 37 41 37q43 0 43 -37q0 -4 -5 -16q61 12 62 92q0 78 -96 78q-43 0 -68 -45q-16 -31 -20 -84q4 -121 0 -367h-35l-2 1233 q-8 12 -43 12v-1245h-35l-2 1237q-111 -88 -111 -133v-834q0 -72 17.5 -95t83.5 -52q0 -2 -2 -10q-74 -33 -166 -166q-137 -197 -156 -217q-98 -109 -195 -109q-49 0 -129 51q-4 0 -20 -12q-20 -20 -27 -23q-2 2 -8 4.5t-6 12.5l264 237q12 -16 17 -16q-35 -41 -35 -59 q0 -31 25.5 -48.5t56.5 -17.5q16 0 41.5 17.5t31.5 31.5q20 45 21 162v932q0 37 -26.5 64.5t-63.5 27.5q-16 -2 -99 -16l-100 -17q-84 0 -142.5 58.5t-58.5 146.5zM119 690q53 14 111.5 66.5t58.5 101.5q0 66 -45 66q-8 0 -17 -9q0 -2 10.5 -14t10.5 -16q0 -33 -29 -33 q-33 0 -33 43q0 49 54 49q72 0 71 -76q0 -39 -20 -67q39 -61 143 -119q-25 -16 -76 -57q-66 -51 -65 -84q0 -52 145 -142l-135 -135q-57 -70 -57 -147q0 -37 26.5 -71t61.5 -34q72 0 72 54q0 8 -7 20q-20 -20 -37 -20q-12 0 -24 15t-12 25q0 16 16 28.5t31 12.5q53 0 53 -63 q0 -92 -94 -92q-104 0 -111 119q-2 35 26.5 100t28.5 55q0 14 -63 65.5t-86 61.5l68 51q70 53 69 93q0 37 -51 85t-90 58zM610 1552q0 37 26 63.5t62 26.5q39 0 64.5 -25.5t25.5 -64.5q0 -37 -26.5 -63.5t-63.5 -26.5t-62.5 26.5t-25.5 63.5zM987 1552q0 37 25.5 63.5 t62.5 26.5q39 0 64.5 -25.5t25.5 -64.5q0 -37 -26.5 -63.5t-63.5 -26.5t-62.5 26.5t-25.5 63.5z" />
<glyph unicode="&#xc5;" horiz-adv-x="1505" d="M-25 1155q0 66 49.5 114t112.5 48q59 0 106.5 -35t49.5 -92q2 -39 -30 -76t-73 -37q-33 0 -62.5 21.5t-29.5 46.5q0 31 16.5 54.5t41.5 23.5q35 0 53 -27t12 -57q-2 -2 2 -6q33 18 33 55q0 47 -36 73.5t-83 22.5t-89 -45t-42 -88q0 -66 50 -116t116 -50q201 0 539 262 q193 150 202 150q-43 0 41 -43q57 -29 133 -58.5t121 -29.5q68 0 168 61q2 0 8.5 -4t6.5 -6v-14l-385 -232q-2 12 4 43q0 16 -59.5 57t-71.5 43v-421q12 6 94 71q12 12 43 47q14 18 14 45q0 25 -19.5 44.5t-43.5 19.5q-23 0 -37 -27q8 2 24 0q20 -4 21 -24q0 -31 -33 -31 t-33 39q0 63 64 63q33 0 59.5 -28.5t22.5 -57.5q-6 -51 -92 -130t-86 -83v-24l249 2v285q0 6 -1 16t-3 14q-10 23 -37 23q-12 0 -30 -6l317 211l6 -7l4 -16q-74 -45 -73 -147v-805q0 -55 4 -72q14 -55 73 -55q35 0 76 41q10 -10 11 -17l-205 -198q-88 78 -224 157v17 q88 2 89 108v353h-156h-78q-35 -2 -22 -3q0 -6 2 -34v-52v-86q29 66 88 68q117 4 116 -98q0 -100 -86 -115q-27 -4 -34 -2q-41 0 -41 41q0 37 41 37q43 0 43 -37q0 -4 -5 -16q61 12 62 92q0 78 -96 78q-43 0 -68 -45q-16 -31 -20 -84q4 -121 0 -367h-35l-2 1233 q-8 12 -43 12v-1245h-35l-2 1237q-111 -88 -111 -133v-834q0 -72 17.5 -95t83.5 -52q0 -2 -2 -10q-74 -33 -166 -166q-137 -197 -156 -217q-98 -109 -195 -109q-49 0 -129 51q-4 0 -20 -12q-20 -20 -27 -23q-2 2 -8 4.5t-6 12.5l264 237q12 -16 17 -16q-35 -41 -35 -59 q0 -31 25.5 -48.5t56.5 -17.5q16 0 41.5 17.5t31.5 31.5q20 45 21 162v932q0 37 -26.5 64.5t-63.5 27.5q-16 -2 -99 -16l-100 -17q-84 0 -142.5 58.5t-58.5 146.5zM119 690q53 14 111.5 66.5t58.5 101.5q0 66 -45 66q-8 0 -17 -9q0 -2 10.5 -14t10.5 -16q0 -33 -29 -33 q-33 0 -33 43q0 49 54 49q72 0 71 -76q0 -39 -20 -67q39 -61 143 -119q-25 -16 -76 -57q-66 -51 -65 -84q0 -52 145 -142l-135 -135q-57 -70 -57 -147q0 -37 26.5 -71t61.5 -34q72 0 72 54q0 8 -7 20q-20 -20 -37 -20q-12 0 -24 15t-12 25q0 16 16 28.5t31 12.5q53 0 53 -63 q0 -92 -94 -92q-104 0 -111 119q-2 35 26.5 100t28.5 55q0 14 -63 65.5t-86 61.5l68 51q70 53 69 93q0 37 -51 85t-90 58zM762 1599q0 59 43 104.5t102 45.5t101.5 -43t42.5 -102q0 -57 -43 -100.5t-101 -43.5q-55 0 -100 44t-45 95zM811 1604q0 -41 27.5 -69t68.5 -28 t69 28t28 69q0 43 -28 70.5t-69 27.5t-68.5 -27.5t-27.5 -70.5z" />
<glyph unicode="&#xc6;" horiz-adv-x="2437" d="M-25 1155q0 66 49.5 114t112.5 48q59 0 106.5 -35t49.5 -92q2 -39 -30 -76t-73 -37q-33 0 -62.5 21.5t-29.5 46.5q0 31 16.5 54.5t41.5 23.5q35 0 53 -27t12 -57q-2 -2 2 -6q33 18 33 55q0 47 -36 73.5t-83 22.5t-89 -45t-42 -88q0 -66 50 -116t116 -50q201 0 539 262 q193 150 202 150q2 -2 54 -39q121 -88 188 -88q16 0 43 -4t29 -4q20 0 57 16q2 0 8 -10.5t6 -12.5l-8 -8l-284 -176q-2 12 4 43q0 16 -59.5 57t-71.5 43v-421q12 6 94 71q12 12 43 47q14 18 14 45q0 25 -19.5 44.5t-43.5 19.5q-23 0 -37 -27q8 2 24 0q20 -4 21 -24 q0 -31 -33 -31t-33 39q0 63 64 63q33 0 59.5 -28.5t22.5 -57.5q-6 -51 -92 -130t-86 -83v-24l251 -4v291q-10 53 -41 53q-14 0 -32 -6l252 155q2 -39 2 -114v-146q98 94 213 154l100 51l-16 80q18 0 112 99l94 100q-2 -68 0 -191q6 -6 62.5 30t79.5 56q49 43 69 96 q14 -33 54 -84q158 -141 223 -131q84 0 84 76q0 31 -22.5 51.5t-51.5 16.5q16 -20 17 -47q0 -41 -37 -41q-57 0 -58 53q0 37 24.5 56.5t61.5 12.5q37 -6 63.5 -33.5t26.5 -60.5q0 -55 -71 -127q-18 -18 -115 -96q-57 -35 -186 -129q51 -2 205 0v74h28v-285h-24q8 59 -21 64 q-80 0 -196 -3v-180q33 23 98 72q12 12 20 41q0 23 -24 29q-4 6 -15 2l-6 -9q12 -18 13 -18q0 -16 -29 -27q-25 0 -25 25q0 47 56 49q23 0 38 -16.5t15 -30.5q0 -41 -51 -78l-88 -61q0 -31 -2 -47q72 37 239 155l10 -10q-6 -12 -30 -39q109 -41 108 -162q0 -72 -61 -133 q-20 -20 -135 -108q-139 -84 -271 -215q-18 -16 -65 -66q-16 6 -58 27q-117 41 -233 82q-147 55 -221 100q0 -170 -21 -190q-55 51 -246 163v17q88 2 89 108v189q-12 61 4 159q-12 0 -64 2h-94h-102q0 -6 2 -34v-52v-86q29 66 88 68q117 4 116 -98q0 -100 -86 -115 q-27 -4 -34 -2q-41 0 -41 41q0 37 41 37q43 0 43 -37q0 -4 -5 -16q61 12 62 92q0 78 -96 78q-43 0 -68 -45q-16 -31 -20 -84q4 -121 0 -367h-35l-2 1233q-8 12 -43 12v-1245h-35l-2 1237q-111 -88 -111 -133v-834q0 -72 17.5 -95t83.5 -52q0 -2 -2 -10q-74 -33 -166 -166 q-137 -197 -156 -217q-98 -109 -195 -109q-49 0 -129 51q-4 0 -20 -12q-20 -20 -27 -23q-2 2 -8 4.5t-6 12.5l264 237q12 -16 17 -16q-35 -41 -35 -59q0 -31 25.5 -48.5t56.5 -17.5q16 0 41.5 17.5t31.5 31.5q20 45 21 162v932q0 37 -26.5 64.5t-63.5 27.5q-16 -2 -99 -16 l-100 -17q-84 0 -142.5 58.5t-58.5 146.5zM119 690q53 14 111.5 66.5t58.5 101.5q0 66 -45 66q-8 0 -17 -9q0 -2 10.5 -14t10.5 -16q0 -33 -29 -33q-33 0 -33 43q0 49 54 49q72 0 71 -76q0 -39 -20 -67q39 -61 143 -119q-25 -16 -76 -57q-66 -51 -65 -84q0 -52 145 -142 l-135 -135q-57 -70 -57 -147q0 -37 26.5 -71t61.5 -34q72 0 72 54q0 8 -7 20q-20 -20 -37 -20q-12 0 -24 15t-12 25q0 16 16 28.5t31 12.5q53 0 53 -63q0 -92 -94 -92q-104 0 -111 119q-2 35 26.5 100t28.5 55q0 14 -63 65.5t-86 61.5l68 51q70 53 69 93q0 37 -51 85t-90 58 zM1323 664q0 -90 47 -189q53 -111 129 -135q10 -4 51 37q72 72 72 162v567l-18 -8q-127 -55 -204 -175t-77 -259zM1376 752q78 55 86 63q49 43 49 86q0 25 -18 45h-14l-9 -6q16 -12 17 -22q0 -20 -21 -21q-12 0 -17 11.5t-5 19.5q0 10 2 12q29 23 35 23q18 0 32.5 -16.5 t14.5 -35.5q0 -20 -17 -67q0 -16 48 -56q24 -20 51 -36q-100 -100 -109 -111q-47 -59 -47 -106q0 -72 57 -72q23 0 41 22q0 10 -4 11q-2 0 -9 -2t-11 -2q-25 0 -25 24q0 29 33 29q37 0 37 -45t-64 -54q-33 -4 -54 27t-21 68q0 29 20.5 67.5t20.5 40.5q0 23 -39 56 q-31 20 -60 47zM1532 319q182 -92 389 -102v238q-45 -18 -119 -70q-18 -14 -18 -41q0 -35 33 -35q-8 10 -2 39q16 18 28 19q33 0 33 -31q0 -37 -43 -47q-10 -4 -14 0q-53 0 -54 55q0 39 41 70q31 18 74 45l39 24v305h-104v-163q4 -23 28 -23q16 0 47 12q2 -2 -2 -12 q0 -8 2 -10zM1812 815q25 16 113 78l2 332q-20 6 -31 6q-12 0 -84 -43q-4 -276 0 -373zM1927 -4q0 2 96 78q141 111 287 235q14 0 21 -14q-25 -20 -95 -78q103 -4 107 -90q2 -41 -26.5 -67.5t-65.5 -28.5q-31 -2 -53.5 18.5t-24.5 50.5q-2 25 14.5 44.5t36.5 19.5 q45 6 45 -31t-28 -37q-16 0 -39 31q-6 -8 -7 -23q0 -55 58 -53q29 2 50 24.5t19 53.5t-26.5 49.5t-52.5 16.5q-33 -2 -52 -13q-102 -57 -102 -108q0 -16 8 -27l8 -10q4 -6 -8 -6q-2 0 -29.5 10t-31.5 8q-27 -2 -99 -63q-4 2 -10 10zM1954 217l41 4v565l-41 9v-578zM1954 909 q37 29 37 35v244q-25 25 -37 24v-303zM2019 965q111 65 111 100q0 43 -111 106v-206zM2032 225l24 8q150 48 150 152q0 92 -82 131q-14 8 -39 8t-53 -12v-287z" />
<glyph unicode="&#xc7;" horiz-adv-x="1226" d="M8 547q0 55 10 139q14 117 152 254q106 106 205 160q6 2 45 30q-14 31 -45 31q35 0 -51 -16.5t-105 -16.5q-12 0 -54 14.5t-48 22.5q-41 47 -41 86q0 51 31.5 85t76.5 34q68 0 95 -63q6 -14 6 -23q0 -20 -17.5 -42.5t-38.5 -22.5q-63 0 -63 55q0 27 49 53q-2 18 -37 19 q-35 0 -56.5 -26t-21.5 -58q0 -53 43 -82q37 -27 93 -27q82 0 192 82q94 70 154 151q4 2 12 17q2 4 6 10q-2 -72 0 -186q84 43 119 69q25 18 68.5 62.5t48.5 44.5q2 0 8 -6q94 -186 227 -187q104 0 105 95q0 29 -23 49t-49 20q-14 0 -43 -20q8 -2 29 -6q33 -8 32 -45 q0 -18 -15 -33t-30 -15q-59 0 -59 58q0 35 28.5 57.5t61.5 22.5q41 0 71.5 -27.5t28.5 -62.5q-2 -63 -53 -105q-94 -78 -381 -246v-73q152 100 371 251q2 -2 4 -10q-90 -59 -90 -125q0 -12 2 -18l-53 8q-27 0 -86 -35q-4 -2 -50 -28h17q49 0 98 -47.5t47 -96.5 q-2 -53 -35.5 -88t-87.5 -35q-37 0 -67.5 26t-30.5 58q0 90 92 86q39 -2 39 -47q0 -39 -41 -39q-23 0 -26 25q-2 25 10 31q-6 6 -15 6q-41 0 -41 -60q0 -57 82 -67q39 -4 71 27.5t30 74.5q-2 53 -42 90t-91 37q-39 0 -105 -49v-352l285 172l10 -17q-10 -6 -37 -28l-2 -19 q2 0 7 -4t5 -6q33 -16 59.5 -58t26.5 -79q0 -125 -225 -254q-74 -53 -147 -107q-106 -80 -115 -116v-4h2l4 -7l2 -90q45 14 92 15q74 0 93 -58q6 -18 6 -121q0 -51 18 -65q-41 10 -108 10q-61 0 -121 -72q-53 72 -103 72q-37 0 -47 -47l-16 4q2 43 39 75t82 32q49 0 88 -45 l41 8q29 47 28 80q0 29 -28 69l-27 2q-47 4 -94 -24l2 162h12q-27 51 -164 88q-117 31 -163 59q-10 4 -63.5 45t-61.5 41q-20 0 -47 -39q-23 -31 -25 -45v-25q0 -76 78 -75q23 0 42 15t19 38q0 8 -10 25q-2 -2 -16.5 -24t-24.5 -22q-35 0 -35 39t45 39q61 0 62 -57 q0 -33 -25.5 -53.5t-56.5 -20.5q-41 0 -70 30t-29 71q0 72 74 122q-23 23 -71 89q-57 102 -58 225zM158 696q0 -111 45 -202q84 -135 108 -136q12 0 51 30t48 44q24 39 24 107v559h-18q-258 -137 -258 -402zM195 754q78 55 86 63q49 43 49 86q0 23 -21 45h-14l-6 -6 q16 -16 16 -22q0 -18 -20 -21q-12 0 -19.5 10.5t-7.5 18.5q0 10 6 14q23 23 35 23q18 0 32.5 -16.5t14.5 -35.5q0 -20 -18 -67q0 -16 47 -55q37 -31 53 -37q-92 -88 -109 -111q-47 -61 -47 -106q0 -72 58 -72q23 0 41 22q0 10 -4 11q-2 0 -9.5 -2t-11.5 -2q-25 0 -24 24 q0 29 32 29q37 0 37 -45q0 -18 -19.5 -35.5t-43.5 -17.5q-31 0 -51.5 23.5t-20.5 53.5q0 27 18.5 74t18.5 51q0 23 -41 56q-18 16 -57 47zM324 344q33 -29 141 -80q29 -14 97.5 -31.5t94.5 -17.5h33l2 219q-133 -78 -133 -125q0 -39 35 -39q33 0 41 21q-31 -2 -31 24 q0 27 25 27q33 0 33 -35q0 -47 -58 -55q-59 -10 -65 45q-8 80 153 160v340q-35 -23 -90 -58q0 -63 2 -112q4 -16 25 -41q16 -10 45 -4v-13q-88 -59 -324 -209q-8 -4 -26 -16zM600 768l92 59v76l-92 -57v-78zM600 872l92 56v301l-24 -4q-10 2 -68 -35v-318zM694 -4 q0 10 94 76l66 45q129 88 238 172q12 0 18 -15l-98 -73q104 -9 104 -95q0 -43 -30.5 -67.5t-69.5 -24.5q-72 0 -72 74q0 23 16.5 42.5t36.5 19.5q45 0 45 -35q0 -8 -10 -21.5t-20 -13.5q-14 0 -39 33q-6 -8 -6 -25q0 -53 53 -53q29 0 51.5 21.5t22.5 52.5t-23.5 50t-50.5 19 q-33 0 -53 -10q-106 -53 -107 -105q0 -12 6 -24l6 -12q4 -4 -8 -4q-2 0 -28.5 11t-30.5 11q-23 0 -103 -59q-8 0 -8 10zM719 948l37 25v231l-37 17v-273zM721 215h31v723l-31 -16v-707zM778 1184l2 -195q105 41 105 92q0 23 -35 55.5t-72 47.5zM780 215l49 2q31 2 70 24.5 t55.5 47t18.5 69.5q2 53 -34 93.5t-93 40.5q-31 0 -66 -19v-258z" />
<glyph unicode="&#xc8;" horiz-adv-x="1282" d="M4 588q0 317 371 512q23 12 100 51v53q-176 -90 -254 -82q-49 4 -55 6q-18 4 -47 27q-49 37 -49 98q0 49 34.5 86t79.5 37q63 0 92 -59q8 -10 9 -33q0 -20 -17.5 -42.5t-38.5 -22.5q-63 0 -63 55q0 27 49 53q-2 18 -37 19q-33 0 -55.5 -26t-22.5 -58q-2 -109 136 -109 q88 0 225 86q127 80 186 160q18 31 19 31q-2 -68 0 -191q6 -6 62 30t79 56q49 43 70 96q14 -33 53 -84q158 -141 223 -131q84 0 84 76q0 31 -22.5 51.5t-51.5 16.5q16 -20 17 -47q0 -41 -37 -41q-57 0 -58 53q0 37 25 56.5t61 12.5q37 -6 64 -33.5t27 -60.5q0 -55 -72 -127 q-18 -18 -115 -96q-57 -35 -186 -129q51 -2 205 0v74h28v-285h-24q8 59 -21 64q-80 0 -196 -3v-180q33 23 98 72q12 12 20 41q0 23 -24 29q-4 6 -14 2l-7 -9q12 -18 13 -18q0 -16 -29 -27q-25 0 -25 25q0 47 56 49q23 0 38 -16.5t15 -30.5q0 -41 -51 -78l-88 -61 q0 -31 -2 -47q72 37 239 155l10 -10q-6 -12 -30 -39q109 -41 108 -162q0 -72 -61 -133q-20 -20 -135 -108q-39 -23 -131 -90q-51 -37 -140 -125q-18 -16 -65 -66q-8 8 -33 31q-39 37 -215 83t-268 134q-4 4 -8 4q-18 0 -46 -39t-28 -72q0 -72 84 -71q23 0 42 15t19 38 q0 8 -10 25q-2 0 -18.5 -19.5t-26.5 -19.5q-31 0 -31 32q0 41 39 41q68 0 68 -59q0 -33 -30 -56.5t-62 -23.5q-41 0 -72 33t-31 69q0 68 78 127q-25 33 -61 89q-61 139 -62 266zM176 664q0 -90 47 -189q53 -111 129 -135q10 -4 47 33q31 31 45.5 50t25.5 58.5t5 57.5v567 l-18 -8q-127 -55 -204 -175t-77 -259zM229 752q78 55 86 63q49 43 50 86q0 25 -19 45h-14l-8 -6q16 -12 16 -22q0 -20 -21 -21q-12 0 -17 11.5t-5 19.5q0 10 2 12q29 23 35 23q18 0 32.5 -16.5t14.5 -35.5q0 -20 -16 -67q0 -16 47 -56q24 -20 51 -36q-100 -100 -109 -111 q-47 -59 -47 -106q0 -72 58 -72q23 0 41 22q0 10 -5 11q-2 0 -9 -2t-11 -2q-25 0 -25 24q0 29 33 29q37 0 37 -45t-64 -54q-33 -4 -54 27t-21 68q0 29 20.5 67.5t20.5 40.5q0 23 -39 56q-31 20 -60 47zM385 319q182 -92 389 -102v238q-45 -18 -119 -70q-18 -14 -18 -41 q0 -35 33 -35q-8 10 -2 39q16 18 28 19q33 0 33 -31q0 -37 -43 -47q-10 -4 -14 0q-53 0 -54 55q0 39 41 70q12 8 37 23.5t38.5 24.5t37.5 21v305h-104v-163q4 -23 28 -23q16 0 47 12q2 -2 -2 -12q0 -8 2 -10zM449 1589q0 11 4 25q18 66 63 65q23 0 51 -16l336 -186l-4 -15 q-61 12 -184 33q-174 29 -185 29q-82 0 -81 65zM666 815q25 16 112 78l2 332q-20 6 -30 6q-12 0 -84 -43q-4 -276 0 -373zM780 -4q0 2 97 78q141 111 286 235q14 0 21 -14q-25 -20 -94 -78q102 -4 106 -90q2 -41 -26.5 -67.5t-65.5 -28.5q-31 -2 -53.5 18.5t-24.5 50.5 q-2 25 14.5 44.5t36.5 19.5q45 6 45 -31t-28 -37q-16 0 -39 31q-6 -8 -6 -23q0 -55 57 -53q29 2 50.5 24.5t19.5 53.5t-27 49.5t-53 16.5q-33 -2 -52 -13q-102 -57 -102 -108q0 -16 8 -27l8 -10q4 -6 -8 -6q-2 0 -29.5 10t-31.5 8q-27 -2 -98 -63q-4 2 -11 10zM807 217l41 4 v565l-41 9v-578zM807 909q37 29 37 35v244q-25 25 -37 24v-303zM872 965q111 65 111 100q0 43 -111 106v-206zM885 225l24 8q150 48 150 152q0 92 -82 131q-14 8 -39 8t-53 -12v-287z" />
<glyph unicode="&#xc9;" horiz-adv-x="1282" d="M4 588q0 317 371 512q23 12 100 51v53q-176 -90 -254 -82q-49 4 -55 6q-18 4 -47 27q-49 37 -49 98q0 49 34.5 86t79.5 37q63 0 92 -59q8 -10 9 -33q0 -20 -17.5 -42.5t-38.5 -22.5q-63 0 -63 55q0 27 49 53q-2 18 -37 19q-33 0 -55.5 -26t-22.5 -58q-2 -109 136 -109 q88 0 225 86q127 80 186 160q18 31 19 31q-2 -68 0 -191q6 -6 62 30t79 56q49 43 70 96q14 -33 53 -84q158 -141 223 -131q84 0 84 76q0 31 -22.5 51.5t-51.5 16.5q16 -20 17 -47q0 -41 -37 -41q-57 0 -58 53q0 37 25 56.5t61 12.5q37 -6 64 -33.5t27 -60.5q0 -55 -72 -127 q-18 -18 -115 -96q-57 -35 -186 -129q51 -2 205 0v74h28v-285h-24q8 59 -21 64q-80 0 -196 -3v-180q33 23 98 72q12 12 20 41q0 23 -24 29q-4 6 -14 2l-7 -9q12 -18 13 -18q0 -16 -29 -27q-25 0 -25 25q0 47 56 49q23 0 38 -16.5t15 -30.5q0 -41 -51 -78l-88 -61 q0 -31 -2 -47q72 37 239 155l10 -10q-6 -12 -30 -39q109 -41 108 -162q0 -72 -61 -133q-20 -20 -135 -108q-39 -23 -131 -90q-51 -37 -140 -125q-18 -16 -65 -66q-8 8 -33 31q-39 37 -215 83t-268 134q-4 4 -8 4q-18 0 -46 -39t-28 -72q0 -72 84 -71q23 0 42 15t19 38 q0 8 -10 25q-2 0 -18.5 -19.5t-26.5 -19.5q-31 0 -31 32q0 41 39 41q68 0 68 -59q0 -33 -30 -56.5t-62 -23.5q-41 0 -72 33t-31 69q0 68 78 127q-25 33 -61 89q-61 139 -62 266zM176 664q0 -90 47 -189q53 -111 129 -135q10 -4 47 33q31 31 45.5 50t25.5 58.5t5 57.5v567 l-18 -8q-127 -55 -204 -175t-77 -259zM229 752q78 55 86 63q49 43 50 86q0 25 -19 45h-14l-8 -6q16 -12 16 -22q0 -20 -21 -21q-12 0 -17 11.5t-5 19.5q0 10 2 12q29 23 35 23q18 0 32.5 -16.5t14.5 -35.5q0 -20 -16 -67q0 -16 47 -56q24 -20 51 -36q-100 -100 -109 -111 q-47 -59 -47 -106q0 -72 58 -72q23 0 41 22q0 10 -5 11q-2 0 -9 -2t-11 -2q-25 0 -25 24q0 29 33 29q37 0 37 -45t-64 -54q-33 -4 -54 27t-21 68q0 29 20.5 67.5t20.5 40.5q0 23 -39 56q-31 20 -60 47zM385 319q182 -92 389 -102v238q-45 -18 -119 -70q-18 -14 -18 -41 q0 -35 33 -35q-8 10 -2 39q16 18 28 19q33 0 33 -31q0 -37 -43 -47q-10 -4 -14 0q-53 0 -54 55q0 39 41 70q12 8 37 23.5t38.5 24.5t37.5 21v305h-104v-163q4 -23 28 -23q16 0 47 12q2 -2 -2 -12q0 -8 2 -10zM510 1477l6 -15q31 6 92.5 17.5t91.5 15.5q172 29 183 29 q84 0 84 65q0 33 -19.5 61.5t-50.5 28.5q-23 0 -51 -16zM666 815q25 16 112 78l2 332q-20 6 -30 6q-12 0 -84 -43q-4 -276 0 -373zM780 -4q0 2 97 78q141 111 286 235q14 0 21 -14q-25 -20 -94 -78q102 -4 106 -90q2 -41 -26.5 -67.5t-65.5 -28.5q-31 -2 -53.5 18.5 t-24.5 50.5q-2 25 14.5 44.5t36.5 19.5q45 6 45 -31t-28 -37q-16 0 -39 31q-6 -8 -6 -23q0 -55 57 -53q29 2 50.5 24.5t19.5 53.5t-27 49.5t-53 16.5q-33 -2 -52 -13q-102 -57 -102 -108q0 -16 8 -27l8 -10q4 -6 -8 -6q-2 0 -29.5 10t-31.5 8q-27 -2 -98 -63q-4 2 -11 10z M807 217l41 4v565l-41 9v-578zM807 909q37 29 37 35v244q-25 25 -37 24v-303zM872 965q111 65 111 100q0 43 -111 106v-206zM885 225l24 8q150 48 150 152q0 92 -82 131q-14 8 -39 8t-53 -12v-287z" />
<glyph unicode="&#xca;" horiz-adv-x="1282" d="M4 588q0 317 371 512q23 12 100 51v53q-176 -90 -254 -82q-49 4 -55 6q-18 4 -47 27q-49 37 -49 98q0 49 34.5 86t79.5 37q63 0 92 -59q8 -10 9 -33q0 -20 -17.5 -42.5t-38.5 -22.5q-63 0 -63 55q0 27 49 53q-2 18 -37 19q-33 0 -55.5 -26t-22.5 -58q-2 -109 136 -109 q88 0 225 86q127 80 186 160q18 31 19 31q-2 -68 0 -191q6 -6 62 30t79 56q49 43 70 96q14 -33 53 -84q158 -141 223 -131q84 0 84 76q0 31 -22.5 51.5t-51.5 16.5q16 -20 17 -47q0 -41 -37 -41q-57 0 -58 53q0 37 25 56.5t61 12.5q37 -6 64 -33.5t27 -60.5q0 -55 -72 -127 q-18 -18 -115 -96q-57 -35 -186 -129q51 -2 205 0v74h28v-285h-24q8 59 -21 64q-80 0 -196 -3v-180q33 23 98 72q12 12 20 41q0 23 -24 29q-4 6 -14 2l-7 -9q12 -18 13 -18q0 -16 -29 -27q-25 0 -25 25q0 47 56 49q23 0 38 -16.5t15 -30.5q0 -41 -51 -78l-88 -61 q0 -31 -2 -47q72 37 239 155l10 -10q-6 -12 -30 -39q109 -41 108 -162q0 -72 -61 -133q-20 -20 -135 -108q-39 -23 -131 -90q-51 -37 -140 -125q-18 -16 -65 -66q-8 8 -33 31q-39 37 -215 83t-268 134q-4 4 -8 4q-18 0 -46 -39t-28 -72q0 -72 84 -71q23 0 42 15t19 38 q0 8 -10 25q-2 0 -18.5 -19.5t-26.5 -19.5q-31 0 -31 32q0 41 39 41q68 0 68 -59q0 -33 -30 -56.5t-62 -23.5q-41 0 -72 33t-31 69q0 68 78 127q-25 33 -61 89q-61 139 -62 266zM176 664q0 -90 47 -189q53 -111 129 -135q10 -4 47 33q31 31 45.5 50t25.5 58.5t5 57.5v567 l-18 -8q-127 -55 -204 -175t-77 -259zM229 752q78 55 86 63q49 43 50 86q0 25 -19 45h-14l-8 -6q16 -12 16 -22q0 -20 -21 -21q-12 0 -17 11.5t-5 19.5q0 10 2 12q29 23 35 23q18 0 32.5 -16.5t14.5 -35.5q0 -20 -16 -67q0 -16 47 -56q24 -20 51 -36q-100 -100 -109 -111 q-47 -59 -47 -106q0 -72 58 -72q23 0 41 22q0 10 -5 11q-2 0 -9 -2t-11 -2q-25 0 -25 24q0 29 33 29q37 0 37 -45t-64 -54q-33 -4 -54 27t-21 68q0 29 20.5 67.5t20.5 40.5q0 23 -39 56q-31 20 -60 47zM385 319q182 -92 389 -102v238q-45 -18 -119 -70q-18 -14 -18 -41 q0 -35 33 -35q-8 10 -2 39q16 18 28 19q33 0 33 -31q0 -37 -43 -47q-10 -4 -14 0q-53 0 -54 55q0 39 41 70q12 8 37 23.5t38.5 24.5t37.5 21v305h-104v-163q4 -23 28 -23q16 0 47 12q2 -2 -2 -12q0 -8 2 -10zM385 1452l307 231l322 -235l-6 -12l-312 102l-307 -98zM666 815 q25 16 112 78l2 332q-20 6 -30 6q-12 0 -84 -43q-4 -276 0 -373zM780 -4q0 2 97 78q141 111 286 235q14 0 21 -14q-25 -20 -94 -78q102 -4 106 -90q2 -41 -26.5 -67.5t-65.5 -28.5q-31 -2 -53.5 18.5t-24.5 50.5q-2 25 14.5 44.5t36.5 19.5q45 6 45 -31t-28 -37 q-16 0 -39 31q-6 -8 -6 -23q0 -55 57 -53q29 2 50.5 24.5t19.5 53.5t-27 49.5t-53 16.5q-33 -2 -52 -13q-102 -57 -102 -108q0 -16 8 -27l8 -10q4 -6 -8 -6q-2 0 -29.5 10t-31.5 8q-27 -2 -98 -63q-4 2 -11 10zM807 217l41 4v565l-41 9v-578zM807 909q37 29 37 35v244 q-25 25 -37 24v-303zM872 965q111 65 111 100q0 43 -111 106v-206zM885 225l24 8q150 48 150 152q0 92 -82 131q-14 8 -39 8t-53 -12v-287z" />
<glyph unicode="&#xcb;" horiz-adv-x="1282" d="M4 588q0 317 371 512q23 12 100 51v53q-176 -90 -254 -82q-49 4 -55 6q-18 4 -47 27q-49 37 -49 98q0 49 34.5 86t79.5 37q63 0 92 -59q8 -10 9 -33q0 -20 -17.5 -42.5t-38.5 -22.5q-63 0 -63 55q0 27 49 53q-2 18 -37 19q-33 0 -55.5 -26t-22.5 -58q-2 -109 136 -109 q88 0 225 86q127 80 186 160q18 31 19 31q-2 -68 0 -191q6 -6 62 30t79 56q49 43 70 96q14 -33 53 -84q158 -141 223 -131q84 0 84 76q0 31 -22.5 51.5t-51.5 16.5q16 -20 17 -47q0 -41 -37 -41q-57 0 -58 53q0 37 25 56.5t61 12.5q37 -6 64 -33.5t27 -60.5q0 -55 -72 -127 q-18 -18 -115 -96q-57 -35 -186 -129q51 -2 205 0v74h28v-285h-24q8 59 -21 64q-80 0 -196 -3v-180q33 23 98 72q12 12 20 41q0 23 -24 29q-4 6 -14 2l-7 -9q12 -18 13 -18q0 -16 -29 -27q-25 0 -25 25q0 47 56 49q23 0 38 -16.5t15 -30.5q0 -41 -51 -78l-88 -61 q0 -31 -2 -47q72 37 239 155l10 -10q-6 -12 -30 -39q109 -41 108 -162q0 -72 -61 -133q-20 -20 -135 -108q-39 -23 -131 -90q-51 -37 -140 -125q-18 -16 -65 -66q-8 8 -33 31q-39 37 -215 83t-268 134q-4 4 -8 4q-18 0 -46 -39t-28 -72q0 -72 84 -71q23 0 42 15t19 38 q0 8 -10 25q-2 0 -18.5 -19.5t-26.5 -19.5q-31 0 -31 32q0 41 39 41q68 0 68 -59q0 -33 -30 -56.5t-62 -23.5q-41 0 -72 33t-31 69q0 68 78 127q-25 33 -61 89q-61 139 -62 266zM176 664q0 -90 47 -189q53 -111 129 -135q10 -4 47 33q31 31 45.5 50t25.5 58.5t5 57.5v567 l-18 -8q-127 -55 -204 -175t-77 -259zM229 752q78 55 86 63q49 43 50 86q0 25 -19 45h-14l-8 -6q16 -12 16 -22q0 -20 -21 -21q-12 0 -17 11.5t-5 19.5q0 10 2 12q29 23 35 23q18 0 32.5 -16.5t14.5 -35.5q0 -20 -16 -67q0 -16 47 -56q24 -20 51 -36q-100 -100 -109 -111 q-47 -59 -47 -106q0 -72 58 -72q23 0 41 22q0 10 -5 11q-2 0 -9 -2t-11 -2q-25 0 -25 24q0 29 33 29q37 0 37 -45t-64 -54q-33 -4 -54 27t-21 68q0 29 20.5 67.5t20.5 40.5q0 23 -39 56q-31 20 -60 47zM385 319q182 -92 389 -102v238q-45 -18 -119 -70q-18 -14 -18 -41 q0 -35 33 -35q-8 10 -2 39q16 18 28 19q33 0 33 -31q0 -37 -43 -47q-10 -4 -14 0q-53 0 -54 55q0 39 41 70q12 8 37 23.5t38.5 24.5t37.5 21v305h-104v-163q4 -23 28 -23q16 0 47 12q2 -2 -2 -12q0 -8 2 -10zM446 1573q0 37 26 63.5t63 26.5q39 0 64.5 -25.5t25.5 -64.5 q0 -37 -27 -63.5t-63 -26.5q-37 0 -63 26.5t-26 63.5zM666 815q25 16 112 78l2 332q-20 6 -30 6q-12 0 -84 -43q-4 -276 0 -373zM780 -4q0 2 97 78q141 111 286 235q14 0 21 -14q-25 -20 -94 -78q102 -4 106 -90q2 -41 -26.5 -67.5t-65.5 -28.5q-31 -2 -53.5 18.5 t-24.5 50.5q-2 25 14.5 44.5t36.5 19.5q45 6 45 -31t-28 -37q-16 0 -39 31q-6 -8 -6 -23q0 -55 57 -53q29 2 50.5 24.5t19.5 53.5t-27 49.5t-53 16.5q-33 -2 -52 -13q-102 -57 -102 -108q0 -16 8 -27l8 -10q4 -6 -8 -6q-2 0 -29.5 10t-31.5 8q-27 -2 -98 -63q-4 2 -11 10z M807 217l41 4v565l-41 9v-578zM807 909q37 29 37 35v244q-25 25 -37 24v-303zM823 1573q0 37 25.5 63.5t62.5 26.5q39 0 64.5 -25.5t25.5 -64.5q0 -37 -26.5 -63.5t-63.5 -26.5t-62.5 26.5t-25.5 63.5zM872 965q111 65 111 100q0 43 -111 106v-206zM885 225l24 8 q150 48 150 152q0 92 -82 131q-14 8 -39 8t-53 -12v-287z" />
<glyph unicode="&#xcc;" horiz-adv-x="1101" d="M8 90q0 16 18.5 45t32.5 37q127 78 318 190l4 -8l-13 -22q-14 -23 -14 -37q0 -35 105.5 -97.5t146.5 -62.5q100 0 101 156q0 111 -2.5 334t-2.5 333q0 31 -14 46q-8 8 -53 14l-6 8l241 188h-620q-2 -2 -27 -12l-30 -12q-31 -12 -31 -72q0 -96 151 -96q41 0 70 22.5 t29 57.5q0 20 -9 28q-27 -37 -43 -36q-31 0 -30 30q0 37 37 37q61 0 61 -61q0 -53 -76 -109q-45 -33 -137 -100q-76 -59 -76 -137q0 -74 47 -121t121 -47q94 0 94 90q0 41 -18 74q-20 43 -57 43q-72 0 -72 -54l10 -30h2l6 2q0 27 41 26q33 0 33 -51q0 -41 -49 -41 q-25 0 -45.5 28.5t-20.5 59.5q0 37 30 59.5t73 22.5q18 0 46 -22.5t34 -40.5q8 -29 8 -80q0 -37 -27.5 -69t-64.5 -40l-68 -6q63 -78 64 -108q0 -45 -30 -79t-73 -34q-31 0 -55.5 25.5t-24.5 58.5q0 59 68 59q14 0 27 -18v-27q-14 -14 -29 -14q-10 0 -31 26q-12 -8 -12 -24 q0 -59 59 -60q31 0 54.5 23t23.5 53q0 45 -99.5 146.5t-99.5 179.5q0 29 15.5 67.5t32.5 45.5q-113 55 -113 159q0 43 42 107.5t83 85.5q205 100 332 205q27 -57 69 -58h522q-49 -49 -163 -129q-33 -23 -33 -96v-743q0 -57 33 -74q10 -4 84 -17l-4 -14q-39 -14 -111 -53 q-221 -119 -342 -207q-10 -8 -52 -44t-44 -36q-12 0 -31 37q-145 152 -295 152q-88 0 -88 -70q0 -49 49 -59v18q-2 6 -2 16q0 39 49 39q18 0 34.5 -16.5t16.5 -34.5q0 -27 -22.5 -46t-48.5 -19q-33 0 -68 30.5t-35 61.5q-6 6 -6 18zM334 1589q0 11 4 25q18 66 63 65 q23 0 52 -16l335 -186l-4 -15q-61 12 -184 33q-174 29 -184 29q-82 0 -82 65zM406 838q166 102 165 184q0 57 -49 57q-23 0 -22 -16q43 -2 43 -33q0 -37 -23 -37q-53 0 -53 60q0 51 63 51q29 0 47.5 -25.5t18.5 -58.5q0 -27 -29 -80q0 -27 49 -68l52 -43 q-119 -109 -119 -124q0 -25 48 -77.5t75 -64.5q-57 -20 -112.5 -101.5t-55.5 -142.5q0 -100 65 -100q55 0 56 51q0 10 -13 23q-10 -35 -37 -35q-25 0 -24 27q0 43 49 43q45 0 45 -64q0 -72 -80 -71q-43 0 -67 45q-20 37 -21 84q0 63 51 133q-47 74 -120 106q33 18 74.5 64.5 t41.5 76.5q0 55 -118 136zM596 -4v16l405 234h17v-15q-18 -10 -37.5 -22t-28.5 -33q2 -10 2 -16q0 -16 -14 -17q-4 0 -17.5 6.5t-17.5 6.5q-51 0 -63 -23q74 -31 73 -84q0 -25 -19 -44t-44 -19q-43 0 -43 43q0 31 22 30q31 0 31 -18q0 -12 -8 -31l2 -2q45 0 45 43 q0 25 -21.5 43.5t-48.5 18.5q-43 0 -116 -50q-98 -66 -115 -73z" />
<glyph unicode="&#xcd;" horiz-adv-x="1282" d="M8 90q0 16 18.5 45t32.5 37q127 78 318 190l4 -8l-13 -22q-14 -23 -14 -37q0 -35 105.5 -97.5t146.5 -62.5q100 0 101 156v667q0 27 -19 46q-8 8 -53 14l-6 8l241 188h-620q-2 -2 -27 -12l-30 -12q-31 -12 -31 -72q0 -96 151 -96q41 0 70 22.5t29 57.5q0 20 -9 28 q-27 -37 -43 -36q-31 0 -30 30q0 37 37 37q61 0 61 -61q0 -53 -76 -109q-45 -33 -137 -100q-76 -59 -76 -137q0 -74 47 -121t121 -47q94 0 94 90q0 41 -18 74q-20 43 -57 43q-72 0 -72 -54l10 -30h2l6 2q0 27 41 26q33 0 33 -51q0 -41 -49 -41q-25 0 -45.5 28.5t-20.5 59.5 q0 37 30 59.5t73 22.5q18 0 46 -22.5t34 -40.5q8 -29 8 -80q0 -37 -27.5 -69t-64.5 -40l-68 -6q63 -78 64 -108q0 -45 -30 -79t-73 -34q-31 0 -55.5 25.5t-24.5 58.5q0 59 68 59q14 0 27 -18v-27q-14 -14 -29 -14q-10 0 -31 26q-12 -8 -12 -24q0 -59 59 -60q31 0 54.5 23 t23.5 53q0 45 -99.5 146.5t-99.5 179.5q0 29 15.5 67.5t32.5 45.5q-113 55 -113 159q0 43 42 107.5t83 85.5q205 100 332 205q27 -57 69 -58h522q-45 -45 -163 -129q-31 -23 -31 -123l-2 -716q0 -66 33 -78q57 -8 84 -13l-4 -14q-39 -14 -111 -53q-221 -119 -342 -207 q-10 -8 -52 -44t-44 -36q-12 0 -31 37q-145 152 -295 152q-88 0 -88 -70q0 -49 49 -59v18q-2 6 -2 16q0 39 49 39q18 0 34.5 -16.5t16.5 -34.5q0 -27 -22.5 -46t-48.5 -19q-33 0 -68 30.5t-35 61.5q-6 6 -6 18zM406 838q166 102 165 184q0 57 -49 57q-23 0 -22 -16 q43 -2 43 -33q0 -37 -23 -37q-53 0 -53 60q0 51 63 51q29 0 47.5 -25.5t18.5 -58.5q0 -27 -29 -80q0 -27 49 -68l52 -43q-119 -109 -119 -124q0 -25 48 -77.5t75 -64.5q-57 -20 -112.5 -101.5t-55.5 -142.5q0 -100 65 -100q55 0 56 51q0 10 -13 23q-10 -35 -37 -35 q-25 0 -24 27q0 43 49 43q45 0 45 -64q0 -72 -80 -71q-43 0 -67 45q-20 37 -21 84q0 63 51 133q-47 74 -120 106q33 18 74.5 64.5t41.5 76.5q0 55 -118 136zM424 1479l4 -17q61 12 184 33q174 29 185 29q82 0 82 65q-1 9 -5 25q-16 66 -63 65q-20 0 -51 -16zM596 -4v16 l405 234h17v-15q-18 -10 -37.5 -22t-28.5 -33q2 -10 2 -16q0 -16 -14 -17q-4 0 -17.5 6.5t-17.5 6.5q-51 0 -63 -23q74 -31 73 -84q0 -25 -19 -44t-44 -19q-43 0 -43 43q0 31 22 30q31 0 31 -18q0 -12 -8 -31l2 -2q45 0 45 43q0 25 -21.5 43.5t-48.5 18.5q-43 0 -116 -50 q-98 -66 -115 -73z" />
<glyph unicode="&#xce;" horiz-adv-x="1101" d="M8 90q0 16 18.5 45t32.5 37q127 78 318 190l4 -8l-13 -22q-14 -23 -14 -37q0 -35 105.5 -97.5t146.5 -62.5q100 0 101 156q0 111 -2.5 334t-2.5 333q0 31 -14 46q-8 8 -53 14l-6 8l241 188h-620q-2 -2 -27 -12l-30 -12q-31 -12 -31 -72q0 -96 151 -96q41 0 70 22.5 t29 57.5q0 20 -9 28q-27 -37 -43 -36q-31 0 -30 30q0 37 37 37q61 0 61 -61q0 -53 -76 -109q-45 -33 -137 -100q-76 -59 -76 -137q0 -74 47 -121t121 -47q94 0 94 90q0 41 -18 74q-20 43 -57 43q-72 0 -72 -54l10 -30h2l6 2q0 27 41 26q33 0 33 -51q0 -41 -49 -41 q-25 0 -45.5 28.5t-20.5 59.5q0 37 30 59.5t73 22.5q18 0 46 -22.5t34 -40.5q8 -29 8 -80q0 -37 -27.5 -69t-64.5 -40l-68 -6q63 -78 64 -108q0 -45 -30 -79t-73 -34q-31 0 -55.5 25.5t-24.5 58.5q0 59 68 59q14 0 27 -18v-27q-14 -14 -29 -14q-10 0 -31 26q-12 -8 -12 -24 q0 -59 59 -60q31 0 54.5 23t23.5 53q0 45 -99.5 146.5t-99.5 179.5q0 29 15.5 67.5t32.5 45.5q-113 55 -113 159q0 43 42 107.5t83 85.5q205 100 332 205q27 -57 69 -58h522q-49 -49 -163 -129q-33 -23 -33 -96v-743q0 -57 33 -74q10 -4 84 -17l-4 -14q-39 -14 -111 -53 q-221 -119 -342 -207q-10 -8 -52 -44t-44 -36q-12 0 -31 37q-145 152 -295 152q-88 0 -88 -70q0 -49 49 -59v18q-2 6 -2 16q0 39 49 39q18 0 34.5 -16.5t16.5 -34.5q0 -27 -22.5 -46t-48.5 -19q-33 0 -68 30.5t-35 61.5q-6 6 -6 18zM262 1452l307 231l322 -235l-6 -12 l-312 102l-307 -98zM406 838q166 102 165 184q0 57 -49 57q-23 0 -22 -16q43 -2 43 -33q0 -37 -23 -37q-53 0 -53 60q0 51 63 51q29 0 47.5 -25.5t18.5 -58.5q0 -27 -29 -80q0 -27 49 -68l52 -43q-119 -109 -119 -124q0 -25 48 -77.5t75 -64.5q-57 -20 -112.5 -101.5 t-55.5 -142.5q0 -100 65 -100q55 0 56 51q0 10 -13 23q-10 -35 -37 -35q-25 0 -24 27q0 43 49 43q45 0 45 -64q0 -72 -80 -71q-43 0 -67 45q-20 37 -21 84q0 63 51 133q-47 74 -120 106q33 18 74.5 64.5t41.5 76.5q0 55 -118 136zM596 -4v16l405 234h17v-15 q-18 -10 -37.5 -22t-28.5 -33q2 -10 2 -16q0 -16 -14 -17q-4 0 -17.5 6.5t-17.5 6.5q-51 0 -63 -23q74 -31 73 -84q0 -25 -19 -44t-44 -19q-43 0 -43 43q0 31 22 30q31 0 31 -18q0 -12 -8 -31l2 -2q45 0 45 43q0 25 -21.5 43.5t-48.5 18.5q-43 0 -116 -50q-98 -66 -115 -73z " />
<glyph unicode="&#xcf;" horiz-adv-x="1101" d="M8 90q0 16 18.5 45t32.5 37q127 78 318 190l4 -8l-13 -22q-14 -23 -14 -37q0 -35 105.5 -97.5t146.5 -62.5q100 0 101 156q0 111 -2.5 334t-2.5 333q0 31 -14 46q-8 8 -53 14l-6 8l241 188h-620q-2 -2 -27 -12l-30 -12q-31 -12 -31 -72q0 -96 151 -96q41 0 70 22.5 t29 57.5q0 20 -9 28q-27 -37 -43 -36q-31 0 -30 30q0 37 37 37q61 0 61 -61q0 -53 -76 -109q-45 -33 -137 -100q-76 -59 -76 -137q0 -74 47 -121t121 -47q94 0 94 90q0 41 -18 74q-20 43 -57 43q-72 0 -72 -54l10 -30h2l6 2q0 27 41 26q33 0 33 -51q0 -41 -49 -41 q-25 0 -45.5 28.5t-20.5 59.5q0 37 30 59.5t73 22.5q18 0 46 -22.5t34 -40.5q8 -29 8 -80q0 -37 -27.5 -69t-64.5 -40l-68 -6q63 -78 64 -108q0 -45 -30 -79t-73 -34q-31 0 -55.5 25.5t-24.5 58.5q0 59 68 59q14 0 27 -18v-27q-14 -14 -29 -14q-10 0 -31 26q-12 -8 -12 -24 q0 -59 59 -60q31 0 54.5 23t23.5 53q0 45 -99.5 146.5t-99.5 179.5q0 29 15.5 67.5t32.5 45.5q-113 55 -113 159q0 43 42 107.5t83 85.5q205 100 332 205q27 -57 69 -58h522q-49 -49 -163 -129q-33 -23 -33 -96v-743q0 -57 33 -74q10 -4 84 -17l-4 -14q-39 -14 -111 -53 q-221 -119 -342 -207q-10 -8 -52 -44t-44 -36q-12 0 -31 37q-145 152 -295 152q-88 0 -88 -70q0 -49 49 -59v18q-2 6 -2 16q0 39 49 39q18 0 34.5 -16.5t16.5 -34.5q0 -27 -22.5 -46t-48.5 -19q-33 0 -68 30.5t-35 61.5q-6 6 -6 18zM324 1573q0 37 25.5 63.5t62.5 26.5 q39 0 64.5 -25.5t25.5 -64.5q0 -37 -26.5 -63.5t-63.5 -26.5t-62.5 26.5t-25.5 63.5zM406 838q166 102 165 184q0 57 -49 57q-23 0 -22 -16q43 -2 43 -33q0 -37 -23 -37q-53 0 -53 60q0 51 63 51q29 0 47.5 -25.5t18.5 -58.5q0 -27 -29 -80q0 -27 49 -68l52 -43 q-119 -109 -119 -124q0 -25 48 -77.5t75 -64.5q-57 -20 -112.5 -101.5t-55.5 -142.5q0 -100 65 -100q55 0 56 51q0 10 -13 23q-10 -35 -37 -35q-25 0 -24 27q0 43 49 43q45 0 45 -64q0 -72 -80 -71q-43 0 -67 45q-20 37 -21 84q0 63 51 133q-47 74 -120 106q33 18 74.5 64.5 t41.5 76.5q0 55 -118 136zM596 -4v16l405 234h17v-15q-18 -10 -37.5 -22t-28.5 -33q2 -10 2 -16q0 -16 -14 -17q-4 0 -17.5 6.5t-17.5 6.5q-51 0 -63 -23q74 -31 73 -84q0 -25 -19 -44t-44 -19q-43 0 -43 43q0 31 22 30q31 0 31 -18q0 -12 -8 -31l2 -2q45 0 45 43 q0 25 -21.5 43.5t-48.5 18.5q-43 0 -116 -50q-98 -66 -115 -73zM700 1573q0 37 26 63.5t62 26.5q39 0 65 -25.5t26 -64.5q0 -37 -27 -63.5t-64 -26.5t-62.5 26.5t-25.5 63.5z" />
<glyph unicode="&#xd1;" horiz-adv-x="1390" d="M-8 1298q0 127 135 127q39 0 76 -36.5t37 -75.5q0 -14 -23 -66q-43 -20 -67 -20q-27 0 -47.5 19.5t-20.5 45.5q0 59 59 60q37 0 58 -56l4 2q6 18 6 25q0 27 -31 51.5t-59 24.5q-90 0 -96 -94q-4 -57 36.5 -92t104.5 -35q111 0 203 65q29 27 155 141q12 12 39 46v-312 q16 10 203 166q152 127 178 133l12 -16v-4q0 -12 84 -80q242 -197 242 -424q0 -102 -55 -262q-37 -68 -78 -121q-94 -121 -248 -266v-8q119 -41 238 -113q16 4 75 53l13 -6l-234 -217l-117 100q-70 53 -131 80q-2 -14 0 -176h-32v213q-12 -8 -27 -29q0 -49 -2 -92 q-2 -57 0 -92h-31l2 172q-41 -41 -112 -129l-11 -28q-12 -27 -22 -27l-16 26q-33 68 -125 115q-84 45 -164 45q-33 0 -61.5 -25.5t-28.5 -56.5q0 -47 51 -61l4 4q-18 16 -18 41q0 53 53 53q23 0 40 -19.5t17 -43.5q0 -29 -25.5 -47.5t-58.5 -18.5q-88 0 -90 94q6 84 128 167 t135 142.5t9 241.5h-8q-66 -25 -119 -80q-59 -63 -59 -127q0 -86 72 -86q35 0 45 41l2 4v8l-8 5q-12 -6 -19 -7q-37 0 -37 39t39 39q55 0 56 -73q0 -35 -26 -59.5t-60 -22.5q-96 4 -97 106q0 74 47 127q-25 25 -69 64q-4 4 -62 41q141 90 142 129q0 66 -144 124q0 4 46 38 t57 36q70 70 69 119q0 45 -43 41l-12 -6v-4q18 -20 18 -29q0 -29 -24 -29q-35 0 -35 33q0 51 64 51q55 0 55 -69q0 -23 -21 -58q4 -29 65.5 -72.5t61.5 -47.5q0 -8 -33.5 -29t-39.5 -29q-12 -2 -36 -29.5t-24 -41.5q0 -57 125 -121l12 -2q2 43 0 127q-4 98 -2 127 q6 152 -17.5 220t-78.5 58q-41 -8 -86 -8q-182 0 -182 149zM346 287q10 -4 55 -17q10 -2 134 -59q109 -49 118 -47v57l-221 98l23 13l198 -82v905l-94 -76q2 -326 -2 -491q-2 -37 3 -46.5t40 -23.5l18 -8q-18 -23 -147 -117q-117 -86 -125 -106zM393 1493q14 76 92 123 q70 43 154 43q31 0 95.5 -28.5t99.5 -28.5q96 0 174 51q-82 -168 -260 -168q-33 0 -91.5 27.5t-87.5 27.5q-129 0 -176 -47zM682 1163l2 -977l33 33v948zM741 240l11 8q137 111 206 246q14 35 41 120q2 76 -30 131q-47 47 -64 48q-55 0 -77.5 -18.5t-36.5 -72.5 q10 -96 73 -96q66 0 66 62q0 29 -23 47q-4 -41 -33 -41q-31 0 -30 33q0 37 39 36q66 0 65 -79q0 -31 -27.5 -55.5t-58.5 -24.5q-43 0 -70.5 31.5t-25.5 80.5q4 113 129 121q-31 20 -63.5 68.5t-32.5 91.5q0 98 100 98q20 0 41 -22.5t21 -42.5q0 -53 -50 -54h-12 q-16 12 -16 27q0 33 45 25v10q-23 37 -54 29q-47 -12 -47 -54q0 -66 99.5 -169t99.5 -169q0 -121 -90 -243q-27 -37 -178 -197q-2 -2 -13 -10q2 -27 0 -53l13 14q18 14 100 82q225 188 225 487q0 106 -30 193q-61 176 -277 235l-35 4v-927zM967 246q47 51 143 153.5 t127 161.5l18 35l7 -6q-31 -59 -33 -115l12 -47h-35q-37 0 -67 -35l-6 -8l10 -2q102 0 102 -94q0 -31 -23.5 -56.5t-54.5 -25.5q-66 0 -65 53q0 37 35 37q27 0 26 -27q0 -16 -28 -32q0 -12 20 -13q72 0 72 54q0 33 -22.5 58t-53.5 25q-37 0 -90 -49l-80 -73q-10 0 -14 6z " />
<glyph unicode="&#xd2;" horiz-adv-x="1347" d="M16 612q0 154 101 308q94 145 233 225q-8 0 -47 -7.5t-51 -7.5q-61 0 -104.5 39t-43.5 95q0 51 34 86.5t85 35.5q39 0 72 -28.5t33 -65.5q0 -33 -21.5 -59.5t-50.5 -26.5q-27 0 -46.5 18.5t-19.5 45.5l43 47q41 0 54 -49l8 14q0 27 -20.5 48.5t-47.5 21.5 q-37 0 -64.5 -27t-27.5 -63q0 -37 36 -67t75 -30q195 0 393 248v-266h4q72 68 270 262q31 -78 127 -168q117 -111 146 -151q69 -98 69 -252q0 -227 -139 -396q-51 -61 -274 -243q-166 -135 -193 -242l-20 -8q-27 41 -201 110q-190 76 -231 111q-57 -55 -58 -117 q0 -25 22.5 -43t49.5 -18q37 0 51 43q4 12 -4 19t-14 3q-16 -25 -37 -26q-31 6 -31 35q10 47 62 36q45 -14 47 -67q0 -25 -22.5 -47.5t-55.5 -22.5q-37 0 -64.5 25.5t-27.5 62.5q0 76 63 133q-162 156 -162 426zM158 684q0 -102 52 -198.5t140 -149.5q104 72 105 108l-2 592 q0 115 -70 115l-14 -10l-2 -39q-74 -27 -141.5 -137.5t-67.5 -192.5v-88zM209 770q137 94 137 158q0 53 -35 53q-20 -6 -18 -6q18 -31 18 -33q0 -27 -26 -27q-8 0 -17.5 15.5t-9.5 23.5q0 49 51 50q25 0 42.5 -19.5t17.5 -44.5q0 -51 -33 -86q2 -14 41 -47t39 -45 q-47 -41 -97 -88q-49 -57 -49 -119q0 -23 17.5 -42t40.5 -19q57 0 57 32l-10 11q-12 -6 -23 -7q-31 0 -30 33q0 31 38 31q51 0 52 -57q0 -66 -76 -66q-90 0 -90 100q0 29 16.5 66t34.5 45zM379 309q35 -29 147 -57q106 -27 162 -27h39q-2 86 0 260q-53 -43 -72 -61 q-20 -25 -20 -64q0 -12 2 -26q-23 20 -49 20q-37 0 -96 -53l-19 8l254 213v619h-4q-88 0 -88 -90l-2 -455q0 -27 33 -38l32 -11zM436 1589q0 11 4 25q18 66 64 65q23 0 51 -16l336 -186l-4 -15q-61 12 -185 33q-174 29 -184 29q-82 0 -82 65zM711 -27q57 96 219 230 q190 158 239 213l13 -13q-66 -66 -66 -106v-12q2 -4 2 -11q0 -8 -6 -18q-4 0 -20.5 4t-22.5 4q-18 0 -44 -16.5t-28 -30.5q51 -2 86 -37t35 -86q0 -39 -24.5 -68.5t-61.5 -29.5q-31 0 -56.5 22.5t-25.5 51.5q0 72 60 71q37 0 37 -43q0 -31 -31 -30q-2 0 -12.5 10t-18.5 8 l-8 -14q10 -47 51 -47q59 0 59 67q0 37 -28.5 67.5t-65.5 30.5q-41 0 -75.5 -35.5t-34.5 -76.5q0 -8 4 -25q-6 -4 -17 0q-6 2 -16 4q-41 0 -139 -92zM758 227l30 2v904l-30 4v-910zM821 240q139 37 205 192q51 121 51 289q0 129 -68.5 233.5t-183.5 169.5v-549q86 72 103 89 q55 57 55 116q0 82 -61 82q-55 0 -56 -53l6 -27l13 -10q4 43 33 43l28 -27q0 -47 -41 -47q-25 0 -43 22.5t-18 49.5q0 31 24.5 51.5t55.5 20.5q86 0 86 -115q0 -66 -103 -164q41 2 67.5 -26.5t26.5 -71.5q0 -31 -23.5 -53.5t-51.5 -22.5q-18 0 -37 12.5t-19 28.5q0 47 35 47 q33 0 33 -28l-14 -29l12 -2q37 0 37 47q0 29 -20.5 50.5t-47.5 21.5q-31 0 -57.5 -25t-26.5 -55v-260z" />
<glyph unicode="&#xd3;" horiz-adv-x="1282" d="M16 612q0 154 101 308q94 145 233 225q-8 0 -47 -7.5t-51 -7.5q-61 0 -104.5 39t-43.5 95q0 51 34 86.5t85 35.5q39 0 72 -28.5t33 -65.5q0 -33 -21.5 -59.5t-50.5 -26.5q-27 0 -46.5 18.5t-19.5 45.5l43 47q41 0 54 -49l8 14q0 27 -20.5 48.5t-47.5 21.5 q-37 0 -64.5 -27t-27.5 -63q0 -37 36 -67t75 -30q195 0 393 248v-266h4q72 68 270 262q31 -78 127 -168q117 -111 146 -151q69 -98 69 -252q0 -227 -139 -396q-51 -61 -274 -243q-166 -135 -193 -242l-20 -8q-27 41 -201 110q-190 76 -231 111q-57 -55 -58 -117 q0 -25 22.5 -43t49.5 -18q37 0 51 43q4 12 -4 19t-14 3q-16 -25 -37 -26q-31 6 -31 35q10 47 62 36q45 -14 47 -67q0 -25 -22.5 -47.5t-55.5 -22.5q-37 0 -64.5 25.5t-27.5 62.5q0 76 63 133q-162 156 -162 426zM158 684q0 -102 52 -198.5t140 -149.5q104 72 105 108l-2 592 q0 115 -70 115l-14 -10l-2 -39q-74 -27 -141.5 -137.5t-67.5 -192.5v-88zM209 770q137 94 137 158q0 53 -35 53q-20 -6 -18 -6q18 -31 18 -33q0 -27 -26 -27q-8 0 -17.5 15.5t-9.5 23.5q0 49 51 50q25 0 42.5 -19.5t17.5 -44.5q0 -51 -33 -86q2 -14 41 -47t39 -45 q-47 -41 -97 -88q-49 -57 -49 -119q0 -23 17.5 -42t40.5 -19q57 0 57 32l-10 11q-12 -6 -23 -7q-31 0 -30 33q0 31 38 31q51 0 52 -57q0 -66 -76 -66q-90 0 -90 100q0 29 16.5 66t34.5 45zM379 309q35 -29 147 -57q106 -27 162 -27h39q-2 86 0 260q-53 -43 -72 -61 q-20 -25 -20 -64q0 -12 2 -26q-23 20 -49 20q-37 0 -96 -53l-19 8l254 213v619h-4q-88 0 -88 -90l-2 -455q0 -27 33 -38l32 -11zM510 1477l6 -15q31 6 92.5 17.5t91.5 15.5q172 29 183 29q84 0 84 65q0 33 -19.5 61.5t-50.5 28.5q-23 0 -51 -16zM711 -27q57 96 219 230 q190 158 239 213l13 -13q-66 -66 -66 -106v-12q2 -4 2 -11q0 -8 -6 -18q-4 0 -20.5 4t-22.5 4q-18 0 -44 -16.5t-28 -30.5q51 -2 86 -37t35 -86q0 -39 -24.5 -68.5t-61.5 -29.5q-31 0 -56.5 22.5t-25.5 51.5q0 72 60 71q37 0 37 -43q0 -31 -31 -30q-2 0 -12.5 10t-18.5 8 l-8 -14q10 -47 51 -47q59 0 59 67q0 37 -28.5 67.5t-65.5 30.5q-41 0 -75.5 -35.5t-34.5 -76.5q0 -8 4 -25q-6 -4 -17 0q-6 2 -16 4q-41 0 -139 -92zM758 227l30 2v904l-30 4v-910zM821 240q139 37 205 192q51 121 51 289q0 129 -68.5 233.5t-183.5 169.5v-549q86 72 103 89 q55 57 55 116q0 82 -61 82q-55 0 -56 -53l6 -27l13 -10q4 43 33 43l28 -27q0 -47 -41 -47q-25 0 -43 22.5t-18 49.5q0 31 24.5 51.5t55.5 20.5q86 0 86 -115q0 -66 -103 -164q41 2 67.5 -26.5t26.5 -71.5q0 -31 -23.5 -53.5t-51.5 -22.5q-18 0 -37 12.5t-19 28.5q0 47 35 47 q33 0 33 -28l-14 -29l12 -2q37 0 37 47q0 29 -20.5 50.5t-47.5 21.5q-31 0 -57.5 -25t-26.5 -55v-260z" />
<glyph unicode="&#xd4;" horiz-adv-x="1347" d="M16 612q0 154 101 308q94 145 233 225q-8 0 -47 -7.5t-51 -7.5q-61 0 -104.5 39t-43.5 95q0 51 34 86.5t85 35.5q39 0 72 -28.5t33 -65.5q0 -33 -21.5 -59.5t-50.5 -26.5q-27 0 -46.5 18.5t-19.5 45.5l43 47q41 0 54 -49l8 14q0 27 -20.5 48.5t-47.5 21.5 q-37 0 -64.5 -27t-27.5 -63q0 -37 36 -67t75 -30q195 0 393 248v-266h4q72 68 270 262q31 -78 127 -168q117 -111 146 -151q69 -98 69 -252q0 -227 -139 -396q-51 -61 -274 -243q-166 -135 -193 -242l-20 -8q-27 41 -201 110q-190 76 -231 111q-57 -55 -58 -117 q0 -25 22.5 -43t49.5 -18q37 0 51 43q4 12 -4 19t-14 3q-16 -25 -37 -26q-31 6 -31 35q10 47 62 36q45 -14 47 -67q0 -25 -22.5 -47.5t-55.5 -22.5q-37 0 -64.5 25.5t-27.5 62.5q0 76 63 133q-162 156 -162 426zM158 684q0 -102 52 -198.5t140 -149.5q104 72 105 108l-2 592 q0 115 -70 115l-14 -10l-2 -39q-74 -27 -141.5 -137.5t-67.5 -192.5v-88zM209 770q137 94 137 158q0 53 -35 53q-20 -6 -18 -6q18 -31 18 -33q0 -27 -26 -27q-8 0 -17.5 15.5t-9.5 23.5q0 49 51 50q25 0 42.5 -19.5t17.5 -44.5q0 -51 -33 -86q2 -14 41 -47t39 -45 q-47 -41 -97 -88q-49 -57 -49 -119q0 -23 17.5 -42t40.5 -19q57 0 57 32l-10 11q-12 -6 -23 -7q-31 0 -30 33q0 31 38 31q51 0 52 -57q0 -66 -76 -66q-90 0 -90 100q0 29 16.5 66t34.5 45zM365 1452l307 231l321 -235l-6 -12l-311 102l-307 -98zM379 309q35 -29 147 -57 q106 -27 162 -27h39q-2 86 0 260q-53 -43 -72 -61q-20 -25 -20 -64q0 -12 2 -26q-23 20 -49 20q-37 0 -96 -53l-19 8l254 213v619h-4q-88 0 -88 -90l-2 -455q0 -27 33 -38l32 -11zM711 -27q57 96 219 230q190 158 239 213l13 -13q-66 -66 -66 -106v-12q2 -4 2 -11 q0 -8 -6 -18q-4 0 -20.5 4t-22.5 4q-18 0 -44 -16.5t-28 -30.5q51 -2 86 -37t35 -86q0 -39 -24.5 -68.5t-61.5 -29.5q-31 0 -56.5 22.5t-25.5 51.5q0 72 60 71q37 0 37 -43q0 -31 -31 -30q-2 0 -12.5 10t-18.5 8l-8 -14q10 -47 51 -47q59 0 59 67q0 37 -28.5 67.5 t-65.5 30.5q-41 0 -75.5 -35.5t-34.5 -76.5q0 -8 4 -25q-6 -4 -17 0q-6 2 -16 4q-41 0 -139 -92zM758 227l30 2v904l-30 4v-910zM821 240q139 37 205 192q51 121 51 289q0 129 -68.5 233.5t-183.5 169.5v-549q86 72 103 89q55 57 55 116q0 82 -61 82q-55 0 -56 -53l6 -27 l13 -10q4 43 33 43l28 -27q0 -47 -41 -47q-25 0 -43 22.5t-18 49.5q0 31 24.5 51.5t55.5 20.5q86 0 86 -115q0 -66 -103 -164q41 2 67.5 -26.5t26.5 -71.5q0 -31 -23.5 -53.5t-51.5 -22.5q-18 0 -37 12.5t-19 28.5q0 47 35 47q33 0 33 -28l-14 -29l12 -2q37 0 37 47 q0 29 -20.5 50.5t-47.5 21.5q-31 0 -57.5 -25t-26.5 -55v-260z" />
<glyph unicode="&#xd5;" horiz-adv-x="1390" d="M16 612q0 154 101 308q94 145 233 225q-8 0 -47 -7.5t-51 -7.5q-61 0 -104.5 39t-43.5 95q0 51 34 86.5t85 35.5q39 0 72 -28.5t33 -65.5q0 -33 -21.5 -59.5t-50.5 -26.5q-27 0 -46.5 18.5t-19.5 45.5l43 47q41 0 54 -49l8 14q0 27 -20.5 48.5t-47.5 21.5 q-37 0 -64.5 -27t-27.5 -63q0 -37 36 -67t75 -30q195 0 393 248v-266h4q72 68 270 262q31 -78 127 -168q117 -111 146 -151q69 -98 69 -252q0 -227 -139 -396q-51 -61 -274 -243q-166 -135 -193 -242l-20 -8q-27 41 -201 110q-190 76 -231 111q-57 -55 -58 -117 q0 -25 22.5 -43t49.5 -18q37 0 51 43q4 12 -4 19t-14 3q-16 -25 -37 -26q-31 6 -31 35q10 47 62 36q45 -14 47 -67q0 -25 -22.5 -47.5t-55.5 -22.5q-37 0 -64.5 25.5t-27.5 62.5q0 76 63 133q-162 156 -162 426zM158 684q0 -102 52 -198.5t140 -149.5q104 72 105 108l-2 592 q0 115 -70 115l-14 -10l-2 -39q-74 -27 -141.5 -137.5t-67.5 -192.5v-88zM209 770q137 94 137 158q0 53 -35 53q-20 -6 -18 -6q18 -31 18 -33q0 -27 -26 -27q-8 0 -17.5 15.5t-9.5 23.5q0 49 51 50q25 0 42.5 -19.5t17.5 -44.5q0 -51 -33 -86q2 -14 41 -47t39 -45 q-47 -41 -97 -88q-49 -57 -49 -119q0 -23 17.5 -42t40.5 -19q57 0 57 32l-10 11q-12 -6 -23 -7q-31 0 -30 33q0 31 38 31q51 0 52 -57q0 -66 -76 -66q-90 0 -90 100q0 29 16.5 66t34.5 45zM373 1493q14 76 92 123q70 43 153 43q31 0 95.5 -28.5t99.5 -28.5q96 0 174 51 q-82 -168 -260 -168q-33 0 -91 27.5t-87 27.5q-129 0 -176 -47zM379 309q35 -29 147 -57q106 -27 162 -27h39q-2 86 0 260q-53 -43 -72 -61q-20 -25 -20 -64q0 -12 2 -26q-23 20 -49 20q-37 0 -96 -53l-19 8l254 213v619h-4q-88 0 -88 -90l-2 -455q0 -27 33 -38l32 -11z M711 -27q57 96 219 230q190 158 239 213l13 -13q-66 -66 -66 -106v-12q2 -4 2 -11q0 -8 -6 -18q-4 0 -20.5 4t-22.5 4q-18 0 -44 -16.5t-28 -30.5q51 -2 86 -37t35 -86q0 -39 -24.5 -68.5t-61.5 -29.5q-31 0 -56.5 22.5t-25.5 51.5q0 72 60 71q37 0 37 -43q0 -31 -31 -30 q-2 0 -12.5 10t-18.5 8l-8 -14q10 -47 51 -47q59 0 59 67q0 37 -28.5 67.5t-65.5 30.5q-41 0 -75.5 -35.5t-34.5 -76.5q0 -8 4 -25q-6 -4 -17 0q-6 2 -16 4q-41 0 -139 -92zM758 227l30 2v904l-30 4v-910zM821 240q139 37 205 192q51 121 51 289q0 129 -68.5 233.5 t-183.5 169.5v-549q86 72 103 89q55 57 55 116q0 82 -61 82q-55 0 -56 -53l6 -27l13 -10q4 43 33 43l28 -27q0 -47 -41 -47q-25 0 -43 22.5t-18 49.5q0 31 24.5 51.5t55.5 20.5q86 0 86 -115q0 -66 -103 -164q41 2 67.5 -26.5t26.5 -71.5q0 -31 -23.5 -53.5t-51.5 -22.5 q-18 0 -37 12.5t-19 28.5q0 47 35 47q33 0 33 -28l-14 -29l12 -2q37 0 37 47q0 29 -20.5 50.5t-47.5 21.5q-31 0 -57.5 -25t-26.5 -55v-260z" />
<glyph unicode="&#xd6;" horiz-adv-x="1347" d="M16 612q0 154 101 308q94 145 233 225q-8 0 -47 -7.5t-51 -7.5q-61 0 -104.5 39t-43.5 95q0 51 34 86.5t85 35.5q39 0 72 -28.5t33 -65.5q0 -33 -21.5 -59.5t-50.5 -26.5q-27 0 -46.5 18.5t-19.5 45.5l43 47q41 0 54 -49l8 14q0 27 -20.5 48.5t-47.5 21.5 q-37 0 -64.5 -27t-27.5 -63q0 -37 36 -67t75 -30q195 0 393 248v-266h4q72 68 270 262q31 -78 127 -168q117 -111 146 -151q69 -98 69 -252q0 -227 -139 -396q-51 -61 -274 -243q-166 -135 -193 -242l-20 -8q-27 41 -201 110q-190 76 -231 111q-57 -55 -58 -117 q0 -25 22.5 -43t49.5 -18q37 0 51 43q4 12 -4 19t-14 3q-16 -25 -37 -26q-31 6 -31 35q10 47 62 36q45 -14 47 -67q0 -25 -22.5 -47.5t-55.5 -22.5q-37 0 -64.5 25.5t-27.5 62.5q0 76 63 133q-162 156 -162 426zM158 684q0 -102 52 -198.5t140 -149.5q104 72 105 108l-2 592 q0 115 -70 115l-14 -10l-2 -39q-74 -27 -141.5 -137.5t-67.5 -192.5v-88zM209 770q137 94 137 158q0 53 -35 53q-20 -6 -18 -6q18 -31 18 -33q0 -27 -26 -27q-8 0 -17.5 15.5t-9.5 23.5q0 49 51 50q25 0 42.5 -19.5t17.5 -44.5q0 -51 -33 -86q2 -14 41 -47t39 -45 q-47 -41 -97 -88q-49 -57 -49 -119q0 -23 17.5 -42t40.5 -19q57 0 57 32l-10 11q-12 -6 -23 -7q-31 0 -30 33q0 31 38 31q51 0 52 -57q0 -66 -76 -66q-90 0 -90 100q0 29 16.5 66t34.5 45zM379 309q35 -29 147 -57q106 -27 162 -27h39q-2 86 0 260q-53 -43 -72 -61 q-20 -25 -20 -64q0 -12 2 -26q-23 20 -49 20q-37 0 -96 -53l-19 8l254 213v619h-4q-88 0 -88 -90l-2 -455q0 -27 33 -38l32 -11zM406 1552q0 37 25.5 63.5t62.5 26.5q39 0 64.5 -25.5t25.5 -64.5q0 -37 -27 -63.5t-63 -26.5q-37 0 -62.5 26.5t-25.5 63.5zM711 -27 q57 96 219 230q190 158 239 213l13 -13q-66 -66 -66 -106v-12q2 -4 2 -11q0 -8 -6 -18q-4 0 -20.5 4t-22.5 4q-18 0 -44 -16.5t-28 -30.5q51 -2 86 -37t35 -86q0 -39 -24.5 -68.5t-61.5 -29.5q-31 0 -56.5 22.5t-25.5 51.5q0 72 60 71q37 0 37 -43q0 -31 -31 -30 q-2 0 -12.5 10t-18.5 8l-8 -14q10 -47 51 -47q59 0 59 67q0 37 -28.5 67.5t-65.5 30.5q-41 0 -75.5 -35.5t-34.5 -76.5q0 -8 4 -25q-6 -4 -17 0q-6 2 -16 4q-41 0 -139 -92zM758 227l30 2v904l-30 4v-910zM782 1552q0 37 26 63.5t62 26.5q39 0 65 -25.5t26 -64.5 q0 -37 -27 -63.5t-64 -26.5t-62.5 26.5t-25.5 63.5zM821 240q139 37 205 192q51 121 51 289q0 129 -68.5 233.5t-183.5 169.5v-549q86 72 103 89q55 57 55 116q0 82 -61 82q-55 0 -56 -53l6 -27l13 -10q4 43 33 43l28 -27q0 -47 -41 -47q-25 0 -43 22.5t-18 49.5 q0 31 24.5 51.5t55.5 20.5q86 0 86 -115q0 -66 -103 -164q41 2 67.5 -26.5t26.5 -71.5q0 -31 -23.5 -53.5t-51.5 -22.5q-18 0 -37 12.5t-19 28.5q0 47 35 47q33 0 33 -28l-14 -29l12 -2q37 0 37 47q0 29 -20.5 50.5t-47.5 21.5q-31 0 -57.5 -25t-26.5 -55v-260z" />
<glyph unicode="&#xd8;" horiz-adv-x="1341" d="M16 612q-6 152 97 308q98 145 237 225q-8 0 -47 -7.5t-51 -7.5q-61 0 -104.5 39t-43.5 95q0 51 34 86.5t85 35.5q39 0 72 -28.5t33 -65.5q0 -33 -21.5 -59.5t-50.5 -26.5q-27 0 -46.5 18.5t-19.5 45.5l43 47q41 0 54 -49l8 14q0 27 -20.5 48.5t-47.5 21.5 q-37 0 -64.5 -27t-27.5 -63q0 -37 36 -67t75 -30q195 0 393 248v-266h4q72 68 270 262q27 -74 109 -158l127 174h74l-158 -217q92 -88 129 -155q59 -106 59 -242q0 -225 -139 -389q-55 -63 -274 -232q-164 -125 -191 -233l-20 -8q-37 51 -146 98q-92 41 -200 88l-150 -207 h-74l172 238q-201 139 -215 446zM158 684q0 -102 52 -198.5t140 -149.5q3 -2 99 127l4 573q0 115 -70 115l-14 -10l-2 -39q-74 -27 -141.5 -137.5t-67.5 -192.5v-88zM209 772q78 55 86 64q49 43 49 86q0 25 -18 45h-15l-8 -6q16 -12 16 -23q0 -20 -20 -20q-12 0 -17.5 11 t-5.5 19q0 10 3 13q29 23 34 22q18 0 32.5 -16.5t14.5 -34.5q0 -20 -16 -68q0 -16 47 -55q24 -21 51 -37q-100 -100 -108 -110q-47 -59 -47 -107q0 -72 57 -72q23 0 41 23q0 10 -4 10q-2 0 -9 -2t-12 -2q-25 0 -24 25q0 29 33 28q37 0 37 -45t-64 -53q-33 -4 -54.5 26.5 t-21.5 67.5q0 29 20.5 68t20.5 41q0 23 -39 55q-31 20 -59 47zM391 303l64 76q-2 -57 -2 -86q0 -27 2 -29q6 0 -64 39zM633 227q6 -2 55 -2h39q-8 174 -4 514l-90 -123v-389zM633 717l90 125q2 84 4 299h-4q-88 0 -88 -90zM711 -27q57 96 219 230q190 158 239 213l13 -13 q-66 -66 -66 -106v-12q2 -4 2 -11q0 -8 -6 -18q-4 0 -20.5 4t-22.5 4q-18 0 -44 -16.5t-28 -30.5q51 -2 86 -37t35 -86q0 -39 -24.5 -68.5t-61.5 -29.5q-31 0 -56.5 22.5t-25.5 51.5q0 72 60 71q37 0 37 -43q0 -31 -31 -30q-2 0 -12.5 10t-18.5 8l-8 -14q10 -47 51 -47 q59 0 59 67q0 37 -28.5 67.5t-65.5 30.5q-41 0 -75.5 -35.5t-34.5 -76.5q0 -8 4 -25q-6 -4 -17 0q-6 2 -16 4q-41 0 -139 -92zM758 227l30 2v600l-30 -43v-559zM758 887l30 43v203l-30 4v-250zM823 236q258 123 271 491q6 151 -154 311l-115 -157q0 -238 -2 -336 q-2 -139 0 -309zM825 981l70 96q-33 25 -70 47v-143zM858 377q0 86 15.5 134t66.5 112l43 86q6 53 6 65q0 61 -37 62q-37 0 -47 -11.5t-16 -54.5l-29 6q16 96 78 96q8 0 20 -4q63 -20 64 -125q0 10 -4 -55l-96 -133q-45 -63 -45 -178q0 -6 -11 -10q-2 12 -4 18q8 2 34 53 t34 58q18 10 41 28l12 -12q-4 -4 -45 -33q-4 -2 -31.5 -57t-42.5 -55q-2 0 0 8q6 4 60 26l-62 -16q0 -8 -4 -8z" />
<glyph unicode="&#xd9;" horiz-adv-x="1396" d="M14 1051q0 76 172 196q82 55 244 166q27 -45 85 -83t69 -56q31 -53 30 -168q0 -18 2 -162q0 -188 2 -352q-2 -23 -2 -41q0 -104 72 -107l-217 -170q166 -35 242 -79l4 18q0 90 -156 104l17 15q49 0 90 -23q33 -25 49 -35l-2 1078l28 2v-1170l39 -12v1180h27v-1092 q66 41 127 128t61 157q0 111 -84 110q-31 0 -51 -23.5t-16 -51.5q2 -27 19.5 -50.5t33.5 -23.5q14 0 34.5 14.5t22.5 28.5l-12 10l-16 -12l-31 28l31 29q14 -2 28.5 -18.5t14.5 -32.5q0 -27 -20.5 -48.5t-47.5 -21.5q-31 0 -55.5 30t-24.5 62q0 43 25.5 72t62.5 29 q25 0 45 -14l-66 105q-67 105 -67 198q0 43 28 75.5t69 32.5q31 0 54 -25.5t23 -56.5q0 -29 -53 -51l-41 37l23 29q31 -4 35 -39l10 28q-29 53 -60 54q-61 0 -61 -103q0 -57 85 -190t85 -211q0 -92 -62.5 -183.5t-148.5 -142.5v-57q94 -23 78 -23q63 0 107 55.5t44 120.5 v766q0 61 -98 80q63 33 152 119q102 98 145 127v-1128q0 -109 49 -117q53 -8 94 33l17 -15q-35 -41 -119 -114.5t-121 -116.5q-145 182 -194 182q-33 0 -144 -80l-145 -104q-31 61 -140.5 120.5t-181.5 59.5q-43 0 -78 -23q-41 -25 -41 -65q0 -25 20.5 -46.5t45.5 -21.5 q57 0 59 37l-6 6l-24 -6l-45 37q4 41 47 41q61 0 61 -72q0 -29 -28.5 -49t-61.5 -20q-37 0 -68.5 30.5t-31.5 69.5q0 51 82 102q117 74 153 234q27 113 15 311q-20 299 -21 307q0 231 -174 232q-37 0 -73 -30t-36 -64q0 -106 105 -107q20 0 31 2l-207 -155l-13 16l19 33 q-68 47 -68 125zM152 817q68 23 124 106t56 154q0 84 -66 84q-25 0 -35 -28l15 2q16 0 33 -23q0 -37 -33 -37q-43 0 -43 45q0 25 20.5 43.5t44.5 18.5q84 0 84 -111q0 -37 -26 -90l-25 -49q0 -31 121 -121q-127 -86 -127 -147q0 -47 129 -132q-156 -119 -166 -204 q-8 -80 41 -80q61 0 61 31l-2 16q-35 -8 -34 -8q-29 0 -29 24q0 37 37 37q18 0 36.5 -19.5t18.5 -37.5q0 -66 -88 -66q-57 0 -55 84q2 53 22 103q0 25 -54 71.5t-54 51.5q123 61 123 127q0 47 -50 88zM498 1589q0 11 4 25q18 66 63 65q23 0 51 -16l336 -186l-4 -15 q-61 12 -184 33q-174 29 -184 29q-82 0 -82 65z" />
<glyph unicode="&#xda;" horiz-adv-x="1396" d="M14 1051q0 76 172 196q82 55 244 166q27 -45 85 -83t69 -56q31 -53 30 -168q0 -18 2 -162q0 -188 2 -352q-2 -23 -2 -41q0 -104 72 -107l-217 -170q166 -35 242 -79l4 18q0 90 -156 104l17 15q49 0 90 -23q33 -25 49 -35l-2 1078l28 2v-1170l39 -12v1180h27v-1092 q66 41 127 128t61 157q0 111 -84 110q-31 0 -51 -23.5t-16 -51.5q2 -27 19.5 -50.5t33.5 -23.5q14 0 34.5 14.5t22.5 28.5l-12 10l-16 -12l-31 28l31 29q14 -2 28.5 -18.5t14.5 -32.5q0 -27 -20.5 -48.5t-47.5 -21.5q-31 0 -55.5 30t-24.5 62q0 43 25.5 72t62.5 29 q25 0 45 -14l-66 105q-67 105 -67 198q0 43 28 75.5t69 32.5q31 0 54 -25.5t23 -56.5q0 -29 -53 -51l-41 37l23 29q31 -4 35 -39l10 28q-29 53 -60 54q-61 0 -61 -103q0 -57 85 -190t85 -211q0 -92 -62.5 -183.5t-148.5 -142.5v-57q94 -23 78 -23q63 0 107 55.5t44 120.5 v766q0 61 -98 80q63 33 152 119q102 98 145 127v-1128q0 -109 49 -117q53 -8 94 33l17 -15q-35 -41 -119 -114.5t-121 -116.5q-145 182 -194 182q-33 0 -144 -80l-145 -104q-31 61 -140.5 120.5t-181.5 59.5q-43 0 -78 -23q-41 -25 -41 -65q0 -25 20.5 -46.5t45.5 -21.5 q57 0 59 37l-6 6l-24 -6l-45 37q4 41 47 41q61 0 61 -72q0 -29 -28.5 -49t-61.5 -20q-37 0 -68.5 30.5t-31.5 69.5q0 51 82 102q117 74 153 234q27 113 15 311q-20 299 -21 307q0 231 -174 232q-37 0 -73 -30t-36 -64q0 -106 105 -107q20 0 31 2l-207 -155l-13 16l19 33 q-68 47 -68 125zM152 817q68 23 124 106t56 154q0 84 -66 84q-25 0 -35 -28l15 2q16 0 33 -23q0 -37 -33 -37q-43 0 -43 45q0 25 20.5 43.5t44.5 18.5q84 0 84 -111q0 -37 -26 -90l-25 -49q0 -31 121 -121q-127 -86 -127 -147q0 -47 129 -132q-156 -119 -166 -204 q-8 -80 41 -80q61 0 61 31l-2 16q-35 -8 -34 -8q-29 0 -29 24q0 37 37 37q18 0 36.5 -19.5t18.5 -37.5q0 -66 -88 -66q-57 0 -55 84q2 53 22 103q0 25 -54 71.5t-54 51.5q123 61 123 127q0 47 -50 88zM551 1477l6 -15q31 6 92.5 17.5t91.5 15.5q172 29 183 29q84 0 84 65 q0 33 -19.5 61.5t-50.5 28.5q-23 0 -51 -16z" />
<glyph unicode="&#xdb;" horiz-adv-x="1396" d="M14 1051q0 76 172 196q82 55 244 166q27 -45 85 -83t69 -56q31 -53 30 -168q0 -18 2 -162q0 -188 2 -352q-2 -23 -2 -41q0 -104 72 -107l-217 -170q166 -35 242 -79l4 18q0 90 -156 104l17 15q49 0 90 -23q33 -25 49 -35l-2 1078l28 2v-1170l39 -12v1180h27v-1092 q66 41 127 128t61 157q0 111 -84 110q-31 0 -51 -23.5t-16 -51.5q2 -27 19.5 -50.5t33.5 -23.5q14 0 34.5 14.5t22.5 28.5l-12 10l-16 -12l-31 28l31 29q14 -2 28.5 -18.5t14.5 -32.5q0 -27 -20.5 -48.5t-47.5 -21.5q-31 0 -55.5 30t-24.5 62q0 43 25.5 72t62.5 29 q25 0 45 -14l-66 105q-67 105 -67 198q0 43 28 75.5t69 32.5q31 0 54 -25.5t23 -56.5q0 -29 -53 -51l-41 37l23 29q31 -4 35 -39l10 28q-29 53 -60 54q-61 0 -61 -103q0 -57 85 -190t85 -211q0 -92 -62.5 -183.5t-148.5 -142.5v-57q94 -23 78 -23q63 0 107 55.5t44 120.5 v766q0 61 -98 80q63 33 152 119q102 98 145 127v-1128q0 -109 49 -117q53 -8 94 33l17 -15q-35 -41 -119 -114.5t-121 -116.5q-145 182 -194 182q-33 0 -144 -80l-145 -104q-31 61 -140.5 120.5t-181.5 59.5q-43 0 -78 -23q-41 -25 -41 -65q0 -25 20.5 -46.5t45.5 -21.5 q57 0 59 37l-6 6l-24 -6l-45 37q4 41 47 41q61 0 61 -72q0 -29 -28.5 -49t-61.5 -20q-37 0 -68.5 30.5t-31.5 69.5q0 51 82 102q117 74 153 234q27 113 15 311q-20 299 -21 307q0 231 -174 232q-37 0 -73 -30t-36 -64q0 -106 105 -107q20 0 31 2l-207 -155l-13 16l19 33 q-68 47 -68 125zM152 817q68 23 124 106t56 154q0 84 -66 84q-25 0 -35 -28l15 2q16 0 33 -23q0 -37 -33 -37q-43 0 -43 45q0 25 20.5 43.5t44.5 18.5q84 0 84 -111q0 -37 -26 -90l-25 -49q0 -31 121 -121q-127 -86 -127 -147q0 -47 129 -132q-156 -119 -166 -204 q-8 -80 41 -80q61 0 61 31l-2 16q-35 -8 -34 -8q-29 0 -29 24q0 37 37 37q18 0 36.5 -19.5t18.5 -37.5q0 -66 -88 -66q-57 0 -55 84q2 53 22 103q0 25 -54 71.5t-54 51.5q123 61 123 127q0 47 -50 88zM446 1452l308 231l321 -235l-6 -12l-311 102l-307 -98z" />
<glyph unicode="&#xdc;" horiz-adv-x="1396" d="M14 1051q0 76 172 196q82 55 244 166q27 -45 85 -83t69 -56q31 -53 30 -168v-514q-6 -51 9 -92q18 -51 65 -56l-217 -170q166 -35 242 -79l4 18q0 90 -156 104l17 15q49 0 90 -23q33 -25 49 -35l-2 1078l28 2v-1170l39 -12v1180h27v-1092q66 41 127 128t61 157 q0 111 -84 110q-31 0 -51 -23.5t-16 -51.5q2 -27 19.5 -50.5t33.5 -23.5q14 0 34.5 14.5t22.5 28.5l-12 10l-16 -12l-31 28l31 29q14 -2 28.5 -18.5t14.5 -32.5q0 -27 -20.5 -48.5t-47.5 -21.5q-31 0 -55.5 30t-24.5 62q0 43 25.5 72t62.5 29q25 0 45 -14l-66 105 q-67 105 -67 198q0 43 28 75.5t69 32.5q31 0 54 -25.5t23 -56.5q0 -29 -53 -51l-41 37l23 29q31 -4 35 -39l10 28q-29 53 -60 54q-61 0 -61 -103q0 -57 85 -190t85 -211q0 -92 -62.5 -183.5t-148.5 -142.5v-57q94 -23 78 -23q63 0 107 55.5t44 120.5v766q0 61 -98 80 q63 33 152 119q102 98 145 127v-1128q0 -109 49 -117q53 -8 94 33l17 -15q-35 -41 -119 -114.5t-121 -116.5q-145 182 -194 182q-33 0 -144 -80l-145 -104q-31 61 -140.5 120.5t-181.5 59.5q-43 0 -78 -23q-41 -25 -41 -65q0 -25 20.5 -46.5t45.5 -21.5q57 0 59 37l-6 6 l-24 -6l-45 37q4 41 47 41q61 0 61 -72q0 -29 -28.5 -49t-61.5 -20q-37 0 -68.5 30.5t-31.5 69.5q0 51 82 102q117 74 153 234q27 113 15 311q-20 299 -21 307q0 231 -174 232q-37 0 -73 -30t-36 -64q0 -106 105 -107q20 0 31 2l-207 -155l-13 16l19 33q-68 47 -68 125z M152 817q68 23 124 106t56 154q0 84 -66 84q-25 0 -35 -28l15 2q16 0 33 -23q0 -37 -33 -37q-43 0 -43 45q0 25 20.5 43.5t44.5 18.5q84 0 84 -111q0 -37 -26 -90l-25 -49q0 -31 121 -121q-127 -86 -127 -147q0 -47 129 -132q-156 -119 -166 -204q-8 -80 41 -80q61 0 61 31 l-2 16q-35 -8 -34 -8q-29 0 -29 24q0 37 37 37q18 0 36.5 -19.5t18.5 -37.5q0 -66 -88 -66q-57 0 -55 84q2 53 22 103q0 25 -54 71.5t-54 51.5q123 61 123 127q0 47 -50 88zM467 1552q0 37 25.5 63.5t62.5 26.5q39 0 64.5 -25.5t25.5 -64.5q0 -37 -26.5 -63.5t-63.5 -26.5 t-62.5 26.5t-25.5 63.5zM864 1552q0 37 25.5 63.5t62.5 26.5q39 0 64.5 -25.5t25.5 -64.5q0 -37 -26.5 -63.5t-63.5 -26.5t-62.5 26.5t-25.5 63.5z" />
<glyph unicode="&#xdd;" horiz-adv-x="1359" d="M2 1288q0 45 35 84t82 39t80.5 -27.5t33.5 -72.5q0 -82 -81 -82q-25 0 -44.5 19.5t-19.5 43.5q0 18 15.5 33.5t29.5 15.5q18 0 33.5 -17t13.5 -36q-2 -25 -4 -22q33 -2 33 47q0 27 -22.5 49t-49.5 22q-106 0 -106 -98q0 -51 43 -81.5t96 -30.5q66 0 158 38q51 20 84 48 q127 100 143 143q0 14 0 -72q-2 -102 -2 -244q-2 -338 -2 -419q0 -53 2 -62q8 -27 43 -41q27 -10 29 -14q-10 -8 -121 -84q-141 -96 -164 -117q70 -16 192.5 -92t147.5 -104q-2 14 0 102q-63 41 -231 139q2 8 10 8q29 4 219 -122q2 227 2 1071l27 4v-1221l36 31l-2 1190h33 v-1037q84 37 135.5 107t51.5 139q0 139 -80 140q-51 0 -64 -70q-8 -45 37 -60q18 -6 35 17q-8 2 -19 4q-16 6 -16 20q0 25 25 25q34 0 34 -33q0 -18 -17 -33.5t-36 -15.5q-27 0 -44 24.5t-15 59.5q4 84 80 84q10 0 22 -4q-63 96 -65 98q-35 59 -35 105q0 109 102 108 q23 0 45.5 -23.5t24.5 -43.5q6 -82 -57 -82q-39 0 -39 33q0 31 24 30q20 0 21 -20q0 -10 -11 -21q6 -6 11 -6q35 0 34 57q0 43 -55 50q-78 8 -78 -78q0 -47 82 -162t82 -190q0 -84 -65.5 -167t-149.5 -120v-107l236 162v746q0 119 -70 118q-14 0 -46 -19.5t-34 -19.5 q-10 0 -10 23l237 217q4 0 20.5 -28.5t20.5 -32.5q61 -66 111 -90q25 -10 70 -35q-27 -4 -63 -18.5t-36 -102.5l-2 -701q0 -70 17 -135q35 -137 116 -145l-22 -14q-172 -117 -309 -220q-55 -41 -138 -110q-94 -80 -165 -158q-76 70 -183 125q-121 61 -209 61 q-51 0 -83.5 -26.5t-32.5 -67.5q0 -59 61 -59q14 0 31 10q-37 27 -37 37q0 47 49 47q55 0 55 -53q0 -25 -33.5 -45.5t-60.5 -20.5q-94 0 -94 86q0 82 186 170q90 61 168 131q-10 16 -35 50q-41 49 -133 94t-151 43q-37 -2 -68 -32t-31 -67q0 -63 60 -63q14 0 27 25l-21 16 q-20 16 -20 29q0 39 45 39q49 0 49 -52q0 -33 -25.5 -56.5t-58.5 -23.5q-88 0 -84 95q2 70 102 129q164 96 180 211q8 59 9 94v512q-14 104 -72 104q-14 0 -63.5 -7t-65.5 -7q-45 0 -92 22q-76 35 -74 117zM80 915v5q47 16 90 51q51 43 51 84v28q-2 12 -26 17 q-4 -2 -8.5 -7.5t-8.5 -7.5q2 -4 8.5 -5t6.5 -5q0 -25 -29 -24q-10 0 -18.5 12t-6.5 18q10 41 54 41q18 0 32.5 -17.5t14.5 -37.5q0 -6 -4 -31q-2 -14 0 -22q6 -23 61 -58l55 -34q0 39 -63.5 -32t-63.5 -89q0 -51 119 -115l2 -4q-51 -23 -112.5 -96.5t-61.5 -122.5 q0 -80 68 -74q27 2 41 39l-5 23q-14 -6 -24 -9q-27 0 -27 31q0 27 31 27q16 2 31.5 -11.5t15.5 -33.5q0 -88 -67 -90q-82 -4 -82 94q0 47 49 121q-4 37 -41 69.5t-76 44.5q-4 4 0 4q41 10 76 37q45 31 45 66q0 25 -51.5 69.5t-75.5 44.5zM489 1477l7 -15q31 6 92 17.5 t92 15.5q172 29 182 29q84 0 84 65q0 33 -19 61.5t-50 28.5q-23 0 -52 -16zM500 -47l182 -84v213zM707 96v-237l34 -23v289zM762 -47v-125l65 -41q289 209 289 217q-14 16 -47 59q-59 82 -59 232q-88 -61 -246 -166v-74q25 41 49 56q18 10 41 12q115 16 115 -94 q0 -90 -82 -90q-25 0 -47.5 20.5t-22.5 44.5q0 12 13.5 27.5t25.5 15.5q31 0 31 -31q0 -12 -19 -22q-6 -2 -22 -6q6 -33 45 -33q59 0 59 78q0 25 -22.5 48t-48.5 23q-117 0 -117 -151z" />
<glyph unicode="&#xdf;" horiz-adv-x="948" d="M4 973q74 -2 113 -2q37 0 39 2v112q0 -23 -9 84q-6 25 -53 25h-78v37q2 -2 23 -2q119 -2 199 35q141 66 256 180q14 14 65 -51l51 -72q10 6 80 65q16 -2 19 -6v-18q-164 -129 -232 -275q-25 25 -24 25q10 20 34 78l-96 113q-2 2 -29 -17q-14 -10 -30 -24l-2 -293 q-4 4 133 4q2 0 2 -4q135 45 170 45q-2 0 68.5 -65.5t119.5 -65.5q14 0 48 13l34 13l4 -22q-84 -43 -92 -51q-25 -25 -24 -95q0 -158 -23 -180q-86 -47 -158 -84q6 -6 54 -6q92 0 110 -37q10 -23 10 -119v-120q0 -33 82 -52l4 -18q-123 -8 -239 -105q-125 -102 -125 -221 q0 -72 50 -127t122 -55q29 0 56.5 20.5t27.5 45.5v6q-2 2 -2 6q-8 14 -60 14q-33 0 -61.5 23.5t-28.5 54.5q0 102 121 102q70 0 121 -131q-33 -172 -182 -172q-92 0 -147.5 65.5t-55.5 160.5q4 45 15.5 82.5t54.5 100t55 93.5q16 41 16 156q0 135 -12 162q-20 41 -111 40 q-43 0 -73 -2l2 29q141 0 180 68q20 35 20 155q0 45 -6 68q-2 10 -52 43t-62 33h-31l-133 -2q0 -205 -31 -611.5t-31 -611.5q-2 -2 -20 -2q-20 0 -23 2q2 35 2 111q0 172 -39 550q-37 367 -28 570q-4 4 -156 -2z" />
<glyph unicode="&#xe0;" d="M-2 158q29 14 55.5 30.5t30.5 53.5v80q0 100 -11.5 118.5t-47.5 40.5v27q70 -39 147 -39q80 0 169 43t144 104q0 49 2 86q-55 23 -129 70q-94 61 -118 76q-98 -45 -101 -100q-2 -31 26 -53.5t64 -22.5q33 0 84 24l11 -4l-5 -16q-106 -74 -190 -152l-16 4l10 29 q-96 55 -96 113q0 72 143 174q2 2 211 129q211 -164 377 -201q-106 -70 -107 -102v-461q0 -49 41 -49q55 0 88 49l13 -23q-41 -29 -125 -92t-109 -114l-74 104q-41 41 -120 39q-141 -4 -197 -135q-20 49 -70.5 99t-99.5 71zM203 1155q0 13 6 25q18 41 39 41q14 0 43 -19 l272 -176l-2 -12q-276 92 -307 92q-51 0 -51 49zM250 375q-4 -27 2 -135q4 -84 102 -84q72 0 102.5 24t30.5 92l-2 289q-70 -63 -168 -106q-61 -27 -67 -80z" />
<glyph unicode="&#xe1;" d="M-2 158q29 14 55.5 30.5t30.5 53.5v80q0 100 -11.5 118.5t-47.5 40.5v27q70 -39 147 -39q80 0 169 43t144 104q0 49 2 86q-55 23 -129 70q-94 61 -118 76q-98 -45 -101 -100q-2 -31 26 -53.5t64 -22.5q33 0 84 24l11 -4l-5 -16q-106 -74 -190 -152l-16 4l10 29 q-96 55 -96 113q0 72 143 174q2 2 211 129q211 -164 377 -201q-106 -70 -107 -102v-461q0 -49 41 -49q55 0 88 49l13 -23q-41 -29 -125 -92t-109 -114l-74 104q-41 41 -120 39q-141 -4 -197 -135q-20 49 -70.5 99t-99.5 71zM193 1026l4 -12q276 92 307 92q51 0 51 49 q0 13 -6 25q-18 41 -39 41q-14 0 -43 -19zM250 375q-4 -27 2 -135q4 -84 102 -84q72 0 102.5 24t30.5 92l-2 289q-70 -63 -168 -106q-61 -27 -67 -80z" />
<glyph unicode="&#xe2;" d="M33 158q51 25 59 30q27 18 27 54v80q0 104 -10.5 120.5t-47.5 38.5v27q70 -39 146 -39t169 44t146 103v86q-47 20 -127 70q-53 35 -119 76q-98 -41 -100 -100q-2 -31 25.5 -53.5t64.5 -22.5q27 0 84 24l10 -4l-6 -16q-100 -70 -188 -152l-16 4l8 29q-94 57 -95 113 q0 72 144 174q27 18 209 129q211 -164 379 -201q-43 -29 -72 -45q-35 -29 -35 -57v-461q0 -49 39 -49q55 0 88 49l14 -23q-96 -68 -124 -90q-88 -68 -109 -116l-74 104q-45 41 -123 39q-139 -4 -194 -135q-57 123 -172 170zM168 1026l190 176q31 29 54 17q18 0 39 -19 l192 -178l-4 -12q-16 6 -123 53q-94 41 -105.5 41t-13.5 2h-2q-12 0 -110 -45q-80 -37 -113 -47zM287 240q2 -84 104 -84q72 0 101.5 25t29.5 91v289q-68 -61 -168 -106q-61 -29 -67 -80q-4 -33 0 -135z" />
<glyph unicode="&#xe3;" d="M-2 158q29 14 55.5 30.5t30.5 53.5v80q0 100 -11.5 118.5t-47.5 40.5v27q70 -39 147 -39q80 0 169 43t144 104q0 49 2 86q-55 23 -129 70q-94 61 -118 76q-98 -45 -101 -100q-2 -31 26 -53.5t64 -22.5q33 0 84 24l11 -4l-5 -16q-106 -74 -190 -152l-16 4l10 29 q-96 55 -96 113q0 72 143 174q2 2 211 129q211 -164 377 -201q-106 -70 -107 -102v-461q0 -49 41 -49q55 0 88 49l13 -23q-41 -29 -125 -92t-109 -114l-74 104q-41 41 -120 39q-141 -4 -197 -135q-20 49 -70.5 99t-99.5 71zM127 1059q12 59 69.5 96t127.5 37q25 0 76 -23.5 t79 -23.5q23 0 72 14.5t67 26.5q-66 -133 -208 -133q-27 0 -74 21.5t-68 21.5q-104 0 -141 -37zM250 375q-4 -27 2 -135q4 -84 102 -84q72 0 102.5 24t30.5 92l-2 289q-70 -63 -168 -106q-61 -27 -67 -80z" />
<glyph unicode="&#xe4;" d="M-2 158q29 14 55.5 30.5t30.5 53.5v80q0 100 -11.5 118.5t-47.5 40.5v27q70 -39 147 -39q80 0 169 43t144 104q0 49 2 86q-55 23 -129 70q-94 61 -118 76q-98 -45 -101 -100q-2 -31 26 -53.5t64 -22.5q33 0 84 24l11 -4l-5 -16q-106 -74 -190 -152l-16 4l10 29 q-96 55 -96 113q0 72 143 174q2 2 211 129q211 -164 377 -201q-106 -70 -107 -102v-461q0 -49 41 -49q55 0 88 49l13 -23q-41 -29 -125 -92t-109 -114l-74 104q-41 41 -120 39q-141 -4 -197 -135q-20 49 -70.5 99t-99.5 71zM156 1102q0 33 22.5 55.5t54.5 22.5 q33 0 55.5 -22.5t22.5 -55.5t-22.5 -55.5t-55.5 -22.5t-55 23.5t-22 54.5zM250 375q-4 -27 2 -135q4 -84 102 -84q72 0 102.5 24t30.5 92l-2 289q-70 -63 -168 -106q-61 -27 -67 -80zM440 1102q0 33 22.5 55.5t55.5 22.5t55.5 -22.5t22.5 -55.5t-22.5 -55.5t-55.5 -22.5 t-55.5 23.5t-22.5 54.5z" />
<glyph unicode="&#xe5;" d="M-2 158q29 14 55.5 30.5t30.5 53.5v80q0 100 -11.5 118.5t-47.5 40.5v27q70 -39 147 -39q80 0 169 43t144 104q0 49 2 86q-55 23 -129 70q-94 61 -118 76q-98 -45 -101 -100q-2 -31 26 -53.5t64 -22.5q33 0 84 24l11 -4l-5 -16q-106 -74 -190 -152l-16 4l10 29 q-96 55 -96 113q0 72 143 174q2 2 211 129q211 -164 377 -201q-106 -70 -107 -102v-461q0 -49 41 -49q55 0 88 49l13 -23q-41 -29 -125 -92t-109 -114l-74 104q-41 41 -120 39q-141 -4 -197 -135q-20 49 -70.5 99t-99.5 71zM250 375q-4 -27 2 -135q4 -84 102 -84 q72 0 102.5 24t30.5 92l-2 289q-70 -63 -168 -106q-61 -27 -67 -80zM250 1210q0 59 43 104.5t102 45.5t101.5 -43t42.5 -103q0 -57 -43 -100t-101 -43q-55 0 -100 44t-45 95zM299 1214q0 -41 27.5 -68.5t68.5 -27.5t69 28t28 68q0 43 -28 71t-69 28t-68.5 -28t-27.5 -71z " />
<glyph unicode="&#xe6;" horiz-adv-x="1058" d="M-2 158q29 14 55.5 30.5t30.5 53.5v80q0 100 -11.5 118.5t-47.5 40.5v27q70 -39 147 -39q76 0 167 43t142 100v93q-47 20 -125 69q-92 59 -116 74q-98 -45 -101 -100q-2 -31 26 -53.5t64 -22.5q33 0 84 24l11 -4l-5 -16q-106 -74 -190 -152l-16 4l10 29q-96 55 -96 113 q0 72 143 174q2 2 211 129q94 -84 98 -86q59 -47 111 -64q8 8 26 17q100 43 226 118q66 -129 182 -335q-61 -43 -373 -267v-65v-35q-2 -18 -2 -20l166 -123l105 96l18 -19l-227 -219q-68 76 -95 99q-52 41 -120 49q-37 4 -123 2q-150 -4 -205 -133q-20 49 -70.5 99t-99.5 71 zM250 375q-4 -33 2 -135q2 -47 33 -56q16 -8 77 -8h80q29 4 39 41q0 12 2 23v24l-2 295q-68 -61 -164 -104q-61 -29 -67 -80zM653 395l201 148l-156 299l-45 -23v-424z" />
<glyph unicode="&#xe7;" horiz-adv-x="673" d="M-6 168q33 14 59 22q47 23 47 97l-2 407q0 37 -43 62q-33 18 -51 30q135 33 229 62q55 16 125 55l107 60q51 -90 156 -177v-8q-80 -41 -97 -112q-2 -2 -6 -152h-33l4 82q4 72 -49 152q-59 88 -135 79q-37 -4 -37 -14v-586q72 -31 152 -121q53 41 141 123l25 -14 l-283 -242l2 -82q47 12 78 13q66 0 78 -49q6 -16 6 -103q0 -45 16 -55q-25 8 -94 8q-53 0 -102 -61q-43 61 -86 61q-31 0 -41 -41l-15 4q16 90 105 90q41 0 74 -37l34 7q25 39 25 67q0 25 -25 60l-22 2q-35 4 -80 -21l2 168q-158 121 -264 164z" />
<glyph unicode="&#xe8;" horiz-adv-x="704" d="M2 778q186 25 451 180q65 -128 182 -335q-145 -98 -375 -269l2 -129l164 -112l104 96l19 -19l-227 -219l-310 189q82 43 82 104l-2 420q0 31 -28.5 59.5t-61.5 34.5zM141 1155q0 13 6 25q18 41 39 41q14 0 43 -19l273 -176l-2 -12q-276 92 -307 92q-51 0 -52 49zM264 395 l201 148l-156 299l-45 -23v-424z" />
<glyph unicode="&#xe9;" horiz-adv-x="704" d="M2 778q186 25 451 180q65 -128 182 -335q-145 -98 -375 -269l2 -129l164 -112l104 96l19 -19l-227 -219l-310 189q82 43 82 104l-2 420q0 31 -28.5 59.5t-61.5 34.5zM131 1026l4 -12q276 92 307 92q51 0 52 49q-1 13 -7 25q-18 41 -38 41q-14 0 -43 -19zM264 395l201 148 l-156 299l-45 -23v-424z" />
<glyph unicode="&#xea;" horiz-adv-x="704" d="M2 778q186 25 451 180q65 -128 182 -335q-145 -98 -375 -269l2 -129l164 -112l104 96l19 -19l-227 -219l-310 189q82 43 82 104l-2 420q0 31 -28.5 59.5t-61.5 34.5zM66 1026l190 176q31 29 53 17q18 0 39 -19l193 -178l-4 -12q-16 6 -123 53q-94 41 -105.5 41t-13.5 2 h-2q-12 0 -111 -45q-80 -37 -112 -47zM264 395l201 148l-156 299l-45 -23v-424z" />
<glyph unicode="&#xeb;" horiz-adv-x="704" d="M2 778q186 25 451 180q65 -128 182 -335q-145 -98 -375 -269l2 -129l164 -112l104 96l19 -19l-227 -219l-310 189q82 43 82 104l-2 420q0 31 -28.5 59.5t-61.5 34.5zM94 1102q0 33 22.5 55.5t55.5 22.5t55.5 -22.5t22.5 -55.5t-22.5 -55.5t-55.5 -22.5t-55.5 23.5 t-22.5 54.5zM264 395l201 148l-156 299l-45 -23v-424zM379 1102q0 33 22.5 55.5t55.5 22.5t55.5 -22.5t22.5 -55.5t-23 -55.5t-55 -22.5q-33 0 -55.5 23.5t-22.5 54.5z" />
<glyph unicode="&#xec;" horiz-adv-x="475" d="M6 752l205 213l174 -179q-53 2 -70.5 -17t-17.5 -75v-411q0 -55 23.5 -95.5t60.5 -40.5q23 0 51 17l8 -10q-33 -27 -192 -185q-80 90 -98 109q-37 37 -111 86q72 -2 98 74v440q0 100 -41 100q-29 0 -80 -45zM18 1155q1 13 7 25q18 41 38 41q14 0 43 -19l273 -176l-2 -12 q-276 92 -307 92q-51 0 -52 49z" />
<glyph unicode="&#xed;" horiz-adv-x="475" d="M6 752l205 213l174 -179q-53 2 -70.5 -17t-17.5 -75v-411q0 -55 23.5 -95.5t60.5 -40.5q23 0 51 17l8 -10q-33 -27 -192 -185q-80 90 -98 109q-37 37 -111 86q72 -2 98 74v440q0 100 -41 100q-29 0 -80 -45zM8 1026l4 -12q276 92 307 92q51 0 52 49q0 13 -6 25 q-18 41 -39 41q-14 0 -43 -19z" />
<glyph unicode="&#xee;" horiz-adv-x="475" d="M-37 1026l191 176q31 29 53 17q18 0 39 -19l192 -178l-4 -12q-16 6 -123 53q-94 41 -105 41t-13 2h-3q-12 0 -110 -45q-80 -37 -113 -47zM6 752l205 213l174 -179q-53 2 -70.5 -17t-17.5 -75v-411q0 -55 23.5 -95.5t60.5 -40.5q23 0 51 17l8 -10q-33 -27 -192 -185 q-80 90 -98 109q-37 37 -111 86q72 -2 98 74v440q0 100 -41 100q-29 0 -80 -45z" />
<glyph unicode="&#xef;" horiz-adv-x="475" d="M-8 1102q0 33 22.5 55.5t55.5 22.5t55 -22.5t22 -55.5t-22.5 -55.5t-54.5 -22.5q-33 0 -55.5 23.5t-22.5 54.5zM6 752l205 213l174 -179q-53 2 -70.5 -17t-17.5 -75v-411q0 -55 23.5 -95.5t60.5 -40.5q23 0 51 17l8 -10q-33 -27 -192 -185q-80 90 -98 109q-37 37 -111 86 q72 -2 98 74v440q0 100 -41 100q-29 0 -80 -45zM276 1102q0 33 23 55.5t55 22.5q33 0 55.5 -22.5t22.5 -55.5t-22.5 -55.5t-55.5 -22.5t-55.5 23.5t-22.5 54.5z" />
<glyph unicode="&#xf1;" horiz-adv-x="849" d="M-12 795q35 27 123 100q18 16 79 84q12 -20 35 -51q78 -102 183 -103q43 0 94 15q74 20 114 135q14 -47 71.5 -94t109.5 -62q2 -14 -58 -28q-27 -12 -37 -86v-486q0 -96 56 -96q18 0 69 37q5 -3 9 -15l-207 -174q-70 86 -180 154q51 18 59 25q29 23 29 81v482 q0 90 -127 90q-135 0 -136 -92v-490q0 -70 80 -92v-8q-70 -39 -73 -41q-37 -25 -60 -62l-31 -49q-8 4 -22 31q-33 57 -162 143q14 -2 43 -2q57 2 57 107v502q0 61 -45 61q-10 0 -34.5 -19.5t-26.5 -19.5q-6 0 -12 23zM168 1059q12 59 69.5 96t127.5 37q25 0 76 -23.5 t79 -23.5q23 0 72 14.5t67 26.5q-66 -133 -208 -133q-27 0 -74 21.5t-68 21.5q-104 0 -141 -37z" />
<glyph unicode="&#xf2;" horiz-adv-x="831" d="M8 166q96 43 96 104v305q0 100 2 87q-4 53 -28 59q-10 6 -66 29q-2 2 -2 10l101 10q70 6 167 69.5t140 123.5h8q53 -37 121 -84q45 -29 153 -82q35 -6 86 -19l-2 -12q-8 -2 -27.5 -9t-29.5 -12q-41 -23 -47 -65v-451q0 -57 76 -96l-6 -20q-70 37 -121 37 q-193 0 -281 -168q-55 37 -166 108q-74 47 -174 76zM244 1155q0 13 6 25q18 41 39 41q14 0 43 -19l272 -176l-2 -12q-276 92 -307 92q-51 0 -51 49zM274 221q158 -90 166 -90t78 37v539q-12 10 -86 57t-90 51q-66 6 -66 -49z" />
<glyph unicode="&#xf3;" horiz-adv-x="831" d="M8 166q96 43 96 104v305q0 100 2 87q-4 53 -28 59q-10 6 -66 29q-2 2 -2 10l101 10q70 6 167 69.5t140 123.5h8q53 -37 121 -84q45 -29 153 -82q35 -6 86 -19l-2 -12q-8 -2 -27.5 -9t-29.5 -12q-41 -23 -47 -65v-451q0 -57 76 -96l-6 -20q-70 37 -121 37 q-193 0 -281 -168q-55 37 -166 108q-74 47 -174 76zM233 1026l5 -12q276 92 307 92q51 0 51 49q0 13 -6 25q-18 41 -39 41q-14 0 -43 -19zM274 221q158 -90 166 -90t78 37v539q-12 10 -86 57t-90 51q-66 6 -66 -49z" />
<glyph unicode="&#xf4;" horiz-adv-x="831" d="M8 166q96 43 96 104v305q0 100 2 87q-4 53 -28 59q-10 6 -66 29q-2 2 -2 10l101 10q70 6 167 69.5t140 123.5h8q53 -37 121 -84q45 -29 153 -82q35 -6 86 -19l-2 -12q-8 -2 -27.5 -9t-29.5 -12q-41 -23 -47 -65v-451q0 -57 76 -96l-6 -20q-70 37 -121 37 q-193 0 -281 -168q-55 37 -166 108q-74 47 -174 76zM147 1026l191 176q31 29 53 17q18 0 39 -19l193 -178l-5 -12q-16 6 -122 53q-94 41 -105.5 41t-13.5 2h-2q-12 0 -111 -45q-80 -37 -112 -47zM274 221q158 -90 166 -90t78 37v539q-12 10 -86 57t-90 51q-66 6 -66 -49z " />
<glyph unicode="&#xf5;" horiz-adv-x="831" d="M8 166q96 43 96 104v305q0 100 2 87q-4 53 -28 59q-10 6 -66 29q-2 2 -2 10l101 10q70 6 167 69.5t140 123.5h8q53 -37 121 -84q45 -29 153 -82q35 -6 86 -19l-2 -12q-8 -2 -27.5 -9t-29.5 -12q-41 -23 -47 -65v-451q0 -57 76 -96l-6 -20q-70 37 -121 37 q-193 0 -281 -168q-55 37 -166 108q-74 47 -174 76zM168 1059q12 59 69.5 96t127.5 37q25 0 76 -23.5t79 -23.5q23 0 72 14.5t67 26.5q-66 -133 -208 -133q-27 0 -74 21.5t-68 21.5q-104 0 -141 -37zM274 221q158 -90 166 -90t78 37v539q-12 10 -86 57t-90 51q-66 6 -66 -49 z" />
<glyph unicode="&#xf6;" horiz-adv-x="831" d="M8 166q96 43 96 104v305q0 100 2 87q-4 53 -28 59q-10 6 -66 29q-2 2 -2 10l101 10q70 6 167 69.5t140 123.5h8q53 -37 121 -84q45 -29 153 -82q35 -6 86 -19l-2 -12q-8 -2 -27.5 -9t-29.5 -12q-41 -23 -47 -65v-451q0 -57 76 -96l-6 -20q-70 37 -121 37 q-193 0 -281 -168q-55 37 -166 108q-74 47 -174 76zM197 1102q0 33 22.5 55.5t54.5 22.5q33 0 55.5 -22.5t22.5 -55.5t-22.5 -55.5t-55.5 -22.5t-55 23.5t-22 54.5zM274 221q158 -90 166 -90t78 37v539q-12 10 -86 57t-90 51q-66 6 -66 -49zM481 1102q0 33 22.5 55.5 t55.5 22.5t55.5 -22.5t22.5 -55.5t-22.5 -55.5t-55.5 -22.5t-55.5 23.5t-22.5 54.5z" />
<glyph unicode="&#xf8;" horiz-adv-x="831" d="M8 166q96 43 96 104v305q0 100 2 87q-4 53 -28 59q-10 6 -66 29q-2 2 -2 10l101 10q70 6 167 69.5t140 123.5h8q2 0 57.5 -40t65.5 -46.5t41 -24.5l92 158h68l-113 -187q33 -14 65.5 -23t83.5 -22l-2 -12q-8 -2 -27.5 -9t-29.5 -12q-41 -23 -47 -65v-451q0 -57 76 -96 l-6 -20q-70 37 -121 37q-193 0 -281 -168q-59 39 -155 100l-72 -117h-66l88 146q-51 29 -135 55zM274 221q37 -20 84 -47q72 -39 82 -43q8 0 78 37v457zM274 330l232 385q-133 98 -164 100q-66 6 -66 -49z" />
<glyph unicode="&#xf9;" horiz-adv-x="876" d="M-12 803l207 174q70 -86 180 -154q-49 -14 -60 -22q-29 -25 -28 -84v-481q0 -90 127 -91q133 0 133 93v489q0 70 -78 92v8q70 39 74 41q37 25 59 62l31 49q6 -2 22 -31q41 -68 162 -143q-16 4 -45 2q-55 -2 -55 -107v-501q0 -61 43 -62q14 0 38 19l25 20q4 -4 13 -22 q-35 -27 -123 -101q-29 -27 -82 -84q-10 18 -31 51q-80 102 -184 103q-160 0 -211 -152q-14 49 -69.5 96.5t-108.5 61.5q-2 14 57 29q29 12 37 86v485q0 96 -58 96q-10 -4 -69 -37q-2 3 -6 15zM223 1155q0 13 6 25q18 41 39 41q14 0 43 -19l273 -176l-2 -12q-276 92 -308 92 q-51 0 -51 49z" />
<glyph unicode="&#xfa;" horiz-adv-x="876" d="M-12 803l207 174q70 -86 180 -154q-49 -14 -60 -22q-29 -25 -28 -84v-481q0 -90 127 -91q133 0 133 93v489q0 70 -78 92v8q70 39 74 41q37 25 59 62l31 49q6 -2 22 -31q41 -68 162 -143q-16 4 -45 2q-55 -2 -55 -107v-501q0 -61 43 -62q14 0 38 19l25 20q4 -4 13 -22 q-35 -27 -123 -101q-29 -27 -82 -84q-10 18 -31 51q-80 102 -184 103q-160 0 -211 -152q-14 49 -69.5 96.5t-108.5 61.5q-2 14 57 29q29 12 37 86v485q0 96 -58 96q-10 -4 -69 -37q-2 3 -6 15zM233 1026l5 -12q276 92 307 92q51 0 51 49q0 13 -6 25q-18 41 -39 41 q-14 0 -43 -19z" />
<glyph unicode="&#xfb;" horiz-adv-x="876" d="M-12 803l207 174q70 -86 180 -154q-49 -14 -60 -22q-29 -25 -28 -84v-481q0 -90 127 -91q133 0 133 93v489q0 70 -78 92v8q70 39 74 41q37 25 59 62l31 49q6 -2 22 -31q41 -68 162 -143q-16 4 -45 2q-55 -2 -55 -107v-501q0 -61 43 -62q14 0 38 19l25 20q4 -4 13 -22 q-35 -27 -123 -101q-29 -27 -82 -84q-10 18 -31 51q-80 102 -184 103q-160 0 -211 -152q-14 49 -69.5 96.5t-108.5 61.5q-2 14 57 29q29 12 37 86v485q0 96 -58 96q-10 -4 -69 -37q-2 3 -6 15zM168 1026l190 176q31 29 54 17q18 0 39 -19l192 -178l-4 -12q-16 6 -123 53 q-94 41 -105.5 41t-13.5 2h-2q-12 0 -110 -45q-80 -37 -113 -47z" />
<glyph unicode="&#xfc;" horiz-adv-x="876" d="M-12 803l207 174q70 -86 180 -154q-49 -14 -60 -22q-29 -25 -28 -84v-481q0 -90 127 -91q133 0 133 93v489q0 70 -78 92v8q70 39 74 41q37 25 59 62l31 49q6 -2 22 -31q41 -68 162 -143q-16 4 -45 2q-55 -2 -55 -107v-501q0 -61 43 -62q14 0 38 19l25 20q4 -4 13 -22 q-35 -27 -123 -101q-29 -27 -82 -84q-10 18 -31 51q-80 102 -184 103q-160 0 -211 -152q-14 49 -69.5 96.5t-108.5 61.5q-2 14 57 29q29 12 37 86v485q0 96 -58 96q-10 -4 -69 -37q-2 3 -6 15zM197 1102q0 33 22.5 55.5t54.5 22.5q33 0 55.5 -22.5t22.5 -55.5t-22.5 -55.5 t-55.5 -22.5t-55 23.5t-22 54.5zM481 1102q0 33 22.5 55.5t55.5 22.5t55.5 -22.5t22.5 -55.5t-22.5 -55.5t-55.5 -22.5t-55.5 23.5t-22.5 54.5z" />
<glyph unicode="&#xfd;" horiz-adv-x="784" d="M-18 803q70 55 182 170l90 -96q49 -37 119 -37q86 0 186 137q59 -104 182 -141q-63 -18 -90 -88v-316q-12 -143 21 -182q20 -23 63 -68q37 -41 41 -73q0 -2 2 -15v-16q0 -137 -164 -240l-264 -166l-37 -18q-20 98 -137 170q-96 59 -151 49l-5 10l207 174 q-137 131 -211 138q-10 -6 -14 -2v16q57 2 77.5 23.5t20.5 78.5q0 236 -2 422q-12 39 -16 47q-14 23 -47 23q-12 -4 -39 -21q0 2 -8 9.5t-6 11.5zM172 1079l4 -14q297 53 320 53q70 0 69 58q0 14 -2 22q-14 57 -55 57q-18 0 -45 -14zM236 10q16 -39 77 -104q121 -86 183 -86 q47 0 101 61.5t54 110.5q0 53 -45 92q-39 33 -76 63q-29 29 -34 84q-51 -31 -260 -221zM262 373q0 -14 2 -51q4 -47 4 -74q78 -68 97 -68q12 0 127 96q0 211 2 455q0 86 -121 86q-111 0 -111 -129v-315z" />
<glyph unicode="&#xff;" horiz-adv-x="784" d="M-18 803q70 55 182 170l90 -96q49 -37 119 -37q86 0 186 137q59 -104 182 -141q-63 -18 -90 -88v-316q-12 -143 21 -182q20 -23 63 -68q37 -41 41 -73q0 -2 2 -15v-16q0 -137 -164 -240l-264 -166l-37 -18q-20 98 -137 170q-96 59 -151 49l-5 10l207 174 q-137 131 -211 138q-10 -6 -14 -2v16q57 2 77.5 23.5t20.5 78.5q0 236 -2 422q-12 39 -16 47q-14 23 -47 23q-12 -4 -39 -21q0 2 -8 9.5t-6 11.5zM156 1122q0 33 22.5 55.5t54.5 22.5q33 0 55.5 -22.5t22.5 -55.5t-22.5 -55.5t-55.5 -22.5t-55 23.5t-22 54.5zM236 10 q16 -39 77 -104q121 -86 183 -86q47 0 101 61.5t54 110.5q0 53 -45 92q-39 33 -76 63q-29 29 -34 84q-51 -31 -260 -221zM262 373q0 -14 2 -51q4 -47 4 -74q78 -68 97 -68q12 0 127 96q0 211 2 455q0 86 -121 86q-111 0 -111 -129v-315zM440 1122q0 33 22.5 55.5t55.5 22.5 t55.5 -22.5t22.5 -55.5t-22.5 -55.5t-55.5 -22.5t-55.5 23.5t-22.5 54.5z" />
<glyph unicode="&#x152;" horiz-adv-x="2338" d="M16 612q0 154 101 308q94 145 233 225q-8 0 -47 -7.5t-51 -7.5q-61 0 -104.5 39t-43.5 95q0 51 34 86.5t85 35.5q39 0 72 -28.5t33 -65.5q0 -33 -21.5 -59.5t-50.5 -26.5q-27 0 -46.5 18.5t-19.5 45.5q2 37 43 47q41 0 54 -49l8 14q0 27 -20.5 48.5t-47.5 21.5 q-37 0 -64.5 -27t-27.5 -63q0 -37 36 -67t75 -30q195 0 393 248v-266h4q72 68 270 262q31 -78 164 -201t164 -223q27 27 199 115q12 8 100 51v53q-176 -90 -254 -82q-49 4 -55 6q-18 4 -47 27q-49 37 -49 98q0 49 34.5 86t79.5 37q63 0 92 -59q8 -10 9 -33 q0 -20 -17.5 -42.5t-38.5 -22.5q-63 0 -63 55q0 27 49 53q-2 18 -37 19q-33 0 -55.5 -26t-22.5 -58q-2 -109 135 -109q88 0 226 86q127 80 186 160q18 31 19 31q-2 -68 0 -191q6 -6 62 30t79 56q49 43 70 96q14 -33 53 -84q158 -141 223 -131q84 0 84 76q0 31 -22.5 51.5 t-51.5 16.5q16 -20 17 -47q0 -41 -37 -41q-57 0 -58 53q0 37 25 56.5t61 12.5q37 -6 64 -33.5t27 -60.5q0 -55 -72 -127q-18 -18 -115 -96q-57 -35 -186 -129q51 -2 205 0v74h28v-285h-24q8 59 -21 64q-80 0 -196 -3v-180q33 23 98 72q12 12 20 41q0 23 -24 29q-4 6 -15 2 l-6 -9q12 -18 13 -18q0 -16 -29 -27q-25 0 -25 25q0 47 56 49q23 0 38 -16.5t15 -30.5q0 -41 -51 -78l-88 -61q0 -31 -2 -47q72 37 239 155l10 -10q-6 -12 -30 -39q109 -41 108 -162q0 -72 -61 -133q-20 -20 -135 -108q-139 -84 -271 -215q-18 -16 -65 -66q-8 8 -33 31 q-39 37 -215 83t-268 134q-4 4 -8 4q-18 0 -46 -39t-28 -72q0 -72 84 -71q23 0 42 15t19 38q0 8 -10 25q-2 0 -18.5 -19.5t-26.5 -19.5q-31 0 -31 32q0 41 39 41q68 0 68 -59q0 -33 -30 -56.5t-62 -23.5q-41 0 -72 33t-31 69q0 68 78 127q-25 33 -62 89q-18 43 -18 94 q-66 -78 -272 -232q-160 -119 -191 -227l-20 -8q-27 41 -201 110q-190 76 -231 111q-57 -55 -58 -117q0 -25 22.5 -43t49.5 -18q37 0 51 43q4 12 -4 19t-14 3q-16 -25 -37 -26q-31 6 -31 35q10 47 62 36q45 -14 47 -67q0 -25 -22.5 -47.5t-55.5 -22.5q-39 0 -70 25.5 t-31 62.5q0 66 72 133q-162 156 -162 426zM158 684q0 -102 52 -198.5t140 -149.5q105 71 105 108l-2 592q0 115 -70 115l-14 -10l-2 -39q-74 -27 -141.5 -137.5t-67.5 -192.5v-88zM209 770q137 94 137 158q0 53 -35 53q-20 -6 -18 -6q18 -31 18 -33q0 -27 -26 -27 q-8 0 -17.5 15.5t-9.5 23.5q0 49 51 50q25 0 42.5 -19.5t17.5 -44.5q0 -51 -33 -86q2 -14 41 -47t39 -45q-47 -41 -97 -88q-49 -57 -49 -119q0 -23 17.5 -42t40.5 -19q57 0 57 32l-10 11q-12 -6 -23 -7q-31 0 -30 33q0 31 38 31q51 0 52 -57q0 -66 -76 -66q-90 0 -90 100 q0 29 16.5 66t34.5 45zM379 309q35 -29 147 -57q106 -27 162 -27h39q-2 86 0 260q-53 -43 -72 -61q-20 -25 -20 -64q0 -12 2 -26q-23 20 -49 20q-37 0 -96 -53l-19 8l254 213v619h-4q-88 0 -88 -90l-2 -455q0 -27 33 -38l32 -11zM711 -27q74 117 147 181q47 39 137 114 l82 51l13 -24l-3 -2l-4 4q-49 -29 -98 -76q51 4 92 -35t41 -92q0 -39 -24.5 -68.5t-61.5 -29.5q-31 0 -56.5 22.5t-25.5 51.5q0 72 60 71q37 0 37 -43q0 -31 -31 -30q-2 0 -12.5 10t-18.5 8l-8 -14q10 -47 51 -47q59 0 59 67q0 37 -28.5 67.5t-65.5 30.5q-41 0 -75.5 -35.5 t-34.5 -76.5q0 -8 4 -25q-6 -4 -17 0q-6 2 -16 4q-41 0 -139 -92zM758 227l30 2v904l-30 4v-910zM821 240q139 37 205 192q51 121 51 289q0 129 -68.5 233.5t-183.5 169.5v-549q86 72 103 89q55 57 55 116q0 82 -61 82q-55 0 -56 -53l6 -27l13 -10q4 43 33 43l28 -27 q0 -47 -41 -47q-25 0 -43 22.5t-18 49.5q0 31 24.5 51.5t55.5 20.5q86 0 86 -115q0 -66 -103 -164q41 2 67.5 -26.5t26.5 -71.5q0 -31 -23.5 -53.5t-51.5 -22.5q-18 0 -37 12.5t-19 28.5q0 47 35 47q33 0 33 -28l-14 -29l12 -2q37 0 37 47q0 29 -20.5 50.5t-47.5 21.5 q-31 0 -57.5 -25t-26.5 -55v-260zM1241 664q0 -90 47 -189q53 -111 129 -135q10 -4 47 33q31 31 45.5 50t25.5 58.5t5 57.5v567l-18 -8q-127 -55 -204 -175t-77 -259zM1294 752q78 55 86 63q49 43 50 86q0 25 -19 45h-14l-8 -6q16 -12 16 -22q0 -20 -21 -21q-12 0 -17 11.5 t-5 19.5q0 10 2 12q29 23 35 23q18 0 32.5 -16.5t14.5 -35.5q0 -20 -16 -67q0 -16 47 -56q24 -20 51 -36q-100 -100 -109 -111q-47 -59 -47 -106q0 -72 58 -72q23 0 40 22q0 10 -4 11q-2 0 -9 -2t-11 -2q-25 0 -25 24q0 29 33 29q37 0 37 -45t-64 -54q-33 -4 -54 27t-21 68 q0 29 20.5 67.5t20.5 40.5q0 23 -39 56q-31 20 -60 47zM1450 319q182 -92 389 -102v238q-41 -18 -110 -68q-20 -14 -21 -43q0 -35 27 -35q-8 10 -2 39q16 18 28 19q33 0 33 -31q0 -37 -43 -47q-10 -4 -14 0q-53 0 -54 55q0 39 41 70q12 8 37 23.5t38 24.5t38 21v305h-104 v-163q4 -23 28 -23q16 0 47 12q2 -2 -2 -12q0 -8 2 -10zM1731 815q24 17 112 78v332q-18 6 -28 6q-12 0 -84 -43q-4 -276 0 -373zM1845 -4q0 2 97 78q141 111 286 235q14 0 21 -14q-25 -20 -95 -78q103 -4 107 -90q2 -41 -26.5 -67.5t-65.5 -28.5q-31 -2 -53.5 18.5 t-24.5 50.5q-2 25 14.5 44.5t36.5 19.5q45 6 45 -31t-28 -37q-16 0 -39 31q-6 -8 -6 -23q0 -55 57 -53q29 2 50.5 24.5t19.5 53.5t-27 49.5t-53 16.5q-33 -2 -52 -13q-102 -57 -102 -108q0 -16 8 -27l8 -10q4 -6 -8 -6q-2 0 -29.5 10t-31.5 8q-27 -2 -99 -63q-4 2 -10 10z M1872 217l41 4v565l-41 9v-578zM1872 909q37 29 37 35v244q-25 25 -37 24v-303zM1937 965q111 65 111 100q0 43 -111 106v-206zM1950 225l24 8q150 48 150 152q0 92 -82 131q-14 8 -39 8t-53 -12v-287z" />
<glyph unicode="&#x153;" horiz-adv-x="1101" d="M8 166q96 43 96 104v305q0 100 2 87q-4 53 -28 59q-10 6 -66 29q-2 2 -2 10l101 10q70 6 167 69.5t140 123.5h8q2 0 57.5 -40t63.5 -44q23 -14 84 -52l26 13q119 55 226 118q66 -129 182 -335q-141 -96 -371 -273l-2 -125l164 -112l105 96l18 -19l-227 -219l-217 162 q-121 -33 -187 -151q-55 37 -166 108q-74 47 -174 76zM274 221q158 -90 166 -90q2 0 40 22.5t40 22.5h-2v531q-10 10 -86 58t-86 48q-70 0 -70 -47zM694 395l201 148l-154 293l-47 -17v-424z" />
<glyph unicode="&#x178;" horiz-adv-x="1359" d="M2 1288q0 45 35 84t82 39t80.5 -27.5t33.5 -72.5q0 -82 -81 -82q-25 0 -44.5 19.5t-19.5 43.5q0 18 15.5 33.5t29.5 15.5q18 0 33.5 -17t13.5 -36q-2 -25 -4 -22q33 -2 33 47q0 27 -22.5 49t-49.5 22q-106 0 -106 -98q0 -51 43 -81.5t96 -30.5q66 0 158 38q51 20 84 48 q127 100 143 143q0 14 0 -72q-2 -102 -2 -244q-2 -338 -2 -419q0 -53 2 -62q8 -27 43 -41q27 -10 29 -14q-10 -8 -121 -84q-141 -96 -164 -117q70 -16 192.5 -92t147.5 -104q-2 14 0 102q-63 41 -231 139q2 8 10 8q29 4 219 -122q2 227 2 1071l27 4v-1221l36 31l-2 1190h33 v-1037q84 37 135.5 107t51.5 139q0 139 -80 140q-51 0 -64 -70q-8 -45 37 -60q18 -6 35 17q-8 2 -19 4q-16 6 -16 20q0 25 25 25q34 0 34 -33q0 -18 -17 -33.5t-36 -15.5q-27 0 -44 24.5t-15 59.5q4 84 80 84q10 0 22 -4q-63 96 -65 98q-35 59 -35 105q0 109 102 108 q23 0 45.5 -23.5t24.5 -43.5q6 -82 -57 -82q-39 0 -39 33q0 31 24 30q20 0 21 -20q0 -10 -11 -21q6 -6 11 -6q35 0 34 57q0 43 -55 50q-78 8 -78 -78q0 -47 82 -162t82 -190q0 -84 -65.5 -167t-149.5 -120v-107l236 162v746q0 119 -70 118q-14 0 -46 -19.5t-34 -19.5 q-10 0 -10 23l237 217q4 0 20.5 -28.5t20.5 -32.5q61 -66 111 -90q25 -10 70 -35q-27 -4 -63 -18.5t-36 -102.5l-2 -701q0 -70 17 -135q35 -137 116 -145l-22 -14q-172 -117 -309 -220q-55 -41 -138 -110q-94 -80 -165 -158q-76 70 -183 125q-121 61 -209 61 q-51 0 -83.5 -26.5t-32.5 -67.5q0 -59 61 -59q14 0 31 10q-37 27 -37 37q0 47 49 47q55 0 55 -53q0 -25 -33.5 -45.5t-60.5 -20.5q-94 0 -94 86q0 82 186 170q90 61 168 131q-10 16 -35 50q-41 49 -133 94t-151 43q-37 -2 -68 -32t-31 -67q0 -63 60 -63q14 0 27 25l-21 16 q-20 16 -20 29q0 39 45 39q49 0 49 -52q0 -33 -25.5 -56.5t-58.5 -23.5q-88 0 -84 95q2 70 102 129q164 96 180 211q8 59 9 94v512q-14 104 -72 104q-14 0 -63.5 -7t-65.5 -7q-45 0 -92 22q-76 35 -74 117zM80 915v5q47 16 90 51q51 43 51 84v28q-2 12 -26 17 q-4 -2 -8.5 -7.5t-8.5 -7.5q2 -4 8.5 -5t6.5 -5q0 -25 -29 -24q-10 0 -18.5 12t-6.5 18q10 41 54 41q18 0 32.5 -17.5t14.5 -37.5q0 -6 -4 -31q-2 -14 0 -22q6 -23 61 -58l55 -34q0 39 -63.5 -32t-63.5 -89q0 -51 119 -115l2 -4q-51 -23 -112.5 -96.5t-61.5 -122.5 q0 -80 68 -74q27 2 41 39l-5 23q-14 -6 -24 -9q-27 0 -27 31q0 27 31 27q16 2 31.5 -11.5t15.5 -33.5q0 -88 -67 -90q-82 -4 -82 94q0 47 49 121q-4 37 -41 69.5t-76 44.5q-4 4 0 4q41 10 76 37q45 31 45 66q0 25 -51.5 69.5t-75.5 44.5zM426 1552q0 37 25.5 63.5t62.5 26.5 q39 0 64.5 -25.5t25.5 -64.5q0 -37 -26.5 -63.5t-63.5 -26.5t-62.5 26.5t-25.5 63.5zM500 -47l182 -84v213zM707 96v-237l34 -23v289zM762 -47v-125l65 -41q289 209 289 217q-14 16 -47 59q-59 82 -59 232q-88 -61 -246 -166v-74q25 41 49 56q18 10 41 12q115 16 115 -94 q0 -90 -82 -90q-25 0 -47.5 20.5t-22.5 44.5q0 12 13.5 27.5t25.5 15.5q31 0 31 -31q0 -12 -19 -22q-6 -2 -22 -6q6 -33 45 -33q59 0 59 78q0 25 -22.5 48t-48.5 23q-117 0 -117 -151zM823 1552q0 37 25.5 63.5t62.5 26.5q39 0 64.5 -25.5t25.5 -64.5q0 -37 -26.5 -63.5 t-63.5 -26.5t-62.5 26.5t-25.5 63.5z" />
<glyph unicode="&#x2c6;" d="M127 1026l231 176q35 27 54 17q14 0 39 -19l233 -178l-4 -12q-4 2 -143 51q-113 43 -125.5 43t-14.5 2h-2q-10 0 -131 -45q-66 -25 -133 -47z" />
<glyph unicode="&#x2dc;" horiz-adv-x="870" d="M168 1059q12 59 69.5 96t127.5 37q25 0 76 -23.5t79 -23.5q23 0 72 14.5t67 26.5q-66 -133 -208 -133q-27 0 -74 21.5t-68 21.5q-104 0 -141 -37z" />
<glyph unicode="&#x2000;" horiz-adv-x="874" />
<glyph unicode="&#x2001;" horiz-adv-x="1749" />
<glyph unicode="&#x2002;" horiz-adv-x="874" />
<glyph unicode="&#x2003;" horiz-adv-x="1749" />
<glyph unicode="&#x2004;" horiz-adv-x="583" />
<glyph unicode="&#x2005;" horiz-adv-x="437" />
<glyph unicode="&#x2006;" horiz-adv-x="291" />
<glyph unicode="&#x2007;" horiz-adv-x="291" />
<glyph unicode="&#x2008;" horiz-adv-x="218" />
<glyph unicode="&#x2009;" horiz-adv-x="349" />
<glyph unicode="&#x200a;" horiz-adv-x="97" />
<glyph unicode="&#x2010;" horiz-adv-x="606" d="M27 418q47 76 47 80q16 4 112 4q113 0 336 -4l-41 -80h-454z" />
<glyph unicode="&#x2011;" horiz-adv-x="606" d="M27 418q47 76 47 80q16 4 112 4q113 0 336 -4l-41 -80h-454z" />
<glyph unicode="&#x2012;" horiz-adv-x="606" d="M27 418q47 76 47 80q16 4 112 4q113 0 336 -4l-41 -80h-454z" />
<glyph unicode="&#x2013;" horiz-adv-x="843" d="M0 440v111h834v-111h-834z" />
<glyph unicode="&#x2014;" horiz-adv-x="1607" d="M0 440v111h1597v-111h-1597z" />
<glyph unicode="&#x2018;" horiz-adv-x="372" d="M115 1186q6 -139 151 -223q-16 57 -18 92q-4 121 100 217l-147 153q-90 -139 -86 -239z" />
<glyph unicode="&#x2019;" horiz-adv-x="385" d="M-14 1272l145 153q92 -135 88 -239q-6 -139 -153 -223q18 47 20 92q4 121 -100 217z" />
<glyph unicode="&#x201a;" horiz-adv-x="385" d="M86 160l145 153q92 -135 88 -239q-6 -139 -153 -224q18 47 20 93q4 121 -100 217z" />
<glyph unicode="&#x201c;" horiz-adv-x="614" d="M84 1165q6 -139 154 -223q-18 47 -21 92q-4 121 100 217l-145 154q-92 -135 -88 -240zM391 1165q6 -139 154 -223q-18 47 -21 92q-3 121 101 217l-146 154q-92 -135 -88 -240z" />
<glyph unicode="&#x201d;" horiz-adv-x="614" d="M45 1251l145 154q92 -135 89 -240q-6 -139 -154 -223q18 47 20 92q4 121 -100 217zM352 1251l146 154q92 -135 88 -240q-6 -139 -154 -223q18 47 21 92q3 121 -101 217z" />
<glyph unicode="&#x201e;" horiz-adv-x="614" d="M45 166l145 153q92 -135 89 -239q-6 -139 -154 -223q18 47 20 92q4 121 -100 217zM352 166l146 153q92 -135 88 -239q-6 -139 -154 -223q18 47 21 92q3 121 -101 217z" />
<glyph unicode="&#x2022;" horiz-adv-x="598" d="M113 537q0 74 52 125t126 51q72 0 124 -51.5t52 -124.5q0 -74 -52.5 -125.5t-123.5 -51.5q-74 0 -126 51.5t-52 125.5z" />
</font>
</defs>
</svg>
